<svg width="240" height="241" viewBox="0 0 240 241" fill="none" xmlns="http://www.w3.org/2000/svg">
<rect width="240" height="240" transform="translate(0 0.85791)" fill="white"/>
<path d="M191.336 87.2273C187.21 75.916 181.185 64.8051 171.446 57.725C165.178 53.1667 157.708 50.5288 150.153 48.83C142.503 47.1101 134.663 46.3293 126.823 46.4453C117.949 45.0631 108.812 45.3691 99.9167 46.7408C84.9967 49.0305 70.119 54.4329 59.1769 64.8262C48.4671 74.998 42.2944 89.2849 39.7725 103.846C36.5121 122.617 39.055 142.497 47.7918 159.432C56.5179 176.367 71.5434 190.148 89.4917 196.51C95.6328 198.695 102.069 200.014 108.548 200.752C118.329 201.86 128.258 201.628 137.976 200.066C144.93 198.948 151.799 197.143 158.193 194.2C176.838 185.621 190.239 167.557 195.493 147.709C200.737 127.862 198.374 106.505 191.336 87.2273Z" fill="#B9D5E1"/>
<path d="M191.336 87.2271C187.21 75.9157 181.185 64.8049 171.446 57.7247C165.179 53.1665 157.708 50.5285 150.153 48.8297C142.503 47.1098 135.666 40.3568 127.836 40.4729C118.963 39.0906 108.822 45.3794 99.9275 46.7405C85.0075 49.0302 70.1297 54.4326 59.1877 64.826C48.4778 74.9977 42.3051 89.2846 39.7833 103.846C36.5228 122.617 39.0658 142.496 47.8025 159.432C56.5287 176.367 71.5542 190.148 89.5025 196.51C95.6435 198.694 102.08 200.013 108.559 200.752C118.34 201.86 128.269 201.628 137.987 200.066C144.941 198.948 151.81 197.143 158.204 194.199C176.849 185.621 190.249 167.556 195.504 147.709C200.748 127.861 198.385 106.505 191.347 87.2271H191.336Z" fill="#70E5DF"/>
<mask id="mask0_75718_6755" style="mask-type:luminance" maskUnits="userSpaceOnUse" x="38" y="40" width="161" height="162">
<path d="M191.336 87.2271C187.21 75.9157 181.185 64.8049 171.446 57.7247C165.179 53.1665 157.708 50.5285 150.153 48.8297C142.503 47.1098 135.666 40.3568 127.836 40.4729C118.963 39.0906 108.822 45.3794 99.9275 46.7405C85.0075 49.0302 70.1297 54.4326 59.1877 64.826C48.4778 74.9977 42.3051 89.2846 39.7833 103.846C36.5228 122.617 39.0658 142.496 47.8025 159.432C56.5287 176.367 71.5542 190.148 89.5025 196.51C95.6435 198.694 102.08 200.013 108.559 200.752C118.34 201.86 128.269 201.628 137.987 200.066C144.941 198.948 151.81 197.143 158.204 194.199C176.849 185.621 190.249 167.556 195.504 147.709C200.748 127.861 198.385 106.505 191.347 87.2271H191.336Z" fill="white"/>
</mask>
<g mask="url(#mask0_75718_6755)">
<path d="M167.796 46.3503C167.922 50.592 156.105 61.4707 151.873 61.1331C147.642 60.7954 143.263 59.181 139.306 60.7005C135.191 62.2832 132.933 66.7571 129.156 69.0362C127.51 70.0281 125.642 70.5557 123.912 71.3787C115.755 75.2089 111.619 85.8977 115.069 94.223C116.715 98.1798 119.818 101.694 120.039 105.967C120.218 109.459 118.435 113.216 120.039 116.318C121.654 119.431 125.705 120.096 128.786 121.773C136.056 125.751 137.639 135.543 136.795 143.784C136.352 148.121 135.476 152.447 135.761 156.794C136.046 161.141 137.703 165.668 141.29 168.148C144.867 170.627 150.565 170.184 152.834 166.459C154.564 163.6 153.899 159.981 154.068 156.646C154.237 153.312 156.231 149.345 159.565 149.535C160.958 149.608 162.224 150.442 163.617 150.558C168.777 150.991 169.748 142.95 173.99 139.975C178.01 137.147 184.752 139.215 187.538 135.163C188.762 133.369 188.656 131.016 189.289 128.938C190.703 124.263 195.536 121.594 198.459 117.679C202.743 111.939 202.511 103.909 200.316 97.093C198.111 90.2767 194.206 84.1462 191.505 77.5197C189.215 71.9168 187.791 65.9552 185.069 60.5422C182.346 55.1292 177.967 50.1278 172.101 48.6083C166.234 47.0889 164.472 37.4025 163.269 43.3431" fill="#00753C"/>
<path d="M30.6034 75.5254C29.5377 80.4214 32.3339 85.7077 36.6811 88.2085C41.0284 90.6987 46.5786 90.6142 51.1896 88.6411C54.239 87.3432 57.2884 85.2329 60.5489 85.8027C62.1422 86.0876 63.5456 86.9845 64.8223 87.9869C72.6833 94.1701 76.6507 104.933 74.6881 114.735C74.1394 117.489 73.1475 120.328 73.8545 123.039C75.0785 127.756 80.6392 129.866 83.3087 133.95C87.6982 140.682 83.2771 150.98 88.5845 157.005C89.703 158.271 91.2752 159.411 91.3913 161.099C91.4757 162.228 90.8531 163.283 90.1673 164.18C86.3581 169.213 79.7001 171.914 73.4535 170.986C71.2166 170.648 69.0007 169.889 66.7532 170.1C64.9384 170.279 63.2607 171.081 61.5513 171.693C52.1498 175.069 41.0179 172.569 33.6212 165.858C26.2245 159.147 22.6475 148.616 23.9242 138.708C24.378 135.195 25.3909 131.766 25.6336 128.231C26.3933 117.458 20.0096 107.265 19.999 96.4598C19.9885 87.5015 24.7051 78.6593 32.1545 73.6895" fill="#00753C"/>
<path d="M69.5177 206.587C75.0256 204.72 79.6472 200.415 81.8947 195.065C83.9312 190.232 84.6276 184.007 89.3336 181.707C96.3715 178.277 104.834 187.341 112.009 184.207C112.505 183.986 113.033 183.701 113.571 183.796C114.098 183.88 114.499 184.302 114.805 184.735C117.907 189.029 115.607 195.202 117.306 200.235C118.023 202.345 119.416 204.171 120.187 206.26C120.967 208.349 120.936 211.029 119.205 212.433C118.319 213.15 117.137 213.404 116.008 213.583C105.351 215.335 94.3984 213.678 83.9839 210.85C79.8688 209.732 75.5848 208.423 71.4275 209.331C70.3196 209.573 69.18 209.974 68.0615 209.732C66.9536 209.489 65.9618 208.233 66.4999 207.231" fill="#00753C"/>
</g>
<path d="M193.499 87.7233C191.009 92.0178 188.128 96.4389 184.604 100.691C181.069 104.922 176.838 109.006 171.689 112.14C171.035 112.52 170.402 112.921 169.737 113.269C169.061 113.606 168.397 113.944 167.732 114.271C167.542 114.356 167.437 114.429 167.194 114.535C166.962 114.64 166.666 114.757 166.276 114.862C165.885 114.957 165.379 115.052 164.725 114.968C164.081 114.904 163.332 114.588 162.815 114.145C161.76 113.205 161.601 112.372 161.433 111.908L161.148 110.842C160.42 108.13 159.797 105.439 159.28 102.77C158.225 97.4413 157.592 92.2288 157.265 87.259C156.959 82.2892 156.948 77.541 157.201 73.1304C157.318 70.9462 157.465 68.7304 157.961 66.5357C158.447 64.362 159.322 62.1778 160.747 60.4579C162.14 58.7591 163.986 57.4507 166.054 56.9548C168.133 56.4272 170.254 56.8598 171.773 57.6934C174.886 59.3817 176.332 62.0829 177.06 64.1193C177.788 66.2086 177.978 67.8441 178.083 68.9414C178.168 70.0493 178.104 70.6508 177.914 70.693C177.724 70.7352 177.418 70.2182 176.986 69.2158C176.543 68.2239 176.004 66.715 175.076 65.0057C174.601 64.1615 174.021 63.2752 173.272 62.4838C172.512 61.6925 171.552 60.9644 170.454 60.5318C169.357 60.0886 168.165 60.0042 167.025 60.3946C165.875 60.7745 164.746 61.6714 163.891 62.8848C163.036 64.0771 162.498 65.6177 162.213 67.3903C161.918 69.1525 161.876 71.1467 161.865 73.2992C161.812 77.5621 161.992 82.1098 162.424 86.8792C162.878 91.6379 163.596 96.6078 164.672 101.694C165.2 104.237 165.822 106.811 166.54 109.396L166.793 110.314L166.814 110.388C166.909 110.357 166.613 110.462 166.434 110.546C166.276 110.61 166.107 110.694 166.001 110.747C165.495 111 165.295 111.19 165.21 111.285C165.073 111.464 165.368 111.274 165.073 110.135C165.02 109.903 164.809 109.291 164.872 109.46L164.957 109.428L165.347 109.227L167.078 108.352C167.648 108.046 168.207 107.687 168.766 107.36C173.261 104.627 177.091 101.018 180.404 97.1564C183.718 93.2734 186.545 89.1478 189.078 85.0643C190.355 83.0384 191.536 81.0019 192.687 79.0182C193.837 77.0345 194.881 75.1563 195.683 73.3098C196.496 71.4738 197.044 69.6695 197.255 67.939C197.371 67.1054 197.393 66.0503 197.319 65.892C197.319 65.8709 197.319 65.8498 197.319 65.8498C197.287 65.8709 197.445 65.7654 197.414 65.7865C197.308 65.8815 197.361 65.8498 197.308 65.8181C197.234 65.7443 196.981 65.6282 196.643 65.5438C193.478 64.7735 190.291 64.8685 187.653 65.5016C184.984 66.0714 182.81 67.1371 181.122 68.1184C177.756 70.1654 176.3 71.9908 175.941 71.7165C175.677 71.5582 176.532 69.2158 179.856 66.3457C181.523 64.9635 183.813 63.4546 186.809 62.4838C189.785 61.4603 193.457 60.975 197.54 61.6714C198.099 61.7874 198.754 61.9457 199.482 62.3889C200.21 62.8004 200.948 63.6762 201.223 64.4992C201.529 65.3117 201.571 66.0292 201.592 66.6201C201.592 67.1899 201.603 67.7596 201.56 68.3294C201.413 70.6191 200.822 72.8983 199.988 75.0719C199.155 77.2455 198.089 79.3453 197.002 81.4134C195.905 83.471 194.765 85.5919 193.499 87.7338" fill="#FE6E55"/>
<path d="M78.6338 111.042C78.4544 111.475 73.8645 110.177 67.7762 105.482C64.7585 103.139 61.4452 99.8999 58.5013 95.6898C58.1426 95.1622 57.7627 94.6557 57.3829 93.9804C57.0136 93.3157 56.6337 92.5348 56.486 91.5113C56.3277 90.4667 56.5704 89.2322 57.2563 88.2509C57.9738 87.2485 59.0184 86.6892 59.9258 86.4044C61.7618 85.8768 63.3551 86.0034 64.9484 86.2461C66.3201 86.4888 67.7235 86.7209 69.1374 86.9741L66.7211 88.8207C66.7844 88.0504 66.8793 87.2274 66.9954 86.4044C67.217 84.8427 67.523 83.3233 67.9028 81.8355C68.0928 81.0969 68.346 80.2 68.8103 79.3242C69.053 78.8811 69.359 78.4168 69.7916 77.9842C70.2242 77.5516 70.8151 77.14 71.4904 76.929C72.1551 76.7074 72.8621 76.6758 73.5691 76.8129C74.276 76.9501 74.888 77.2983 75.3417 77.6571C76.2703 78.4062 76.724 79.2293 77.1144 80.0101C77.4732 80.7909 77.7264 81.5823 77.8847 82.3525C78.0218 83.0067 78.1485 83.6609 78.2751 84.3046C79.288 89.4643 79.9211 94.1914 80.1216 98.2011C80.3326 102.211 80.1216 105.471 79.7523 107.698C79.3724 109.924 78.8976 111.095 78.6338 111.053C78.3384 111.011 78.2645 109.776 78.1485 107.603C78.0218 105.429 77.7791 102.306 77.2094 98.4754C76.6501 94.6452 75.7427 90.1185 74.5504 85.096C74.4026 84.4734 74.2444 83.8298 74.0966 83.1861C73.97 82.6585 73.7906 82.1626 73.5585 81.7089C73.3369 81.2763 73.052 80.8964 72.8726 80.7909C72.7882 80.7065 72.746 80.7803 72.7882 80.6854C72.7882 80.6432 72.7882 80.6748 72.7882 80.6959C72.7882 80.7065 72.7882 80.7487 72.7882 80.7487H72.7671C72.7988 80.7381 72.63 80.8226 72.4189 81.2235C72.2184 81.6245 72.0496 82.1309 71.8913 82.8168C71.5537 84.1674 71.2899 85.5602 71.0789 86.9741C70.9734 87.7233 70.8889 88.4725 70.8151 89.1689L70.604 91.4164L68.3988 91.0154C66.9848 90.7622 65.592 90.4984 64.2203 90.2557C63.0702 90.0447 61.8462 90.013 61.0759 90.224C60.6961 90.3401 60.5273 90.4773 60.4534 90.5406C60.3795 90.6461 60.3057 90.7622 60.3373 91.0049C60.3584 91.5535 60.9282 92.5665 61.6035 93.5795C64.1465 97.5891 67.0165 100.818 69.6227 103.297C74.8669 108.278 78.9082 110.462 78.6233 111.021L78.6338 111.042Z" fill="#FE6E55"/>
<path d="M97.9855 111.929L96.9725 111.992C96.8987 111.918 96.5082 111.855 95.8013 111.812C95.7274 111.654 95.4636 111.475 94.9994 111.274C94.7883 111.274 94.3346 110.895 93.6593 110.145C93.0473 109.586 92.7308 109.28 92.6991 109.196C92.6675 109.037 92.5408 108.837 92.3298 108.605C92.1821 108.373 92.0238 107.813 91.8444 106.938C91.2746 104.996 90.9687 103.73 90.937 103.139C90.9053 102.548 90.937 101.715 91.0425 100.649C90.8948 100.448 90.9159 99.9525 91.0953 99.1611C91.0953 98.7285 91.148 97.7366 91.2535 96.1961V95.8374L91.4646 93.1678C91.4329 92.3764 91.5384 91.564 91.7811 90.7304C92.0344 89.8968 92.2137 89.1265 92.3193 88.409C92.4248 88.3668 92.5303 87.8498 92.6358 86.8685C93.1739 85.0114 93.4905 83.9773 93.596 83.7769L94.4507 82.1097C94.5562 81.9936 94.7145 81.7298 94.9361 81.3394L96.5399 79.0181C96.7509 78.7437 97.2152 78.4061 97.9327 78.0051C98.3231 77.5725 98.7874 77.2349 99.3255 76.9922C100.676 76.3591 101.837 75.9792 102.797 75.8631C103.219 76.2219 103.81 76.1058 104.559 75.5044C106.701 75.7049 108.136 75.7998 108.864 75.7998C109.592 75.7998 110.32 75.937 111.027 76.2114C112.093 76.4435 112.652 76.9078 112.684 77.5725C112.758 78.5644 112.631 79.3135 112.315 79.8306C111.998 80.3476 111.587 80.5692 111.08 80.4848C109.613 80.2421 108.421 80.1682 107.492 80.2421C106.564 80.3265 105.688 80.6219 104.876 81.139C104.802 81.1812 104.644 81.255 104.39 81.3711C103.821 81.6454 103.356 81.9409 102.998 82.268C101.679 83.492 100.444 85.8133 99.3044 89.2215L99.1462 90.2345C99.1462 90.2345 99.1884 90.2028 99.1778 90.2661C99.1567 90.3294 99.1251 90.4455 99.0723 90.6249C99.0195 90.8042 98.9879 90.952 98.9668 91.068C98.9457 91.1841 98.8824 91.3846 98.7769 91.6589C98.4181 92.7246 98.1121 94.223 97.8378 96.1434C97.574 98.0637 97.4368 99.657 97.4368 100.923C97.4368 102.189 97.6373 103.202 98.0277 103.952L98.8824 105.017C99.0301 105.334 99.4522 105.714 100.17 106.146C100.486 106.579 100.972 107.022 101.615 107.455C102.185 107.729 103.145 107.434 104.506 106.568C104.644 106.452 104.791 106.315 104.939 106.157L106.226 105.207C107.007 104.3 107.492 103.688 107.672 103.371L108.316 102.78L108.527 100.934C108.527 100.934 108.558 100.776 108.632 100.575C108.769 99.9841 108.843 99.4671 108.843 99.0345V98.2009L108.738 96.3544C108.769 95.7951 108.706 95.4258 108.527 95.2254C107.988 95.2254 106.997 95.7846 105.53 96.8925C105.424 96.9769 105.182 96.998 104.812 96.9769C104.443 96.9558 104.148 96.8925 103.926 96.7659C103.314 96.3649 103.019 95.869 103.019 95.2781C103.019 94.6872 103.071 94.2124 103.177 93.8536C103.282 93.4949 103.346 93.2628 103.367 93.1361C103.388 93.0201 103.451 92.8935 103.578 92.7457C103.704 92.6086 103.873 92.4608 104.084 92.3026C104.295 92.1443 104.559 91.8911 104.855 91.564C105.161 91.2263 105.794 90.8042 106.754 90.2872C107.714 89.7702 108.801 89.5169 110.014 89.5169C111.228 89.5169 112.209 89.9073 112.958 90.6776C113.707 91.4479 114.351 92.8829 114.879 94.9827C114.952 95.4575 114.984 96.5021 114.984 98.106C114.984 99.7098 114.646 102.696 113.971 107.043C113.792 108.942 113.591 110.219 113.359 110.873C113.127 111.528 112.979 112.203 112.905 112.899C112.832 113.596 112.768 114.081 112.716 114.355C112.663 114.63 112.631 114.82 112.61 114.915C112.589 115.01 112.578 115.105 112.557 115.178C112.536 115.252 112.473 115.484 112.367 115.864C112.262 116.244 111.998 116.624 111.565 117.025C111.143 117.415 110.742 117.637 110.394 117.679C109.212 117.437 108.432 117.025 108.041 116.434C107.893 116.202 107.704 115.759 107.45 115.126C107.197 114.493 107.07 113.944 107.049 113.49C107.028 113.036 107.028 112.73 107.049 112.572C107.07 112.414 107.134 111.929 107.239 111.116C107.345 110.304 107.419 109.681 107.45 109.248L106.005 111.211C106.005 111.369 105.688 111.644 105.045 112.045C104.76 112.361 103.937 112.477 102.586 112.403H102.101C102.069 112.72 101.225 112.699 99.5893 112.34C99.3783 112.382 98.8402 112.245 97.9855 111.918V111.929Z" fill="#3E3A36"/>
<path d="M123.436 94.4025L123.806 90.0025C123.806 89.7598 123.89 89.4116 124.048 88.9368C124.206 88.462 124.301 88.1665 124.344 88.0399C124.344 87.966 124.375 87.8183 124.449 87.6284C124.449 86.5627 124.713 85.6341 125.251 84.8322C126.074 82.7324 126.697 81.1708 127.119 80.1367C127.551 79.1027 128.005 78.2585 128.512 77.5832C128.543 77.3828 128.923 77.0662 129.63 76.6336C131.097 75.7578 132.468 75.3252 133.745 75.3252C135.022 75.3252 136.256 75.5468 137.438 75.9794C137.829 76.0638 138.356 76.3593 139.021 76.8657C139.686 77.3828 140.066 77.6571 140.171 77.6993C140.773 78.1003 141.406 78.9338 142.07 80.2211C142.735 81.5084 143.083 82.4475 143.136 83.0384C143.189 83.6293 143.4 84.579 143.78 85.8557C144.149 87.143 144.339 88.0926 144.339 88.7046C144.339 89.3166 144.434 90.2452 144.634 91.4692C144.835 92.6931 144.909 93.685 144.877 94.4447C144.666 100.027 144.022 104.068 142.957 106.569C142.746 108.31 142.334 109.417 141.722 109.892L141.617 110.726C141.585 111.201 141.374 111.739 141.005 112.33C140.635 112.921 140.161 113.374 139.591 113.691C139.485 113.807 138.768 113.986 137.449 114.229C135.56 114.63 134.315 114.82 133.703 114.82C132.922 115.094 131.93 115.052 130.738 114.672C129.546 114.292 128.86 114.102 128.68 114.081C128.501 114.06 128.121 113.849 127.53 113.427C126.939 113.016 126.56 112.688 126.38 112.446C125.81 111.971 125.473 111.591 125.367 111.317L124.618 109.65C124.154 109.133 123.837 108.394 123.658 107.423C123.478 106.452 123.299 105.83 123.12 105.556C122.94 105.123 122.782 104.659 122.634 104.184C122.666 103.91 122.687 103.414 122.687 102.696V102.105C122.539 101.514 122.582 100.934 122.793 100.385C122.824 100.111 122.856 99.7627 122.877 99.3407C122.898 98.9292 122.94 98.3172 123.014 97.5258V96.7555C123.331 95.5632 123.478 94.7718 123.447 94.3814L123.436 94.4025ZM129.535 98.7392L129.693 104.089C130.263 106.347 131.097 107.93 132.205 108.848C132.384 109.048 132.796 109.259 133.439 109.502L134.779 109.861C134.959 109.861 135.149 109.787 135.37 109.618C135.623 109.544 135.792 109.439 135.908 109.322C136.161 108.964 136.404 108.647 136.657 108.373C136.911 108.099 137.016 107.951 136.974 107.951C137.111 107.793 137.174 107.539 137.132 107.181C137.238 107.064 137.385 106.801 137.565 106.41C137.955 104.194 138.346 102.77 138.736 102.137C138.873 100.396 138.947 99.2879 138.947 98.8131C138.947 97.1459 138.557 95.1095 137.765 92.6931C137.343 92.1339 137.122 90.3718 137.122 87.4068C136.911 86.8159 136.784 86.2672 136.752 85.7713C136.721 85.2754 136.605 84.7372 136.404 84.1674C136.204 83.5977 136.056 83.2072 135.95 83.0068C135.845 82.8063 135.782 82.6164 135.761 82.4475C135.739 82.2682 135.666 82.0466 135.518 81.7617C134.948 80.812 134.072 81.3291 132.901 83.3022L131.994 85.0854C131.994 85.1593 131.814 85.8979 131.455 87.2802C130.886 89.496 130.611 90.7305 130.622 90.9943C130.643 91.2476 130.432 92.0706 130.01 93.4634C129.978 93.5795 129.968 93.8644 129.978 94.297C129.999 94.7296 129.925 95.3416 129.767 96.1119C129.609 96.8821 129.525 97.7685 129.525 98.7603L129.535 98.7392Z" fill="#3E3A36"/>
<path d="M72.0496 140.956C71.195 141.315 70.4669 141.505 69.876 141.526C69.1796 141.558 68.4937 141.389 67.8079 141.03C67.122 140.672 66.6472 140.313 66.3729 139.954C66.0985 139.595 65.8981 139.047 65.7609 138.297C65.571 137.242 65.4549 136.673 65.4338 136.588C64.3259 134.351 62.6376 133.243 60.3479 133.254C60.0947 133.254 59.8203 133.264 59.5354 133.296C57.098 133.57 55.452 134.879 54.5762 137.242C53.7109 139.606 53.4155 143.151 53.6898 147.889C53.7848 149.524 54.1647 151.097 54.8505 152.605C55.7474 154.674 57.9949 155.708 61.6035 155.687L63.6822 155.465C64.5263 155.349 65.1172 155.011 65.476 154.473C65.8347 153.935 66.0247 153.376 66.0669 152.785C66.1513 152.247 66.0458 151.445 65.7714 150.369C65.6237 149.809 65.2016 149.535 64.5052 149.535C63.8721 149.535 63.0069 149.778 61.899 150.252C61.1182 150.58 60.464 150.748 59.9153 150.748C58.7652 150.748 58.0371 150.02 57.7628 148.554C57.5939 147.646 57.499 146.886 57.499 146.285C57.499 145.494 57.6361 144.977 57.9316 144.744C58.4381 144.344 59.1134 144.059 59.9786 143.89C60.9599 143.721 61.6985 143.605 62.1839 143.531C62.4582 143.489 62.7431 143.457 63.0386 143.457C64.0832 143.457 65.4338 143.679 67.0693 144.132C69.2535 144.755 70.5724 145.821 71.0261 147.33C71.3005 148.258 71.4482 149.218 71.4482 150.2C71.4482 150.78 71.406 151.35 71.3005 151.92C70.8046 154.6 70.1187 156.721 69.2429 158.261C68.3566 159.802 66.8582 160.772 64.7374 161.152C63.7139 161.342 61.8779 161.416 59.2611 161.353C56.8659 161.3 55.1776 160.962 54.1858 160.361C52.8141 159.527 51.8327 158.82 51.2419 158.24C50.3977 157.428 49.6802 156.393 49.0893 155.138C48.2874 153.46 47.8653 150.4 47.8442 145.937C47.8442 143.953 47.9287 141.568 48.1186 138.793C48.3296 135.733 48.9838 133.454 50.0706 131.956C52.3392 128.822 55.1671 126.976 58.5436 126.416C59.5671 126.248 61.076 126.216 63.0491 126.321C65.4443 126.448 67.2909 126.849 68.5993 127.514C70.0976 128.273 71.311 129.582 72.2396 131.418C73.1259 133.159 73.5796 134.995 73.5902 136.905C73.6007 139.173 73.0943 140.513 72.0707 140.935L72.0496 140.956Z" fill="white"/>
<path d="M89.4173 126.205C91.6437 126.005 94.2183 126.152 97.1305 126.659C100.18 127.176 102.005 128.864 102.607 131.703C102.881 133.032 103.029 134.151 103.029 135.058C103.029 136.25 102.828 137.253 102.417 138.076C100.686 141.421 97.732 143.13 93.5324 143.193C92.8993 143.193 91.9813 143.151 90.7573 143.046C89.5439 142.951 88.6365 142.898 88.0456 142.898C87.8134 142.898 87.6974 142.982 87.6974 143.141C87.6974 143.394 87.9295 143.805 88.3938 144.365C89.9554 146.201 91.2427 147.794 92.2662 149.134C93.7223 151.044 94.8197 152.458 95.5689 153.386C97.0883 155.433 97.848 156.984 97.8586 158.029C97.8586 159.147 97.3204 160.002 96.2336 160.593C95.8327 160.804 95.4317 160.909 95.0413 160.909C93.7434 160.909 92.4139 160.129 91.0633 158.546C90.0715 157.364 89.1957 155.94 88.4254 154.294L84.5741 145.81C85.0384 150.611 85.2599 153.513 85.2494 154.526C85.2388 156.32 85.2494 157.311 85.2599 157.501C85.2599 158.082 85.1439 158.715 84.8906 159.39C84.6374 160.065 84.2892 160.54 83.8249 160.793C83.4873 160.983 82.928 161.121 82.1578 161.226C80.6911 161.416 79.9419 160.076 79.9314 157.174C79.847 156.636 79.7837 155.992 79.7309 155.254C79.3827 149.746 79.2139 145.093 79.2139 141.294C79.2139 138.677 79.2455 136.873 79.2772 135.87C79.446 131.998 80.2268 129.518 81.6302 128.442C82.8014 127.292 85.3866 126.543 89.3962 126.195L89.4173 126.205ZM89.4489 131.734C88.6259 131.734 87.8873 131.987 87.2225 132.483C86.2412 133.19 85.7348 134.182 85.7242 135.47C85.7137 137.147 86.5156 138.034 88.13 138.118C91.306 138.287 93.047 137.506 93.3741 135.786C93.6801 134.151 93.1842 133.011 91.8758 132.367C91.0528 131.956 90.2403 131.745 89.4489 131.755V131.734Z" fill="white"/>
<path d="M124.481 133.971C124.058 134.119 123.193 134.203 121.864 134.235C120.661 134.267 119.564 134.267 118.561 134.256C117.569 134.235 116.567 134.435 115.543 134.868C114.625 135.248 114.013 135.86 113.728 136.725C113.602 137.052 113.465 137.97 113.306 139.479C113.306 140.017 113.37 141.009 113.475 142.476C113.739 143.985 114.425 144.808 115.533 144.945C116.229 145.04 117.189 145.04 118.434 144.966C119.69 144.913 120.714 144.903 121.494 144.945L123.731 145.071C124.428 145.114 125.04 145.346 125.588 145.768C126.222 146.253 126.538 146.855 126.538 147.583C126.538 147.91 126.496 148.427 126.422 149.123C126.338 149.408 126.137 149.725 125.831 150.073C125.04 150.632 123.911 150.843 122.465 150.685C120.872 150.505 119.68 150.4 118.899 150.358C117.77 150.294 117.073 150.242 116.82 150.189C116.504 150.147 116.219 150.126 115.965 150.126C115.712 150.126 115.491 150.147 115.301 150.199C114.689 150.199 114.288 150.727 114.077 151.782C113.876 152.785 113.982 153.492 114.404 153.882C114.952 154.388 115.48 154.694 115.987 154.789C117.896 155.127 119.595 155.222 121.093 155.074C123.869 154.8 125.472 155.391 125.926 156.836C126.011 157.142 126.053 157.47 126.053 157.818C126.063 159.96 124.85 161.047 122.412 161.057C122.117 161.057 121.315 160.994 120.017 160.857C116.409 160.551 114.224 160.329 113.465 160.192C110.12 159.559 108.41 157.311 108.326 153.449C108.242 149.588 108.104 146.232 107.893 143.394C107.798 142.18 107.756 141.115 107.756 140.207C107.746 137.738 107.946 135.227 108.379 132.684C108.949 129.255 111.365 127.165 115.628 126.416C116.989 126.173 118.012 126.068 118.688 126.089C120.851 126.173 122.792 126.522 124.523 127.144C125.135 127.44 125.641 128.031 126.042 128.906C126.443 129.782 126.601 130.595 126.496 131.333C126.433 131.797 126.39 132.072 126.369 132.135C125.937 133.116 125.304 133.739 124.491 134.003L124.481 133.971Z" fill="white"/>
<path d="M148.929 133.845C148.507 133.982 147.642 134.077 146.312 134.098C145.109 134.129 144.012 134.129 143.009 134.119C142.018 134.098 141.015 134.309 139.992 134.731C139.074 135.111 138.462 135.733 138.177 136.588C138.05 136.915 137.913 137.833 137.755 139.342C137.755 139.88 137.818 140.882 137.923 142.339C138.187 143.847 138.873 144.67 139.981 144.808C140.677 144.892 141.638 144.903 142.883 144.829C144.138 144.776 145.162 144.765 145.943 144.808L148.18 144.934C148.876 144.976 149.488 145.209 150.037 145.62C150.67 146.105 150.986 146.717 150.986 147.435C150.986 147.762 150.944 148.279 150.87 148.976C150.786 149.26 150.585 149.577 150.279 149.925C149.488 150.484 148.359 150.695 146.913 150.537C145.32 150.358 144.128 150.252 143.347 150.21C142.218 150.147 141.522 150.094 141.268 150.041C140.952 149.999 140.667 149.978 140.414 149.978C140.16 149.978 139.939 149.999 139.749 150.052C139.137 150.052 138.736 150.579 138.525 151.635C138.324 152.637 138.43 153.333 138.852 153.734C139.401 154.241 139.928 154.547 140.435 154.642C142.345 154.979 144.043 155.074 145.542 154.927C148.317 154.652 149.921 155.243 150.374 156.689C150.459 156.995 150.501 157.322 150.501 157.67C150.512 159.812 149.298 160.899 146.861 160.909C146.565 160.909 145.763 160.846 144.465 160.709C140.857 160.403 138.673 160.181 137.913 160.044C134.568 159.411 132.859 157.164 132.774 153.302C132.69 149.44 132.553 146.084 132.342 143.246C132.247 142.033 132.204 140.977 132.204 140.059C132.194 137.59 132.394 135.079 132.827 132.536C133.397 129.107 135.813 127.018 140.076 126.268C141.437 126.026 142.461 125.92 143.136 125.941C145.299 126.026 147.241 126.374 148.971 126.997C149.583 127.303 150.089 127.883 150.49 128.759C150.891 129.634 151.05 130.447 150.944 131.186C150.881 131.65 150.839 131.924 150.828 131.987C150.395 132.969 149.762 133.591 148.95 133.855L148.929 133.845Z" fill="white"/>
<path d="M169.493 133.042C170.253 134.699 171.287 137.485 172.596 141.431C173.408 143.974 174.01 145.873 174.421 147.129C175.276 149.714 175.983 151.55 176.563 152.647C176.69 152.901 176.816 153.027 176.943 153.027C177.112 153.027 177.217 152.616 177.249 151.803C177.323 150.4 177.186 147.403 176.827 142.813C176.468 138.223 176.299 134.203 176.32 130.774C176.341 127.44 177.502 125.762 179.792 125.751C182.609 125.741 184.023 128.273 184.055 133.359C184.055 133.992 184.034 134.931 183.97 136.197C183.918 137.453 183.886 138.403 183.896 139.036C183.928 145.293 183.59 150.474 182.873 154.578C182.567 156.33 182.198 157.607 181.754 158.398C181.153 159.495 180.172 160.202 178.8 160.508C178.378 160.603 177.945 160.656 177.481 160.656C176.352 160.656 175.36 160.308 174.516 159.59C172.532 157.902 170.433 153.766 168.217 147.203C167.109 143.921 166.328 141.547 165.885 140.08C165.304 138.171 164.745 137.221 164.197 137.221C164.091 137.221 163.996 137.253 163.912 137.326C163.099 137.801 162.688 138.782 162.698 140.27C162.698 140.597 162.709 140.893 162.73 141.146C163.268 147.192 163.785 151.476 164.313 154.019C164.503 154.969 164.608 155.802 164.608 156.499C164.608 157.617 164.397 158.588 163.964 159.411C163.447 160.371 162.709 160.856 161.77 160.856C160.282 160.856 159.269 160.318 158.741 159.232C157.918 157.554 157.486 153.354 157.454 146.643C157.433 141.79 157.391 138.888 157.349 137.949C157.296 136.999 157.275 136.05 157.275 135.1C157.254 131.945 157.496 129.909 158.003 128.969C159.005 127.07 160.229 126.121 161.675 126.121C162.413 126.121 163.31 126.31 164.386 126.701C166.127 127.345 167.847 129.476 169.525 133.085L169.493 133.042Z" fill="white"/>
</svg>
