<svg width="47" height="45" viewBox="0 0 47 45" fill="none" xmlns="http://www.w3.org/2000/svg">
<path d="M39.1397 6.20888C36.8871 3.73032 34.1627 1.49881 30.8854 0.66997C28.7792 0.136003 26.5509 0.223669 24.3958 0.558394C22.2164 0.89312 20.0857 1.49084 18.0527 2.31969C15.5886 2.86959 13.2383 3.87377 11.0507 5.12501C7.39119 7.229 4.0651 10.122 2.27599 13.8916C0.527549 17.5895 0.397416 21.8693 1.24318 25.8541C2.34104 30.9945 5.05723 35.8241 9.09898 39.275C13.1326 42.7258 18.4918 44.7262 23.8428 44.535C25.6726 44.4712 27.4943 44.1524 29.259 43.6822C31.9264 42.9729 34.5043 41.905 36.8789 40.5182C38.5786 39.53 40.1888 38.3664 41.555 36.9638C45.5398 32.8754 47.1663 26.8822 46.4832 21.2715C45.8001 15.6529 42.97 10.4248 39.1316 6.20091L39.1397 6.20888Z" fill="#A7D8D5"/>
<mask id="mask0_76419_467" style="mask-type:luminance" maskUnits="userSpaceOnUse" x="0" y="0" width="47" height="45">
<path d="M39.1397 6.20888C36.8871 3.73032 34.1627 1.49881 30.8854 0.66997C28.7792 0.136003 26.5509 0.223669 24.3958 0.558394C22.2164 0.89312 19.7279 -0.142935 17.6948 0.685909C15.2307 1.23582 13.2302 3.87377 11.0507 5.12501C7.39119 7.229 4.0651 10.122 2.27599 13.8916C0.527549 17.5895 0.397416 21.8693 1.24318 25.8541C2.34104 30.9945 5.05723 35.8241 9.09898 39.275C13.1326 42.7258 18.4918 44.7262 23.8428 44.535C25.6726 44.4712 27.4943 44.1524 29.259 43.6822C31.9264 42.9729 34.5043 41.905 36.8789 40.5182C38.5786 39.53 40.1888 38.3664 41.555 36.9638C45.5398 32.8754 47.1663 26.8822 46.4832 21.2715C45.8001 15.6529 42.97 10.4248 39.1316 6.20091L39.1397 6.20888Z" fill="white"/>
</mask>
<g mask="url(#mask0_76419_467)">
<path d="M32.6423 -0.740588C33.1139 0.335316 31.154 4.32014 30.0155 4.66284C28.877 5.00553 27.5596 5.03741 26.6894 5.82641C25.7786 6.64728 25.6485 8.02603 24.9003 8.99036C24.575 9.41276 24.144 9.73951 23.7699 10.1221C22.0377 11.9312 22.0621 15.0871 23.8269 16.8724C24.6645 17.7171 25.8437 18.2989 26.3397 19.3748C26.7463 20.2515 26.6731 21.3911 27.4132 22.0287C28.1613 22.6583 29.2836 22.4192 30.2676 22.5388C32.5772 22.8177 34.0085 25.1688 34.6428 27.3604C34.9762 28.516 35.1958 29.7115 35.7244 30.7953C36.2449 31.8792 37.1557 32.8675 38.343 33.1384C39.5384 33.4094 40.9779 32.716 41.1812 31.5365C41.3357 30.628 40.7908 29.7673 40.4899 28.8986C40.189 28.0299 40.2947 26.8105 41.1893 26.5156C41.5634 26.3961 41.9782 26.4758 42.3522 26.3642C43.7429 25.9498 43.1655 23.79 43.9624 22.6025C44.7187 21.4708 46.6949 21.3194 47.0039 19.9965C47.1422 19.4147 46.8657 18.8169 46.8169 18.2192C46.703 16.8803 47.687 15.7008 48.0448 14.4018C48.5653 12.497 47.6789 10.4647 46.394 8.94254C45.1091 7.42034 43.4582 6.2488 42.0595 4.82223C40.8803 3.61881 39.8881 2.24006 38.6195 1.13228C37.3509 0.0244992 35.6838 -0.812315 33.9922 -0.605104C32.3007 -0.397893 30.8369 -2.70112 31.1378 -1.05937" fill="#85B7E2"/>
<path d="M-4.07508 19.5263C-3.84737 20.8891 -2.57061 21.957 -1.17185 22.1563C0.226904 22.3555 1.66632 21.7657 2.6666 20.7934C3.33344 20.1479 3.9027 19.3031 4.82165 19.1198C5.26893 19.0322 5.73249 19.1198 6.1635 19.2473C8.85529 20.0284 11.0103 22.3874 11.5145 25.0971C11.6528 25.8621 11.6935 26.683 12.157 27.3126C12.9621 28.3965 14.6373 28.3726 15.7596 29.1456C17.6056 30.4208 17.5162 33.513 19.5249 34.5172C19.9477 34.7324 20.4763 34.8599 20.6796 35.2823C20.8179 35.5612 20.761 35.8959 20.6796 36.1988C20.208 37.8724 18.7442 39.2432 17.0201 39.6337C16.402 39.7772 15.7433 39.8011 15.1741 40.088C14.7187 40.3191 14.3608 40.6937 13.9786 41.0284C11.8724 42.8455 8.70076 43.3396 6.07403 42.3673C3.4473 41.403 1.42237 39.0679 0.722989 36.398C0.47902 35.4496 0.389557 34.4694 0.0805302 33.5369C-0.83842 30.6997 -3.56274 28.7312 -4.685 25.9658C-5.62021 23.6705 -5.30306 20.9289 -3.86364 18.8967" fill="#85B7E2"/>
<path d="M19.6712 49.1415C20.9154 48.1054 21.6799 46.5354 21.7124 44.9335C21.7449 43.491 21.2814 41.8254 22.2735 40.7574C23.7536 39.1635 26.9089 40.6299 28.4541 39.0918C28.5598 38.9882 28.6655 38.8606 28.82 38.8288C28.9664 38.7969 29.1128 38.8686 29.2429 38.9403C30.5034 39.7293 30.5359 41.5385 31.5037 42.6542C31.9103 43.1244 32.4633 43.4432 32.8781 43.9054C33.3009 44.3597 33.5693 45.0531 33.2603 45.587C33.1058 45.866 32.8211 46.0413 32.5446 46.2087C29.9423 47.7388 26.909 48.4242 23.8919 48.759C22.7046 48.8944 21.444 48.9901 20.4519 49.6436C20.1835 49.8189 19.9314 50.0341 19.6143 50.0899C19.2971 50.1377 18.9149 49.9225 18.9474 49.6117" fill="#85B7E2"/>
</g>
<path d="M21.2813 16.5695C19.3133 17.2947 17.6055 17.3027 15.9384 16.434C15.4424 16.179 14.9544 15.8443 15.2309 15.2386C15.483 14.6887 16.0523 14.8241 16.5565 14.9596C20.1266 15.916 22.9566 14.6647 24.5505 11.437C24.762 11.0067 24.9978 10.5205 25.5833 10.7756C26.1363 11.0146 26.0143 11.5088 25.8354 11.971C24.9734 14.2503 23.2006 15.645 21.2813 16.5615V16.5695Z" fill="#020000"/>
<path d="M11.4331 14.8879C10.4979 15.2625 9.34312 14.8162 9.00156 13.9475C8.72506 13.2382 9.17234 12.2579 9.93677 11.9391C10.8232 11.5566 12.1976 12.1065 12.5391 12.9752C12.7994 13.6367 12.2789 14.5532 11.4331 14.8879Z" fill="#020000"/>
<path d="M28.389 6.45601C28.698 7.22109 28.2426 8.16151 27.4131 8.48827C26.6324 8.79908 25.7785 8.44045 25.4613 7.67536C25.1523 6.91825 25.6158 5.93001 26.4291 5.63513C27.2179 5.34822 28.0962 5.71483 28.389 6.44804V6.45601Z" fill="#020000"/>
</svg>
