<svg width="142" height="129" viewBox="0 0 142 129" fill="none" xmlns="http://www.w3.org/2000/svg">
<path d="M86.6267 40.8327C86.3842 37.4541 85.8911 34.0998 85.1071 30.794C84.0645 26.3889 82.7793 22.0647 80.8071 17.9748C79.6594 15.5985 78.3904 13.2868 77.2265 10.9267C75.521 7.44304 73.7024 4.03214 71.31 0.960712C71.0917 0.685901 70.9058 0.516161 70.534 0.516161C69.9197 0.516161 69.3297 0.467665 69.16 1.26785C69.1276 1.41334 68.9902 1.53458 68.8851 1.65582C67.3171 3.45827 66.1532 5.51127 65.0701 7.62086C64.0355 9.62537 62.9848 11.6299 61.9583 13.6425C61.15 15.2267 60.3498 16.8109 59.59 18.4113C58.0947 21.5797 56.9955 24.9017 56.1225 28.2964C54.894 33.041 53.9321 37.834 53.9806 42.7806C54.0453 44.284 54.0291 45.8036 54.1989 47.2908C54.5707 50.6208 55.4355 53.8297 56.6803 56.9496C58.2402 60.8697 60.0669 64.6201 62.7504 67.9178C64.2538 69.7607 65.8945 71.4581 67.7616 72.9291C68.4729 73.4949 69.2085 74.1011 70.235 73.6323C70.3481 73.5838 70.5502 73.6646 70.6876 73.7293C71.0756 73.9071 71.4312 73.7859 71.7626 73.6C72.1829 73.3656 72.6113 73.1312 72.9831 72.824C74.7855 71.3611 76.4101 69.7203 77.865 67.9017C81.5184 63.3269 83.7896 58.0569 85.4062 52.4879C86.0043 50.4269 86.3195 48.3011 86.4893 46.143C86.6267 44.3648 86.7479 42.5947 86.6186 40.8246L86.6267 40.8327Z" fill="#008F56"/>
<path d="M68.465 36.1772C68.7075 36.0155 68.8691 35.7488 68.8368 35.4982C68.6509 34.0514 69.0308 32.6288 68.958 31.182C68.8853 29.7352 68.958 28.2723 68.9742 26.8174C68.9823 26.0091 68.958 25.2089 69.1843 24.4168C69.3137 23.9642 69.2813 23.455 69.2571 22.97C69.1439 20.5452 69.4834 18.1366 69.6855 15.736C69.8229 14.1841 69.8956 12.6322 69.9441 11.0723C69.9522 10.749 69.9684 10.4257 70.0492 10.1185C70.1381 9.77905 70.421 9.60931 70.7605 9.54465C71.0999 9.47999 71.4394 9.69013 71.4879 10.0134C71.5283 10.2802 71.5445 10.5469 71.5445 10.8136C71.5445 13.7719 71.7061 16.7544 71.4798 19.6965C71.0918 24.7563 71.3424 29.808 71.2535 34.8597C71.2535 35.2881 71.2535 35.7245 71.2697 36.1529C71.2697 36.2337 71.3505 36.355 71.4232 36.3792C71.5041 36.4035 71.6576 36.3711 71.6981 36.3065C72.5629 34.8273 73.452 33.3563 74.1956 31.8044C75.3353 29.42 76.3214 26.9871 77.0569 24.4492C77.073 24.4007 77.0811 24.3441 77.1054 24.2956C77.267 23.9238 77.6631 23.7136 78.0187 23.7945C78.3663 23.8753 78.6492 24.2633 78.5845 24.6512C78.4794 25.2817 78.3582 25.9202 78.2046 26.5426C77.558 29.0967 76.8791 31.6428 75.7152 34.0191C75.0039 35.4659 74.1714 36.848 73.1691 38.117C72.7407 38.6666 72.3204 39.2324 71.8274 39.7174C71.302 40.2347 71.1323 40.8328 71.3101 41.4794C71.5687 42.4413 71.5041 43.4031 71.5121 44.3649C71.5283 46.4664 71.5121 48.5679 71.5121 50.6694C71.5121 51.0978 71.5122 51.5343 71.5364 51.9627C71.5445 52.1001 71.6415 52.2698 71.7465 52.3506C71.9648 52.5123 72.1669 52.3506 72.3123 52.2052C72.5791 51.9384 72.8458 51.6636 73.064 51.3646C75.0443 48.6245 76.9033 45.7956 78.342 42.7241C79.1422 41.0187 79.7727 39.2486 80.2657 37.4219C80.3385 37.1632 80.387 36.8965 80.5082 36.6621C80.7426 36.2176 81.2599 35.9751 81.567 36.1367C81.9146 36.3226 81.8742 36.6621 81.9065 36.9773C82.0116 38.02 81.7853 39.0303 81.462 39.9922C80.8396 41.8755 80.4274 43.8396 79.5868 45.6501C79.2473 46.3856 78.9321 47.1292 78.5279 47.8243C77.9621 48.8023 77.3155 49.7238 76.7174 50.6856C76.3133 51.3322 75.8445 51.8899 75.2383 52.3668C74.2199 53.1508 73.3873 54.1531 72.2881 54.8563C71.5202 55.3412 71.1727 56.0687 71.2212 57.0467C71.2939 58.4935 71.1646 59.9565 71.2212 61.4033C71.302 63.1895 70.8575 64.9273 70.8655 66.7055C70.8655 67.1097 70.6554 67.4168 70.3967 67.6997C70.0411 68.0877 69.5157 68.023 69.3864 67.5219C69.1763 66.6894 68.958 65.8649 68.9499 64.992C68.9176 62.3085 68.4731 59.6332 68.6347 56.9416C68.667 56.4162 68.465 56.0121 68.0851 55.6565C66.4524 54.145 65.2076 52.3345 64.1003 50.4108C63.583 49.5136 63.1627 48.5922 62.8152 47.6384C61.6917 44.5589 60.5682 41.4794 59.8488 38.2706C59.8246 38.1655 59.768 38.0685 59.7518 37.9634C59.6629 37.5189 59.8246 37.1794 60.1721 37.0501C60.5035 36.9208 60.8915 37.0824 61.0935 37.5027C61.3037 37.9311 61.4573 38.3999 61.6351 38.8444C63.0981 42.6029 64.4721 46.3937 66.3635 49.9662C66.9212 51.017 67.5031 52.0354 68.3356 52.8841C68.6428 52.8518 68.6185 52.6255 68.6185 52.4153C68.6266 49.1822 68.6185 45.9491 68.6509 42.7241C68.6509 42.0533 68.4731 41.4713 68.174 40.8813C67.2445 39.0627 66.2988 37.2522 65.531 35.3527C64.4398 32.645 63.7204 29.8484 63.1627 26.9952C62.8879 25.5726 62.6212 24.1501 62.3221 22.7356C62.2332 22.3153 62.4353 22.1375 62.7505 22.0001C63.1304 21.8304 63.3244 21.895 63.5345 22.2749C63.8013 22.7437 63.9872 23.2367 64.1246 23.7702C64.9409 26.8901 65.7977 29.9939 66.9535 33.0087C67.3334 34.011 67.7779 34.989 68.1982 35.9751C68.2306 36.0559 68.368 36.0963 68.4569 36.1529L68.465 36.1772Z" fill="#003720"/>
<path d="M123.581 64.1595C123.565 61.6297 123.581 59.0998 123.581 56.5699C123.581 55.705 123.557 54.8483 123.516 53.9915C123.516 53.8541 123.419 53.6601 123.306 53.5954C123.064 53.45 122.926 53.6763 122.805 53.8379C122.199 54.6624 121.601 55.4868 120.994 56.3112C119.572 58.2268 117.769 59.7706 115.91 61.2417C112.661 63.8201 109.169 66.0347 105.589 68.1281C104.239 68.9122 102.889 69.6962 101.572 70.5287C101.079 70.8439 100.594 70.9328 100.044 70.8843C98.4356 71.7492 96.8514 72.6625 95.2106 73.4708C88.5424 76.7686 81.6721 79.5409 74.3734 81.1413C71.4394 81.7798 68.5377 82.5639 65.5552 83.0084C64.3832 83.1781 63.2031 83.2185 62.0392 83.4206C58.7495 84.0107 55.4194 84.1966 52.0894 84.237C50.7476 84.2531 49.4059 84.4714 48.0642 84.2693C48.1208 84.7947 47.9672 85.215 47.458 85.4655C47.07 85.6595 46.674 85.7969 46.2375 85.8535C44.1037 86.1364 41.986 86.5244 39.8441 86.686C38.0255 86.8234 36.1826 86.7588 34.364 86.686C31.9473 86.5729 29.5386 86.3627 27.1219 86.1849C24.8668 86.0152 22.6198 85.805 20.4213 85.2311C19.5403 84.9967 18.6593 84.7543 17.7945 84.4552C16.5982 84.0511 15.5636 83.4045 14.9332 82.2486C14.8362 82.3699 14.6422 82.4911 14.6503 82.6043C14.7634 84.2774 14.3108 85.902 14.2057 87.5509C14.0198 90.3798 13.6319 93.1926 13.4217 96.0216C13.252 98.2605 12.961 100.499 12.9448 102.754C12.9448 103.603 12.7185 104.452 12.9044 105.309C13.2843 105.309 13.5187 105.503 13.5753 105.866C13.7046 106.772 13.8178 107.677 13.9309 108.582C14.0845 109.811 14.23 111.039 14.3674 112.268C14.4159 112.704 14.5937 112.971 15.0544 113.003C18.1663 113.23 21.2296 113.82 24.3414 114.078C27.9383 114.377 31.5431 114.272 35.148 114.434C38.3164 114.571 41.4849 114.725 44.6533 114.878C45.5666 114.919 46.48 114.919 47.3933 114.782C47.9753 114.693 48.5734 114.701 49.1634 114.685C49.3089 114.685 49.4706 114.741 49.5191 114.943C49.5756 115.186 49.5029 115.388 49.3089 115.493C49.1311 115.598 48.9048 115.622 48.6946 115.679C47.652 115.97 46.5689 116.002 45.4939 116.042C43.5621 116.115 41.6223 116.188 39.6824 116.123C37.5324 116.05 35.3905 115.921 33.2324 115.873C29.3608 115.792 25.4973 115.606 21.6337 115.226C19.5403 115.016 17.4712 114.652 15.4424 114.151C13.6157 113.707 13.3247 113.828 12.9691 111.557C12.6619 109.625 12.7104 107.701 12.6134 105.769C11.6839 106.028 10.7383 106.262 9.82491 106.553C7.36777 107.345 4.91063 108.154 2.46157 108.978C1.95236 109.148 1.45931 109.382 1.00668 109.665C0.457059 110.005 0.351984 110.498 0.618714 111.055C0.853112 111.548 1.15217 111.961 1.61289 112.292C2.4939 112.914 3.39916 113.488 4.36101 113.981C6.66458 115.169 9.04897 116.139 11.5223 116.907C12.1204 117.093 12.7993 117.158 13.3005 117.748C13.1712 118.023 13.0499 118.314 12.8883 118.588C11.8537 120.35 10.8029 122.113 9.76833 123.875C9.38845 124.529 9.04897 125.2 8.7095 125.871C8.44277 126.388 8.50743 126.865 8.81458 127.391C9.21063 128.069 9.74409 128.409 10.4958 128.466C10.8757 128.49 11.2475 128.514 11.6274 128.53C15.3616 128.692 19.0473 128.28 22.7168 127.649C27.0168 126.914 31.2441 125.887 35.342 124.335C39.0762 122.921 42.7377 121.369 46.0354 119.073C47.2721 118.209 48.5087 117.36 49.6322 116.35C50.1576 115.873 50.7072 115.517 51.4913 115.517C55.0557 115.517 58.5636 114.967 62.0634 114.369C65.7249 113.747 69.3136 112.761 72.8942 111.815C77.5337 110.587 81.9631 108.752 86.4166 106.982C89.6174 105.705 92.6888 104.129 95.7926 102.641C99.9147 100.661 104.069 98.7373 108.07 96.5065C111.926 94.3484 115.733 92.1257 119.386 89.6281C120.057 89.1674 120.461 88.6501 120.647 87.8661C121.512 84.1966 122.191 80.4947 122.546 76.7524C122.853 73.487 123.532 70.262 123.662 66.9723C123.678 66.6005 123.823 66.2449 123.912 65.8731C123.443 65.38 123.605 64.7496 123.597 64.1838L123.581 64.1595Z" fill="#82C8D2"/>
<path d="M109.517 49.627C109.299 49.045 109.404 48.4469 109.444 47.8649C109.598 45.7149 109.881 43.5892 110.39 41.4877C110.463 41.1725 110.543 40.8572 110.689 40.5663C110.972 40.0005 111.376 39.5883 112.095 39.8227C112.483 39.952 112.831 39.8065 113.195 39.7176C116.387 38.877 119.653 38.5779 122.934 38.4163C124.874 38.3193 126.814 38.5375 128.729 38.7557C132.31 39.1518 135.85 39.7984 139.374 40.5663C139.973 40.6956 140.49 40.8734 140.837 41.4392C141.29 42.1586 141.347 42.5304 140.773 43.177C140.272 43.7347 139.714 44.252 139.124 44.7127C136.521 46.7172 133.975 48.7864 131.154 50.4837C130.597 50.8232 130.621 51.0495 131.211 51.3728C131.259 51.3971 131.308 51.4294 131.356 51.4456C134.201 52.7469 136.78 54.517 139.479 56.077C140.126 56.4488 140.781 56.8448 141.209 57.5076C141.702 58.2755 141.621 58.914 140.894 59.4717C140.595 59.698 140.247 59.8516 139.916 60.0375C137.928 61.161 135.745 61.7753 133.587 62.43C131.68 63.0119 129.78 63.5858 127.921 64.2971C126.782 64.7335 125.569 65.0084 124.397 65.3478C124.543 64.1758 124.696 63.0039 124.834 61.8238C125.222 58.3401 125.294 54.8403 125.157 51.3405C125.133 50.807 125.052 50.2736 124.963 49.7401C124.834 49.0046 124.405 48.4792 123.759 48.1155C122.942 47.6467 122.061 47.4123 121.14 47.3962C117.697 47.3396 114.253 47.5255 110.818 47.6629C110.333 47.679 110.002 47.9215 109.864 48.3822C109.735 48.7864 109.638 49.1986 109.525 49.6108L109.517 49.627Z" fill="#82C8D2"/>
<path d="M48.0722 84.2613C48.1287 84.7867 47.9752 85.207 47.466 85.4576C47.078 85.6516 46.6819 85.789 46.2455 85.8455C44.1116 86.1284 41.994 86.5164 39.8521 86.6781C38.0334 86.8155 36.1906 86.7508 34.372 86.6781C31.9553 86.5649 29.5466 86.3548 27.1299 86.1769C24.8748 86.0072 22.6278 85.7971 20.4293 85.2232C19.5483 84.9888 18.6673 84.7463 17.8024 84.4472C16.6062 84.0431 15.5716 83.3965 14.9412 82.2407C15.022 81.8527 15.2483 81.5617 15.5554 81.3273C16.8487 80.3574 18.1581 79.4198 19.6372 78.7651C23.1694 77.189 26.7581 75.7664 30.4276 74.5621C33.0788 73.6972 35.6975 72.7192 38.4295 72.1292C38.6881 72.0726 38.9468 71.9837 39.2135 71.9433C40.0945 71.7978 40.9028 71.9433 41.6383 72.5172C42.8669 73.4709 44.1197 74.3924 45.3645 75.3219C45.7524 75.6128 46.1323 75.8957 46.5365 76.1625C47.2801 76.6393 47.4013 77.3264 46.9325 78.1508C46.4395 79.0157 46.3021 79.9533 46.5284 80.9313C46.7143 81.7234 47.0537 82.4508 47.4417 83.1621C47.6438 83.542 47.862 83.9057 48.0722 84.2856V84.2613Z" fill="#003720"/>
<path d="M109.517 49.627C109.63 49.2147 109.735 48.8025 109.856 48.3984C110.002 47.9377 110.325 47.6952 110.81 47.679C114.253 47.5335 117.689 47.3476 121.132 47.4123C122.053 47.4285 122.934 47.6629 123.751 48.1317C124.397 48.5035 124.826 49.0208 124.955 49.7563C125.044 50.2817 125.125 50.8232 125.149 51.3567C125.286 54.8565 125.214 58.3563 124.826 61.8399C124.696 63.0119 124.535 64.192 124.389 65.364C124.252 65.558 124.147 65.7924 123.88 65.857C123.411 65.364 123.573 64.7335 123.565 64.1677C123.548 61.6379 123.565 59.108 123.565 56.5781C123.565 55.7132 123.54 54.8565 123.5 53.9997C123.5 53.8623 123.403 53.6683 123.29 53.6037C123.047 53.4582 122.91 53.6845 122.789 53.8461C122.183 54.6706 121.584 55.495 120.978 56.3194C119.556 58.235 117.753 59.7788 115.894 61.2499C112.645 63.8283 109.153 66.0429 105.573 68.1364C104.223 68.9204 102.873 69.7044 101.555 70.5369C101.062 70.8521 100.577 70.9411 100.028 70.8926C99.9712 70.5612 100.02 70.2702 100.238 69.9873C101.555 68.3465 102.501 66.4794 103.463 64.6204C104.886 61.8561 106.357 59.1161 107.593 56.2629C108.515 54.1371 109.226 51.9548 109.485 49.6431L109.517 49.627Z" fill="#003720"/>
<path d="M12.9045 105.292C13.2844 105.292 13.5188 105.486 13.5754 105.85C13.7047 106.755 13.8178 107.661 13.931 108.566C14.0846 109.794 14.2301 111.023 14.3675 112.252C14.416 112.688 14.5938 112.955 15.0545 112.987C18.1663 113.213 21.2297 113.803 24.3415 114.062C27.9383 114.361 31.5432 114.256 35.1481 114.418C38.3165 114.555 41.4849 114.709 44.6534 114.862C45.5667 114.903 46.4801 114.903 47.3934 114.765C47.9754 114.676 48.5735 114.685 49.1635 114.668C49.309 114.668 49.4707 114.725 49.5191 114.927C49.5757 115.169 49.503 115.372 49.309 115.477C49.1312 115.582 48.9049 115.606 48.6947 115.663C47.652 115.953 46.569 115.986 45.494 116.026C43.5622 116.099 41.6223 116.172 39.6825 116.107C37.5325 116.034 35.3906 115.905 33.2325 115.857C29.3609 115.776 25.4974 115.59 21.6338 115.21C19.5404 115 17.4712 114.636 15.4425 114.135C13.6158 113.69 13.3248 113.812 12.9692 111.54C12.662 109.609 12.7105 107.685 12.6135 105.753C12.7105 105.6 12.8075 105.446 12.9045 105.292Z" fill="#003720"/>
<path d="M61.1501 98.0745C62.6211 99.1657 63.2435 100.693 63.971 102.132C64.5933 103.361 64.6256 103.304 65.6441 102.585C65.9674 102.358 66.2745 102.1 66.5897 101.857C66.7514 101.736 66.9373 101.639 67.1232 101.801C67.3091 101.962 67.4142 102.172 67.3414 102.431C67.3172 102.504 67.2849 102.585 67.2444 102.649C66.7756 103.344 66.2503 103.983 65.5552 104.468C65.2561 104.678 64.9247 104.807 64.5772 104.88C64.2458 104.953 63.9952 104.88 63.7123 104.646C62.8636 103.951 62.3059 103.062 61.8694 102.067C61.5542 101.348 61.2309 100.629 60.7459 99.982C60.4065 99.5294 60.0347 99.4001 59.5255 99.4809C59.3719 99.5052 59.2102 99.5213 59.0567 99.5536C58.5313 99.6668 58.41 99.7961 58.3616 100.346C58.2646 101.493 58.1756 102.633 58.0706 103.781C58.014 104.452 57.9574 105.123 57.8766 105.793C57.8038 106.392 57.7392 106.448 57.0683 106.618C57.0279 106.626 56.9875 106.634 56.9552 106.642C56.2035 106.828 55.9206 106.642 55.8963 105.874C55.8802 105.317 55.9206 104.767 55.9367 104.209C56.0095 102.027 56.0337 99.8446 56.1711 97.6704C56.2843 95.973 56.551 94.2837 56.7531 92.5944C56.7693 92.4813 56.8258 92.3681 56.842 92.2469C56.9471 91.5113 57.2623 91.1153 58.1676 91.5437C58.507 91.7053 58.7576 91.673 59.0567 91.5599C60.1074 91.18 61.1824 90.9213 62.2897 90.7758C63.2112 90.6546 64.1003 90.7031 64.9005 91.2931C65.8704 92.0125 66.1937 93.1602 65.6198 94.2191C65.1187 95.1486 64.3589 95.8518 63.5264 96.458C62.9202 96.9025 62.2655 97.2824 61.635 97.6946C61.5057 97.7835 61.3845 97.8724 61.1339 98.0503L61.1501 98.0745ZM58.5717 97.5249C58.7657 97.4926 58.895 97.5087 58.9839 97.4521C60.2852 96.6277 61.5946 95.8194 62.8717 94.9546C63.4294 94.5828 63.9144 94.0978 64.3104 93.5482C64.5448 93.2249 64.7711 92.8288 64.5852 92.457C64.3751 92.0286 63.8982 91.9721 63.4617 91.9478C63.3809 91.9478 63.3001 91.9478 63.2273 91.9559C61.7886 92.2226 60.3822 92.6106 59.0486 93.233C58.6606 93.4108 58.5475 93.6775 58.5717 94.0817C58.596 94.5504 58.5717 95.0273 58.5717 95.5042C58.5717 96.167 58.5717 96.8217 58.5717 97.5249Z" fill="#003720"/>
<path d="M49.3737 97.6623C49.8101 97.6218 50.2385 97.5814 50.675 97.5491C51.6934 97.4683 52.3158 98.1795 52.0571 99.1899C51.855 99.9982 51.6126 100.79 51.3458 101.574C51.0225 102.512 50.6911 103.441 50.1496 104.282C49.5111 105.26 48.7594 106.101 47.6359 106.553C46.6336 106.957 45.6718 107.071 44.6776 106.489C43.9663 106.076 43.2146 105.769 42.568 105.211C40.7737 103.66 40.0866 101.696 40.3129 99.4C40.4908 97.5895 41.202 95.9649 42.3659 94.5423C43.74 92.8773 45.5505 92.0771 47.652 91.9963C48.9049 91.9478 50.093 92.2711 50.9013 93.3865C50.974 93.4835 51.0387 93.5805 51.0872 93.6856C51.1599 93.8391 51.1518 93.9927 51.0144 94.1139C50.9174 94.2029 50.8124 94.2271 50.6911 94.1786C50.6184 94.1544 50.5456 94.122 50.4729 94.0897C49.0827 93.3461 47.7005 93.5724 46.3588 94.1867C45.2919 94.6717 44.4594 95.4557 43.9017 96.5145C43.5541 97.1773 43.1904 97.8401 42.9964 98.5675C42.5195 100.354 42.6812 102.003 43.9259 103.482C44.3381 103.975 44.7342 104.395 45.397 104.581C46.2052 104.799 46.8842 104.638 47.5146 104.161C47.9026 103.87 48.2097 103.514 48.4684 103.11C49.212 101.978 49.7535 100.742 50.19 99.4728C50.287 99.198 50.1173 98.9797 49.8424 99.0201C48.7836 99.1818 47.7167 99.2384 46.6498 99.2869C46.2618 99.303 45.9547 99.1899 45.6637 98.9636C45.4293 98.7858 45.4293 98.4382 45.6556 98.2442C45.9385 98.0017 46.278 97.9209 46.6255 97.8401C47.5227 97.638 48.4441 97.7107 49.3494 97.6542L49.3737 97.6623Z" fill="#003720"/>
<path d="M98.9853 90.0647C99.0742 89.5231 99.1874 88.9977 99.2359 88.4643C99.5107 85.3444 99.9714 82.2487 100.044 79.1126C100.068 78.2477 100.214 77.3748 100.343 76.518C100.408 76.1139 100.626 75.9765 100.998 75.9684C101.313 75.9603 101.564 76.1543 101.548 76.4534C101.507 77.003 101.451 77.5607 101.362 78.1022C101.014 80.3331 100.86 82.5882 100.683 84.8432C100.497 87.171 100.335 89.5069 99.9795 91.8186C99.9633 91.9398 99.9472 92.053 99.9229 92.1742C99.6885 93.4271 99.6885 93.4028 98.4438 93.5402C98.072 93.5806 97.8376 93.4917 97.6678 93.1765C97.4173 92.7239 97.1263 92.2955 96.9 91.8348C96.027 90.0566 95.1784 88.2622 94.3135 86.484C94.1923 86.2415 94.0387 86.0071 93.9013 85.7727C93.8851 85.7404 93.8205 85.7081 93.8043 85.7242C93.7396 85.7566 93.6588 85.7889 93.6184 85.8536C93.578 85.9182 93.578 86.0071 93.5699 86.0799C93.4891 87.4216 93.4163 88.7714 93.3193 90.1131C93.2385 91.3013 93.1334 92.4814 93.0364 93.6695C93.0122 93.9039 92.9475 94.1383 92.891 94.3647C92.8263 94.6152 92.6808 94.793 92.3979 94.7769C92.1393 94.7607 92.0908 94.5505 92.0665 94.3566C92.018 93.9201 91.9614 93.4836 91.9695 93.0552C92.0504 90.4365 92.1231 87.8257 92.2524 85.207C92.3009 84.1724 92.3413 83.1459 92.3252 82.1194C92.309 81.0201 92.6727 81.0848 93.4648 81.0767C93.9821 81.0767 94.3863 81.3111 94.6449 81.7556C95.049 82.4346 95.4613 83.1135 95.8088 83.8248C96.7464 85.7485 97.6517 87.6803 98.5731 89.612C98.6539 89.7737 98.6863 89.9919 98.9772 90.0727L98.9853 90.0647Z" fill="#003720"/>
<path d="M82.9977 98.0908C84.1535 97.5331 85.2204 97.0158 86.2793 96.4985C87.0633 96.1105 87.8554 95.763 88.7202 95.5851C88.9385 95.5367 89.1082 95.5609 89.2214 95.771C89.3264 95.965 89.3103 96.1671 89.1648 96.3207C88.7364 96.741 88.2353 97.0643 87.6856 97.2987C86.3358 97.8806 84.986 98.4464 83.6362 99.0122C83.3048 99.1496 82.9492 99.2385 82.7148 99.5214C82.5531 99.7235 82.3672 99.8447 82.1005 99.7962C81.7125 99.7316 81.3084 99.6831 80.9851 99.4325C80.9043 99.3759 80.8638 99.2385 80.8396 99.1254C80.8073 98.9718 80.8073 98.8102 80.7992 98.6485C80.7426 96.5874 80.7022 94.5263 80.8719 92.4652C80.9528 91.4791 80.9447 90.485 81.0013 89.4989C81.0497 88.5128 81.1225 87.5186 81.1791 86.5325C81.2114 86.0071 81.4054 85.7081 81.9712 85.5222C83.3614 85.0615 84.7112 84.4795 86.0853 83.9703C86.6753 83.7521 87.2815 83.5581 87.8877 83.3803C88.0655 83.3318 88.2838 83.3399 88.4616 83.3883C88.6556 83.4449 88.793 83.6066 88.8091 83.8248C88.8253 83.9945 88.7445 84.14 88.599 84.2209C87.8392 84.6412 87.0471 85.0049 86.1984 85.2312C85.2043 85.4899 84.2182 85.7889 83.2402 86.1041C82.8037 86.2415 82.7633 86.3385 82.8037 86.8073C82.9168 87.9874 83.0866 89.1675 83.1028 90.3556C83.1028 90.6709 83.2967 90.8002 83.5635 90.679C84.0646 90.4446 84.5657 90.2102 85.0507 89.9353C85.6731 89.5797 86.3358 89.313 87.0229 89.1109C87.3138 89.022 87.5644 89.0624 87.7665 89.313C87.9362 89.515 87.9443 89.7979 87.7341 89.9434C87.2088 90.2991 86.643 90.59 86.0368 90.7921C85.2528 91.0588 84.4768 91.366 83.6766 91.6165C83.2159 91.762 83.0543 92.0368 83.0704 92.4895C83.0866 92.9259 83.0543 93.3624 83.0543 93.7989C83.0381 94.8254 83.0381 95.86 82.9088 96.8865C82.8684 97.234 82.8118 97.5977 82.9977 98.0989V98.0908Z" fill="#003720"/>
<path d="M71.9244 102.69C72.1507 102.787 72.3285 102.682 72.5064 102.601C73.9208 101.978 75.3272 101.34 76.7336 100.718C76.9114 100.637 77.0893 100.54 77.2752 100.483C77.6631 100.354 78.2047 100.677 78.2613 101.089C78.2774 101.219 78.1804 101.413 78.0753 101.502C77.8975 101.647 77.6712 101.752 77.453 101.841C75.5535 102.625 73.646 103.409 71.7385 104.185C71.4799 104.29 71.2131 104.379 70.9464 104.436C70.5019 104.533 70.0573 104.242 69.9684 103.797C69.9118 103.49 69.8957 103.167 69.8714 102.851C69.7178 100.596 69.6936 98.3412 69.7421 96.0781C69.7825 94.2514 70.0411 92.4489 70.2432 90.6384C70.2755 90.3636 70.3725 90.0969 70.4695 89.8463C70.5746 89.5715 70.7524 89.3452 71.0919 89.4503C71.5203 89.5715 71.8678 89.3533 72.2316 89.2239C73.355 88.836 74.4705 88.448 75.594 88.0439C75.8607 87.9469 76.1113 87.858 76.4022 87.8822C76.7013 87.9065 77.0812 88.3348 77.0165 88.6339C76.9842 88.7713 76.8791 88.9168 76.7659 89.0219C76.5558 89.2159 76.2729 89.2482 75.9981 89.3209C74.7695 89.6281 73.541 89.9433 72.3124 90.2504C71.9891 90.3313 71.8597 90.4929 71.8597 90.8324C71.8759 92.2549 71.8598 93.6856 71.8759 95.1082C71.8759 95.4961 72.0457 95.6174 72.4013 95.488C72.8863 95.3183 73.3551 95.1001 73.84 94.9303C74.3977 94.7283 74.9554 94.5343 75.5212 94.3645C75.7071 94.308 75.9173 94.2999 76.1032 94.3241C76.3052 94.3484 76.4588 94.4939 76.4992 94.704C76.5316 94.8738 76.4265 95.0273 76.2891 95.1001C75.7556 95.3587 75.2302 95.6335 74.6725 95.8356C73.9693 96.0942 73.2419 96.2882 72.5225 96.5145C71.8759 96.7247 71.8193 96.7813 71.8113 97.4198C71.7951 99.0768 71.7951 100.742 71.7951 102.399C71.7951 102.512 71.8597 102.617 71.884 102.714L71.9244 102.69Z" fill="#003720"/>
<path d="M30.929 106.933C30.4278 106.796 29.9025 106.683 29.4013 106.513C29.0376 106.392 28.973 105.81 29.2882 105.575C29.4579 105.446 29.6438 105.333 29.8378 105.268C30.1934 105.147 30.5491 105.034 30.9209 104.961C32.2384 104.694 33.5559 104.428 34.8087 103.943C35.3179 103.741 35.7463 103.829 36.1827 104.104C36.4414 104.266 36.506 104.727 36.304 104.953C36.1585 105.115 36.0049 105.268 35.8271 105.381C34.348 106.359 32.6344 106.586 30.929 106.933Z" fill="#003720"/>
<path d="M33.1517 96.636C32.7799 96.636 32.4001 96.6117 32.0283 96.636C30.9452 96.7087 30.0561 96.2076 29.1831 95.666C28.7467 95.3993 28.8194 94.6799 29.3044 94.486C29.5954 94.3728 29.9267 94.3243 30.242 94.3162C31.7534 94.2758 33.2245 94.6638 34.7117 94.8254C35.0997 94.8658 35.4715 95.1972 35.8352 95.4236C36.0939 95.5852 36.0454 96.0459 35.7948 96.2722C35.5442 96.4905 35.2613 96.644 34.9299 96.6521C34.3399 96.6683 33.7499 96.6521 33.1598 96.6521V96.6279L33.1517 96.636Z" fill="#003720"/>
<path d="M32.6425 98.9152C33.0386 98.9637 33.3134 98.9556 33.564 99.0364C33.9196 99.1496 34.3076 99.3193 34.3561 99.7396C34.4046 100.192 34.0247 100.386 33.6609 100.499C32.0121 100.992 30.347 101.332 28.6335 100.79C28.4153 100.718 28.2455 100.588 28.197 100.37C28.1324 100.079 28.2859 99.8528 28.5365 99.7154C28.6739 99.6426 28.8356 99.6103 28.9891 99.5537C30.2096 99.1092 31.5109 99.1658 32.6425 98.9152Z" fill="#003720"/>
<path d="M110.244 75.0631C110.551 75.0469 110.713 75.249 110.875 75.4672C111.069 75.7259 111.271 75.9926 111.093 76.3321C110.996 76.518 110.875 76.712 110.713 76.8332C109.937 77.399 109.161 77.9486 108.361 78.4821C108.013 78.7165 107.666 78.668 107.343 78.3689C107.052 78.1022 106.963 77.8112 107.181 77.5364C107.957 76.5826 108.894 75.8067 109.937 75.152C110.026 75.0954 110.139 75.0874 110.236 75.055L110.244 75.0631Z" fill="#003720"/>
<path d="M107.513 83.2751C107.076 83.2751 106.842 83.0488 106.631 82.8063C106.47 82.6285 106.462 82.386 106.631 82.2324C107.521 81.4484 108.547 80.9068 109.687 80.6078C110.018 80.5189 110.301 80.6644 110.56 80.8907C110.915 81.2059 110.964 81.6909 110.657 82.0142C110.584 82.095 110.511 82.1677 110.422 82.2243C109.509 82.8063 108.45 82.976 107.513 83.267V83.2751Z" fill="#003720"/>
<path d="M106.672 88.052C106.365 87.9873 106.106 87.9388 105.847 87.8742C105.637 87.8176 105.443 87.7044 105.411 87.47C105.371 87.2437 105.476 87.0416 105.662 86.9204C106.656 86.29 107.731 85.8293 108.854 85.4898C109.242 85.3766 109.776 85.7969 109.905 86.2738C110.002 86.6375 109.8 86.9042 109.493 87.0497C108.579 87.4943 107.626 87.8095 106.664 88.0358L106.672 88.052Z" fill="#003720"/>
</svg>
