<svg width="24" height="24" viewBox="0 0 24 24" fill="none" xmlns="http://www.w3.org/2000/svg">
<path fill-rule="evenodd" clip-rule="evenodd" d="M3.50521 3.54965C6.19252 1.25356 9.65298 1.67202 11.9929 3.71691C14.3301 1.67124 17.7537 1.28246 20.4709 3.54088C23.4445 6.01238 23.8016 10.2275 21.5118 13.1739C20.6393 14.2967 18.9363 15.9835 17.2997 17.5282C15.6439 19.0911 13.992 20.5679 13.1773 21.2894L13.1618 21.3031C13.0852 21.371 12.9898 21.4555 12.8984 21.5244C12.789 21.6068 12.6319 21.7091 12.4221 21.7717C12.1432 21.8549 11.8434 21.8549 11.5645 21.7717C11.3547 21.7091 11.1975 21.6068 11.0881 21.5244C10.9967 21.4555 10.9013 21.371 10.8247 21.3031L10.8092 21.2894C9.99457 20.5679 8.34261 19.0911 6.68684 17.5282C5.05023 15.9835 3.34724 14.2967 2.47471 13.1739C0.176093 10.2161 0.598423 6.03328 3.50521 3.54965ZM3.00109 8.81229C2.99994 8.8735 2.99994 8.93473 3.00109 8.99595V8.81229Z" fill="#FF5B45"/>
</svg>
