<svg width="24" height="24" viewBox="0 0 24 24" fill="none" xmlns="http://www.w3.org/2000/svg">
<g filter="url(#filter0_d_75841_13130)">
<path d="M17.7778 16C18.4528 16 19 15.4528 19 14.7778V6.22222C19 5.54721 18.4528 5 17.7778 5H9.22222C8.54721 5 8 5.54721 8 6.22222" stroke="white" stroke-linecap="round" stroke-linejoin="round"/>
</g>
<g filter="url(#filter1_d_75841_13130)">
<path d="M14.7778 8H6.22222C5.54721 8 5 8.54721 5 9.22222V17.7778C5 18.4528 5.54721 19 6.22222 19H14.7778C15.4528 19 16 18.4528 16 17.7778V9.22222C16 8.54721 15.4528 8 14.7778 8Z" fill="white"/>
<path d="M14.7778 8H6.22222C5.54721 8 5 8.54721 5 9.22222V17.7778C5 18.4528 5.54721 19 6.22222 19H14.7778C15.4528 19 16 18.4528 16 17.7778V9.22222C16 8.54721 15.4528 8 14.7778 8Z" stroke="white" stroke-linecap="round" stroke-linejoin="round"/>
</g>
<defs>
<filter id="filter0_d_75841_13130" x="5.5" y="2.5" width="16" height="16" filterUnits="userSpaceOnUse" color-interpolation-filters="sRGB">
<feFlood flood-opacity="0" result="BackgroundImageFix"/>
<feColorMatrix in="SourceAlpha" type="matrix" values="0 0 0 0 0 0 0 0 0 0 0 0 0 0 0 0 0 0 127 0" result="hardAlpha"/>
<feOffset/>
<feGaussianBlur stdDeviation="1"/>
<feComposite in2="hardAlpha" operator="out"/>
<feColorMatrix type="matrix" values="0 0 0 0 0 0 0 0 0 0 0 0 0 0 0 0 0 0 0.5 0"/>
<feBlend mode="normal" in2="BackgroundImageFix" result="effect1_dropShadow_75841_13130"/>
<feBlend mode="normal" in="SourceGraphic" in2="effect1_dropShadow_75841_13130" result="shape"/>
</filter>
<filter id="filter1_d_75841_13130" x="2.5" y="5.5" width="16" height="16" filterUnits="userSpaceOnUse" color-interpolation-filters="sRGB">
<feFlood flood-opacity="0" result="BackgroundImageFix"/>
<feColorMatrix in="SourceAlpha" type="matrix" values="0 0 0 0 0 0 0 0 0 0 0 0 0 0 0 0 0 0 127 0" result="hardAlpha"/>
<feOffset/>
<feGaussianBlur stdDeviation="1"/>
<feComposite in2="hardAlpha" operator="out"/>
<feColorMatrix type="matrix" values="0 0 0 0 0 0 0 0 0 0 0 0 0 0 0 0 0 0 0.5 0"/>
<feBlend mode="normal" in2="BackgroundImageFix" result="effect1_dropShadow_75841_13130"/>
<feBlend mode="normal" in="SourceGraphic" in2="effect1_dropShadow_75841_13130" result="shape"/>
</filter>
</defs>
</svg>
