<svg width="85" height="100" viewBox="0 0 85 100" fill="none" xmlns="http://www.w3.org/2000/svg">
<path d="M83.7641 39.1902C83.4084 36.6845 82.8911 34.2112 82.293 31.7622C81.7596 29.5637 81.1372 27.3975 80.1188 25.3607C79.2054 23.5259 78.187 21.7558 77.0958 20.0261C75.6652 17.7467 74.1133 15.5563 72.1654 13.6892C70.4195 12.0161 68.5928 10.4319 66.6207 9.04167C65.2628 8.08791 63.8079 7.2554 62.3449 6.46329C61.6902 6.10765 61.0517 5.68735 60.3889 5.40446C59.6534 5.08115 58.9825 4.66893 58.2712 4.32137C58.0772 4.22438 57.9075 4.08698 57.7135 3.99807C55.0381 2.74525 52.1607 2.02589 49.4126 0.975134C48.9195 0.789232 48.3618 0.773067 47.8284 0.708405C46.6079 0.554834 45.3874 0.441675 44.1669 0.263856C42.9868 0.0941189 41.8148 0.0698704 40.6267 0.24769C39.5193 0.417427 38.4039 0.579081 37.2804 0.659908C36.2458 0.732652 35.2517 0.90239 34.2979 1.29844C33.6513 1.56517 33.0128 1.88848 32.3419 2.03397C30.8547 2.34111 29.4806 2.93115 28.0985 3.50502C26.4739 4.18397 24.922 5.00032 23.4671 5.99449C23.3378 6.0834 23.1761 6.13998 23.0225 6.17231C22.2547 6.32588 21.6808 6.82701 21.0342 7.2069C20.4361 7.55445 19.8218 7.88585 19.2318 8.26573C18.4154 8.79111 17.591 9.30032 16.8312 9.89844C15.7804 10.731 14.7944 11.6362 13.7759 12.5172C11.6825 14.3116 9.89623 16.3727 8.40902 18.6924C7.85939 19.5492 7.26935 20.3898 6.74398 21.2708C5.07086 24.0997 3.54323 26.9934 2.71879 30.2184C1.98326 33.0877 1.32857 35.9652 0.900182 38.8911C0.601122 40.9118 0.415221 42.9486 0.269732 44.9855C0.0676644 47.7982 0.552626 50.5625 1.02951 53.3187C1.67612 57.0449 2.82387 60.6255 4.07669 64.1819C5.07894 67.027 6.17819 69.8317 7.75432 72.4262C9.45977 75.2309 11.238 77.9871 13.2667 80.5817C14.3336 81.9477 15.4329 83.249 16.8474 84.2674C17.8092 84.9625 17.8335 85.1161 17.4455 86.3204C17.1626 87.2014 16.9767 88.0744 16.9443 89.0039C16.9039 90.2648 17.3162 91.3155 18.1972 92.2127C18.6094 92.633 18.9812 93.1018 19.3853 93.5302C19.9754 94.1606 20.5897 94.7587 21.3494 95.1952C25.5201 97.6039 30.0383 98.9213 34.8152 99.3174C37.2804 99.5275 39.7537 99.7377 42.324 99.5356C44.7165 99.7619 47.1817 99.4952 49.647 99.3255C50.827 99.2446 51.999 99.0587 53.1629 98.8567C56.2101 98.3475 59.0957 97.321 61.8519 95.9388C63.1047 95.3084 64.3332 94.6456 65.2547 93.5302C65.6992 92.9886 66.1599 92.4633 66.6207 91.9379C67.5825 90.8548 67.9301 89.602 67.6391 88.1956C67.5017 87.5166 67.3481 86.8215 67.0814 86.1749C66.7581 85.3828 66.952 84.8332 67.6229 84.3725C67.8411 84.2189 68.0351 84.0249 68.2534 83.8633C69.0859 83.249 69.8214 82.5539 70.4195 81.7133C70.8883 81.0586 71.4218 80.4443 71.8987 79.7977C74.178 76.7262 76.3118 73.5578 78.0415 70.1388C79.7955 66.6633 80.9675 62.9695 82.1152 59.2676C83.1417 55.9699 83.8206 52.5913 84.1844 49.1723C84.5319 45.8422 84.2248 42.5122 83.756 39.1982L83.7641 39.1902Z" fill="#FFE5A3"/>
</svg>
