<svg width="200" height="112" viewBox="0 0 200 112" fill="none" xmlns="http://www.w3.org/2000/svg">
<path d="M56.423 54.7665C59.6429 49.1465 59.8486 42.4465 61.3025 36.2798C62.0897 32.9532 63.1606 29.6932 64.9337 26.7132C66.9549 23.3132 66.5365 26.7332 64.4656 24.1598C70.5861 31.7598 66.3237 43.4198 69.5932 51.8132C71.884 57.6932 80.9833 56.8332 81.2883 50.3265C81.5862 43.9198 80.3379 36.9865 79.4088 30.6598C78.3947 23.7532 76.267 16.0598 68.7067 13.3132C59.3876 9.93317 53.0684 20.5332 50.6074 27.0132C47.6571 34.8198 44.6854 47.3065 49.7493 54.7798C51.2457 56.9932 54.9904 57.2732 56.4159 54.7798L56.423 54.7665Z" fill="#85B7E2"/>
<path d="M58.3593 45.5664C64.6075 43.1397 72.1962 47.7731 77.2671 42.3264C78.6855 40.7997 78.6359 38.9264 77.2671 37.3931C71.8699 31.3664 59.7493 34.2664 54.3451 39.0731C51.5153 41.5931 54.4302 47.0864 58.3593 45.5597V45.5664Z" fill="#85B7E2"/>
<path d="M14.0258 12.7799C9.79889 15.4399 10.3379 20.7399 10.2953 25.0466C10.2386 31.6799 10.9266 38.2866 10.4939 44.9199C9.64996 57.8999 21.7351 57.8399 32.2102 57.0132C38.7209 56.4999 38.9266 47.3732 32.2102 47.3466C30.5932 47.3466 20.962 48.9866 20.8485 46.5532C20.6641 42.5399 21.0258 38.4732 20.8627 34.4399C20.6429 28.8999 22.1251 16.9666 16.8911 13.1266C16.0826 12.5332 14.9762 12.1799 14.0187 12.7799H14.0258Z" fill="#3FA9F5"/>
<path d="M12.4938 16.8799C14.3732 20.8266 20.4938 20.6332 24.3236 20.5132C26.5718 20.4399 28.8058 20.3799 31.054 20.5132C33.7278 20.6732 35.5363 21.3399 38.1179 20.1799C39.7562 19.4399 40.6285 17.2532 40.0753 15.6666C38.3519 10.7399 32.4016 10.6399 27.7207 10.7066C23.4867 10.7666 17.8058 10.2999 13.898 11.8866C11.8129 12.7332 11.7278 15.2466 12.5079 16.8799H12.4938Z" fill="#3FA9F5"/>
<path d="M15.5366 36.3998C19.6501 38.7865 38.4799 40.5732 37.416 32.5198C36.8628 28.3198 32.1962 27.9998 28.6004 28.4198C24.2387 28.9332 19.4515 29.0598 15.5366 31.0998C13.338 32.2465 13.5011 35.2198 15.5366 36.3998Z" fill="#3FA9F5"/>
<path d="M86.6712 19.5398C87.2102 30.6731 85.2954 42.0998 86.1819 53.2331C88.7705 51.8398 91.3663 50.4398 93.9549 49.0398C91.9478 48.0931 90.7493 48.0931 88.7422 49.0398C79.7209 53.2865 95.4727 64.3598 96.5152 53.2331C97.0471 47.5731 96.7918 41.7265 96.7847 36.0465C96.7847 29.8465 96.9904 23.2398 93.6358 17.7665C91.8273 14.8198 86.501 15.9931 86.6712 19.5398Z" fill="#376DB6"/>
<path d="M93.1675 23.1732C93.5292 22.8998 93.8838 22.6198 94.2455 22.3465C92.9618 22.6665 91.6852 22.9865 90.4015 23.2998C93.5008 24.0198 96.4795 23.7265 99.6356 23.7665C101.912 23.7998 102.976 26.6465 103.55 28.1932C104.962 31.9865 99.3164 33.5932 96.6427 33.8665C93.4724 34.1865 90.4866 36.7665 91.6356 40.0465C94.671 48.7598 104.969 56.8598 114.359 59.0732C116.792 59.6465 118.721 58.6465 120.146 56.8598C122.87 53.4265 118.848 50.4398 115.827 49.3198C110.55 47.3532 103.494 42.7132 101.657 37.4465C99.9902 39.5065 98.3164 41.5665 96.6497 43.6265C107.806 42.4798 117.054 34.9598 112.863 23.7532C109.288 14.1932 98.3873 12.0132 89.4724 16.5065C87.21 17.6465 86.9192 20.6932 88.671 22.3398C88.9618 22.6132 89.2597 22.8932 89.5505 23.1665C90.6072 24.1665 92.0966 23.9998 93.1817 23.1665L93.1675 23.1732Z" fill="#376DB6"/>
<path d="M120.416 18.9666C125.494 20.8599 131.359 20.3666 136.742 20.4799C142.189 20.5999 147.891 21.3266 152.253 17.8466C153.558 16.8066 153.558 14.4599 152.253 13.4199C148.302 10.2732 143.898 10.7866 138.934 10.7866C132.955 10.7866 126.054 10.1999 120.416 12.2999C116.941 13.5999 116.941 17.6599 120.416 18.9599V18.9666Z" fill="#85B7E2"/>
<path d="M132.359 17.9466C129.381 22.4732 129.409 27.8932 129.146 33.0799C128.842 39.1599 128.182 46.5932 130.664 52.3132C133.083 57.9066 140.728 56.8466 141.537 50.9266C142.31 45.2332 141.161 38.8599 141.019 33.0799C140.891 27.8466 141.21 22.5532 138.246 17.9466C136.898 15.8599 133.714 15.8932 132.366 17.9466H132.359Z" fill="#85B7E2"/>
<path d="M164.188 33.9932C169.805 34.9065 177.444 35.7132 182.678 33.3132C184.869 32.3132 185.018 28.6465 182.678 27.6865C177.515 25.5865 168.188 24.6398 163.359 27.9798C161.21 29.4598 160.876 33.4532 164.196 33.9865L164.188 33.9932Z" fill="#376DB6"/>
<path d="M159.437 14.3532C157.678 18.5532 158.444 25.2399 158.132 29.7132C157.685 36.1065 156.55 43.4799 158.075 49.7999C159.352 55.0799 168.976 53.9932 168.245 48.5065C168.21 48.2265 168.174 47.9399 168.139 47.6599C167.465 42.5399 160.238 41.1332 158.359 46.4199C158.267 46.6799 158.174 46.9465 158.075 47.2132H168.061C166.891 41.6932 168.302 33.2999 168.153 26.9732C168.047 22.5399 168.011 14.6065 162.579 12.7399C161.77 12.4599 160.621 12.7665 160.061 13.3665C159.735 13.7132 159.614 13.9199 159.43 14.3532H159.437Z" fill="#376DB6"/>
<path d="M179.153 14.3532C177.394 18.5532 178.16 25.2399 177.848 29.7132C177.401 36.1065 176.267 43.4799 177.791 49.7999C179.068 55.0799 188.692 53.9932 187.962 48.5065C187.926 48.2265 187.891 47.9399 187.855 47.6599C187.182 42.5399 179.955 41.1332 178.075 46.4199C177.983 46.6799 177.891 46.9465 177.791 47.2132H187.777C186.607 41.6932 188.018 33.2999 187.869 26.9732C187.763 22.5399 187.728 14.6065 182.295 12.7399C181.486 12.4599 180.338 12.7665 179.777 13.3665C179.451 13.7132 179.33 13.9199 179.146 14.3532H179.153Z" fill="#376DB6"/>
<path d="M189.14 69.2088C186.887 66.7303 184.163 64.4988 180.885 63.6699C178.779 63.136 176.551 63.2236 174.396 63.5584C172.216 63.8931 170.086 64.4908 168.053 65.3197C165.588 65.8696 163.238 66.8737 161.051 68.125C157.391 70.229 154.065 73.122 152.276 76.8916C150.527 80.5895 150.397 84.8692 151.243 88.8541C152.341 93.9945 155.057 98.8241 159.099 102.275C163.132 105.726 168.492 107.726 173.843 107.535C175.672 107.471 177.494 107.152 179.259 106.682C181.926 105.973 184.504 104.905 186.879 103.518C188.578 102.53 190.189 101.366 191.555 99.9638C195.54 95.8753 197.166 89.8821 196.483 84.2715C195.8 78.6529 192.97 73.4248 189.131 69.2009L189.14 69.2088Z" fill="#A7D8D5"/>
<mask id="mask0_75776_3919" style="mask-type:luminance" maskUnits="userSpaceOnUse" x="150" y="63" width="47" height="45">
<path d="M189.14 69.2088C186.887 66.7303 184.163 64.4988 180.885 63.6699C178.779 63.136 176.551 63.2236 174.396 63.5584C172.216 63.8931 169.728 62.857 167.695 63.6859C165.231 64.2358 163.23 66.8737 161.051 68.125C157.391 70.229 154.065 73.122 152.276 76.8916C150.527 80.5895 150.397 84.8692 151.243 88.8541C152.341 93.9945 155.057 98.8241 159.099 102.275C163.132 105.726 168.492 107.726 173.843 107.535C175.672 107.471 177.494 107.152 179.259 106.682C181.926 105.973 184.504 104.905 186.879 103.518C188.578 102.53 190.189 101.366 191.555 99.9638C195.54 95.8753 197.166 89.8821 196.483 84.2715C195.8 78.6529 192.97 73.4248 189.131 69.2009L189.14 69.2088Z" fill="white"/>
</mask>
<g mask="url(#mask0_75776_3919)">
<path d="M182.642 62.2594C183.114 63.3353 181.154 67.3202 180.015 67.6629C178.877 68.0056 177.56 68.0374 176.689 68.8264C175.779 69.6473 175.648 71.0261 174.9 71.9904C174.575 72.4128 174.144 72.7395 173.77 73.1221C172.038 74.9312 172.062 78.0872 173.827 79.8724C174.664 80.7172 175.844 81.299 176.34 82.3749C176.746 83.2515 176.673 84.3912 177.413 85.0287C178.161 85.6584 179.284 85.4193 180.268 85.5388C182.577 85.8177 184.008 88.1688 184.643 90.3605C184.976 91.5161 185.196 92.7115 185.724 93.7954C186.245 94.8792 187.156 95.8675 188.343 96.1385C189.538 96.4094 190.978 95.7161 191.181 94.5365C191.336 93.628 190.791 92.7673 190.49 91.8986C190.189 91.0299 190.295 89.8105 191.189 89.5157C191.563 89.3961 191.978 89.4758 192.352 89.3642C193.743 88.9498 193.165 86.79 193.962 85.6026C194.719 84.4709 196.695 84.3195 197.004 82.9965C197.142 82.4147 196.866 81.817 196.817 81.2193C196.703 79.8804 197.687 78.7008 198.045 77.4018C198.565 75.497 197.679 73.4648 196.394 71.9426C195.109 70.4204 193.458 69.2488 192.059 67.8223C190.88 66.6188 189.888 65.2401 188.619 64.1323C187.351 63.0245 185.684 62.1877 183.992 62.3949C182.301 62.6021 180.837 60.2989 181.138 61.9407" fill="#85B7E2"/>
<path d="M145.925 82.5263C146.153 83.8891 147.429 84.9571 148.828 85.1563C150.227 85.3556 151.666 84.7658 152.667 83.7935C153.333 83.148 153.903 82.3032 154.822 82.1199C155.269 82.0322 155.732 82.1199 156.163 82.2474C158.855 83.0284 161.01 85.3874 161.514 88.0971C161.653 88.8622 161.693 89.6831 162.157 90.3127C162.962 91.3966 164.637 91.3726 165.76 92.1457C167.606 93.4208 167.516 96.5131 169.525 97.5173C169.948 97.7324 170.476 97.8599 170.68 98.2823C170.818 98.5613 170.761 98.896 170.68 99.1989C170.208 100.872 168.744 102.243 167.02 102.634C166.402 102.777 165.743 102.801 165.174 103.088C164.719 103.319 164.361 103.694 163.979 104.028C161.872 105.846 158.701 106.34 156.074 105.367C153.447 104.403 151.422 102.068 150.723 99.3981C150.479 98.4497 150.389 97.4694 150.08 96.537C149.162 93.6998 146.437 91.7313 145.315 88.9658C144.38 86.6706 144.697 83.929 146.136 81.8967" fill="#85B7E2"/>
<path d="M169.671 112.142C170.915 111.106 171.68 109.535 171.712 107.934C171.745 106.491 171.281 104.825 172.273 103.757C173.753 102.164 176.909 103.63 178.454 102.092C178.56 101.988 178.665 101.861 178.82 101.829C178.966 101.797 179.113 101.869 179.243 101.94C180.503 102.729 180.536 104.539 181.504 105.654C181.91 106.124 182.463 106.443 182.878 106.905C183.301 107.36 183.569 108.053 183.26 108.587C183.106 108.866 182.821 109.041 182.544 109.209C179.942 110.739 176.909 111.424 173.892 111.759C172.704 111.895 171.444 111.99 170.452 112.644C170.183 112.819 169.931 113.034 169.614 113.09C169.297 113.138 168.915 112.923 168.947 112.612" fill="#85B7E2"/>
</g>
<path d="M171.281 79.5696C169.313 80.2948 167.605 80.3028 165.938 79.4341C165.442 79.1791 164.954 78.8443 165.231 78.2387C165.483 77.6887 166.052 77.8242 166.556 77.9597C170.126 78.9161 172.956 77.6648 174.55 74.4371C174.762 74.0068 174.997 73.5206 175.583 73.7756C176.136 74.0147 176.014 74.5089 175.835 74.9711C174.973 77.2504 173.2 78.6451 171.281 79.5616V79.5696Z" fill="#020000"/>
<path d="M161.433 77.8878C160.498 78.2624 159.343 77.8161 159.001 76.9474C158.725 76.2381 159.172 75.2578 159.936 74.9391C160.823 74.5565 162.197 75.1064 162.539 75.9751C162.799 76.6366 162.279 77.5531 161.433 77.8878Z" fill="#020000"/>
<path d="M178.389 69.456C178.698 70.2211 178.242 71.1615 177.413 71.4882C176.632 71.7991 175.778 71.4404 175.461 70.6753C175.152 69.9182 175.616 68.93 176.429 68.6351C177.218 68.3482 178.096 68.7148 178.389 69.448V69.456Z" fill="#020000"/>
<path d="M138.869 68.5899C138.369 62.4402 130.015 61.3694 125.326 62.9971C119.881 64.8817 115.916 69.5445 115.279 75.1985C114.511 81.9906 120.824 86.378 126.431 88.6114C128.891 89.5905 134.766 91.518 134.81 94.7611C134.891 101.045 124.726 94.8774 122.816 93.4945C117.976 90.0005 112.432 97.6187 117.396 100.88C122.616 104.319 132.082 108.78 137.832 103.756C143.108 99.1485 144.089 92.0993 138.987 87.0327C135.697 83.7652 123.534 80.9687 123.702 75.9756C123.933 69.1834 132.369 71.5026 136.103 71.5332C137.876 71.5454 139.012 70.3155 138.875 68.5899H138.869Z" fill="#376DB6"/>
<path d="M83.385 68.4898C80.0195 79.6082 78.3024 105.418 98.8637 102.879C113.643 101.055 111.595 78.5067 111.545 69.01C111.52 64.029 102.997 64.0229 103.022 69.01C103.06 76.6588 105.27 88.8724 98.9074 94.9854C97.2778 96.5518 94.1995 95.1139 92.651 94.2939C89.5727 92.6723 88.8734 88.4318 88.5487 85.5681C87.8994 79.8407 89.0483 74.15 87.5372 68.496C87.0252 66.5929 83.9407 66.6664 83.385 68.496V68.4898Z" fill="#3FA9F5"/>
</svg>
