<svg width="200" height="112" viewBox="0 0 200 112" fill="none" xmlns="http://www.w3.org/2000/svg">
<path d="M56.423 54.7667C59.6428 49.1467 59.8485 42.4467 61.3024 36.28C62.0896 32.9533 63.1606 29.6933 64.9336 26.7134C66.9549 23.3134 66.5364 26.7333 64.4655 24.16C70.5861 31.76 66.3237 43.42 69.5932 51.8133C71.884 57.6933 80.9832 56.8334 81.2882 50.3267C81.5861 43.92 80.3379 36.9867 79.4088 30.66C78.3946 23.7533 76.2669 16.06 68.7067 13.3133C59.3875 9.93335 53.0684 20.5333 50.6074 27.0133C47.657 34.82 44.6854 47.3067 49.7492 54.78C51.2457 56.9934 54.9903 57.2733 56.4159 54.78L56.423 54.7667Z" fill="#85B7E2"/>
<path d="M58.3591 45.5667C64.6073 43.14 72.196 47.7733 77.2669 42.3267C78.6853 40.8 78.6357 38.9267 77.2669 37.3933C71.8697 31.3667 59.7492 34.2667 54.3449 39.0733C51.5151 41.5933 54.43 47.0867 58.3591 45.56V45.5667Z" fill="#85B7E2"/>
<path d="M14.0258 12.78C9.79883 15.44 10.3378 20.74 10.2953 25.0467C10.2385 31.68 10.9265 38.2867 10.4939 44.92C9.64989 57.9 21.735 57.84 32.2102 57.0133C38.7208 56.5 38.9265 47.3733 32.2102 47.3467C30.5932 47.3467 20.962 48.9867 20.8485 46.5533C20.6641 42.54 21.0258 38.4733 20.8627 34.44C20.6428 28.9 22.1251 16.9667 16.891 13.1267C16.0825 12.5333 14.9761 12.18 14.0187 12.78H14.0258Z" fill="#3FA9F5"/>
<path d="M12.4938 16.88C14.3733 20.8267 20.4938 20.6333 24.3236 20.5133C26.5718 20.44 28.8059 20.38 31.0541 20.5133C33.7279 20.6733 35.5364 21.34 38.1179 20.18C39.7562 19.44 40.6286 17.2533 40.0754 15.6667C38.352 10.74 32.4016 10.64 27.7208 10.7067C23.4867 10.7667 17.8059 10.3 13.8981 11.8867C11.813 12.7333 11.7279 15.2467 12.508 16.88H12.4938Z" fill="#3FA9F5"/>
<path d="M15.5364 36.4C19.6498 38.7867 38.4796 40.5733 37.4158 32.52C36.8626 28.32 32.1959 28 28.6002 28.42C24.2385 28.9333 19.4512 29.06 15.5364 31.1C13.3378 32.2467 13.5009 35.22 15.5364 36.4Z" fill="#3FA9F5"/>
<path d="M86.6712 19.54C87.2102 30.6733 85.2953 42.1 86.1818 53.2333C88.7705 51.84 91.3662 50.44 93.9549 49.04C91.9478 48.0933 90.7492 48.0933 88.7421 49.04C79.7208 53.2867 95.4726 64.36 96.5151 53.2333C97.0471 47.5733 96.7917 41.7267 96.7847 36.0467C96.7847 29.8467 96.9903 23.24 93.6357 17.7667C91.8272 14.82 86.501 15.9933 86.6712 19.54Z" fill="#376DB6"/>
<path d="M93.1676 23.1733C93.5293 22.8999 93.8839 22.6199 94.2456 22.3466C92.9619 22.6666 91.6853 22.9866 90.4016 23.2999C93.5009 24.0199 96.4797 23.7266 99.6357 23.7666C101.912 23.7999 102.976 26.6466 103.551 28.1933C104.962 31.9866 99.3165 33.5933 96.6428 33.8666C93.4726 34.1866 90.4867 36.7666 91.6357 40.0466C94.6711 48.7599 104.969 56.8599 114.359 59.0733C116.792 59.6466 118.721 58.6466 120.146 56.8599C122.87 53.4266 118.848 50.4399 115.827 49.3199C110.551 47.3533 103.494 42.7133 101.657 37.4466C99.9903 39.5066 98.3165 41.5666 96.6499 43.6266C107.806 42.4799 117.054 34.9599 112.863 23.7533C109.288 14.1933 98.3875 12.0133 89.4726 16.5066C87.2101 17.6466 86.9194 20.6933 88.6711 22.3399C88.9619 22.6133 89.2598 22.8933 89.5506 23.1666C90.6073 24.1666 92.0967 23.9999 93.1818 23.1666L93.1676 23.1733Z" fill="#376DB6"/>
<path d="M120.416 18.9667C125.494 20.86 131.359 20.3667 136.742 20.48C142.189 20.6 147.891 21.3267 152.253 17.8467C153.558 16.8067 153.558 14.46 152.253 13.42C148.302 10.2734 143.898 10.7867 138.933 10.7867C132.955 10.7867 126.054 10.2 120.416 12.3C116.941 13.6 116.941 17.66 120.416 18.96V18.9667Z" fill="#85B7E2"/>
<path d="M132.359 17.9467C129.38 22.4734 129.409 27.8934 129.146 33.08C128.841 39.16 128.182 46.5934 130.664 52.3134C133.082 57.9067 140.728 56.8467 141.536 50.9267C142.309 45.2334 141.16 38.86 141.019 33.08C140.891 27.8467 141.21 22.5534 138.246 17.9467C136.898 15.86 133.714 15.8934 132.366 17.9467H132.359Z" fill="#85B7E2"/>
<path d="M164.189 33.9934C169.806 34.9067 177.444 35.7134 182.678 33.3134C184.87 32.3134 185.019 28.6467 182.678 27.6867C177.515 25.5867 168.189 24.64 163.359 27.98C161.21 29.46 160.877 33.4534 164.196 33.9867L164.189 33.9934Z" fill="#376DB6"/>
<path d="M159.437 14.3533C157.678 18.5533 158.444 25.24 158.132 29.7133C157.685 36.1067 156.551 43.48 158.075 49.8C159.352 55.08 168.976 53.9933 168.246 48.5067C168.21 48.2267 168.175 47.94 168.139 47.66C167.465 42.54 160.238 41.1333 158.359 46.42C158.267 46.68 158.175 46.9467 158.075 47.2133H168.061C166.891 41.6933 168.302 33.3 168.153 26.9733C168.047 22.54 168.012 14.6067 162.579 12.74C161.77 12.46 160.621 12.7667 160.061 13.3667C159.735 13.7133 159.614 13.92 159.43 14.3533H159.437Z" fill="#376DB6"/>
<path d="M179.153 14.3533C177.395 18.5533 178.161 25.24 177.848 29.7133C177.402 36.1067 176.267 43.48 177.792 49.8C179.068 55.08 188.692 53.9933 187.962 48.5067C187.926 48.2267 187.891 47.94 187.856 47.66C187.182 42.54 179.955 41.1333 178.075 46.42C177.983 46.68 177.891 46.9467 177.792 47.2133H187.778C186.607 41.6933 188.019 33.3 187.87 26.9733C187.763 22.54 187.728 14.6067 182.295 12.74C181.487 12.46 180.338 12.7667 179.778 13.3667C179.451 13.7133 179.331 13.92 179.146 14.3533H179.153Z" fill="#376DB6"/>
<path d="M138.869 68.59C138.369 62.4404 130.015 61.3695 125.325 62.9972C119.881 64.8819 115.916 69.5446 115.279 75.1986C114.511 81.9908 120.824 86.3781 126.431 88.6116C128.891 89.5906 134.766 91.5181 134.81 94.7612C134.891 101.045 124.726 94.8775 122.815 93.4946C117.976 90.0006 112.432 97.6188 117.396 100.88C122.616 104.319 132.081 108.78 137.832 103.756C143.108 99.1486 144.089 92.0994 138.987 87.0329C135.697 83.7653 123.533 80.9689 123.702 75.9757C123.933 69.1836 132.369 71.5027 136.103 71.5333C137.876 71.5455 139.012 70.3156 138.875 68.59H138.869Z" fill="#376DB6"/>
<path d="M83.385 68.4899C80.0195 79.6082 78.3024 105.418 98.8637 102.879C113.643 101.055 111.595 78.5068 111.545 69.01C111.52 64.0291 102.997 64.023 103.022 69.01C103.06 76.6588 105.27 88.8724 98.9074 94.9854C97.2778 96.5519 94.1995 95.1139 92.651 94.2939C89.5727 92.6724 88.8734 88.4319 88.5487 85.5682C87.8994 79.8407 89.0483 74.15 87.5372 68.496C87.0252 66.593 83.9407 66.6664 83.385 68.496V68.4899Z" fill="#3FA9F5"/>
</svg>
