<svg width="113" height="113" viewBox="0 0 113 113" fill="none" xmlns="http://www.w3.org/2000/svg">
<path d="M35.8919 79.584L53.4827 61.9932C54.5387 60.9372 55.0668 60.4092 55.6756 60.2113C56.2112 60.0373 56.7881 60.0373 57.3237 60.2113C57.9326 60.4092 58.4606 60.9372 59.5167 61.9932L76.9901 79.4667M61.833 64.3096L69.4827 56.6599C70.5387 55.6038 71.0668 55.0758 71.6756 54.878C72.2112 54.704 72.7881 54.704 73.3237 54.878C73.9326 55.0758 74.4606 55.6038 75.5167 56.6599L83.1663 64.3096M51.1663 48.3096C51.1663 51.2551 48.7785 53.6429 45.833 53.6429C42.8875 53.6429 40.4997 51.2551 40.4997 48.3096C40.4997 45.3641 42.8875 42.9762 45.833 42.9762C48.7785 42.9762 51.1663 45.3641 51.1663 48.3096ZM42.633 80.3096H70.3663C74.8468 80.3096 77.087 80.3096 78.7983 79.4376C80.3036 78.6706 81.5274 77.4468 82.2944 75.9415C83.1663 74.2302 83.1663 71.99 83.1663 67.5096V45.1096C83.1663 40.6292 83.1663 38.3889 82.2944 36.6776C81.5274 35.1723 80.3036 33.9485 78.7983 33.1815C77.087 32.3096 74.8468 32.3096 70.3663 32.3096H42.633C38.1526 32.3096 35.9124 32.3096 34.2011 33.1815C32.6958 33.9485 31.4719 35.1723 30.705 36.6776C29.833 38.3889 29.833 40.6292 29.833 45.1096V67.5096C29.833 71.99 29.833 74.2302 30.705 75.9415C31.4719 77.4468 32.6958 78.6706 34.2011 79.4376C35.9124 80.3096 38.1526 80.3096 42.633 80.3096Z" stroke="#D5D5D5" stroke-width="4" stroke-linecap="round" stroke-linejoin="round"/>
</svg>
