<svg width="112" height="146" viewBox="0 0 112 146" fill="none" xmlns="http://www.w3.org/2000/svg">
<path d="M69.736 145.482C67.8374 145.355 65.9688 145.737 64.0777 145.745C60.9109 145.76 57.7365 145.722 54.5772 145.812C52.0257 145.887 49.4667 145.692 46.9152 145.955C43.966 145.662 40.9943 146.015 38.045 145.565C37.4972 145.482 36.9194 145.535 36.3641 145.505C34.2778 145.392 32.1766 145.362 30.1054 145.114C28.3344 144.904 26.5408 144.972 24.7848 144.567C23.2839 144.221 21.8431 143.704 20.4098 143.163C19.3141 142.751 18.196 142.39 17.0778 142.03C13.0255 140.747 9.8361 138.338 7.68234 134.616C6.18897 132.027 5.19839 129.25 4.44796 126.376C3.63749 123.262 3.01462 120.102 2.6394 116.913C2.30171 114.024 1.97902 111.135 1.84394 108.223C1.70136 105.266 1.40869 102.317 1.37867 99.3527C1.32614 94.7525 1.37116 90.1524 1.27361 85.5522C0.95092 70.5359 1.18356 55.5122 0.943415 40.4959C0.88338 36.6687 0.793328 32.834 0.823345 29.0067C0.853363 25.6898 0.935911 22.3654 1.13853 19.0559C1.24359 17.3749 1.23609 15.6865 1.39368 14.013C1.6113 11.6266 1.67884 9.22519 2.16663 6.86882C2.49682 5.27789 3.35982 4.30232 4.85319 3.61942C6.96943 2.65136 9.18322 2.11105 11.442 1.69831C12.5001 1.5107 13.5808 1.54822 14.6539 1.62326C15.0892 1.65328 15.4269 1.84089 15.757 2.09604C16.455 2.65136 16.9202 3.38679 17.2504 4.19726C18.1584 6.42606 18.8564 8.70739 19.149 11.1088C19.5317 14.2456 19.9595 17.3749 20.3647 20.5118C20.6499 22.688 20.9501 24.8568 21.2127 27.0331C21.3703 28.3463 21.4529 29.6746 21.6105 30.9954C21.8656 33.1716 22.1883 35.3404 22.4134 37.5242C22.6386 39.6629 23.0888 41.7566 23.4565 43.8654C23.6667 45.0661 23.9893 46.2593 24.3421 47.43C24.8148 48.9909 25.8504 50.0715 27.3813 50.6343C28.7246 51.1296 30.0979 51.5123 31.5312 51.6474C32.9045 51.775 34.2628 51.9701 35.6361 52.1427C35.8387 52.1652 36.0414 52.1952 36.244 52.2027C38.9981 52.3228 41.7522 52.4279 44.5063 52.563C47.1553 52.6905 49.8044 52.8106 52.4459 53.0958C53.0013 53.1558 53.5716 53.1483 54.1344 53.1558C56.3782 53.1633 58.6145 53.5235 60.8658 53.441C61.5337 53.4184 62.1941 53.441 62.847 53.2984C63.0496 53.2534 63.2522 53.2158 63.4548 53.2233C65.3535 53.3359 67.2295 52.9907 69.0981 52.8031C70.4564 52.668 71.8597 52.7431 73.188 52.3303C73.2856 52.3003 73.3906 52.2853 73.4882 52.2928C75.1016 52.4129 76.6175 51.8951 78.1484 51.5574C79.7018 51.2197 80.9025 50.4392 81.5404 48.8033C82.4559 46.4619 83.0938 44.0605 83.6041 41.6066C83.7167 41.0587 83.7992 40.4959 83.9568 39.9631C84.7973 37.1264 85.3226 34.2148 86.0055 31.3406C86.6659 28.564 87.2887 25.7723 87.9716 23.0032C88.9322 19.0859 89.7877 15.1461 90.5306 11.1838C90.9509 8.93252 91.2135 6.65119 91.5512 4.37737C91.5512 4.32484 91.5512 4.27231 91.5662 4.22728C91.9715 1.81087 92.6394 1.01541 95.4235 0.730241C96.9018 0.572649 98.3802 0.850311 99.8436 1.06794C102.057 1.39813 104.249 1.87091 106.455 2.27614C106.507 2.28365 106.552 2.29115 106.605 2.30616C108.699 2.69639 109.922 4.03967 110.507 5.9833C110.905 7.29657 111.183 8.65486 111.183 10.0507C111.175 12.1444 111.175 14.2306 110.98 16.3243C110.822 18.1029 110.71 19.8889 110.552 21.6674C110.41 23.2884 110.207 24.9093 110.034 26.5303C110.027 26.6353 110.012 26.7329 110.004 26.838C109.884 28.9767 109.779 31.123 109.637 33.2617C109.472 35.7532 109.277 38.2446 109.096 40.7436C109.089 40.8936 109.074 41.0512 109.074 41.2013C109.029 44.6759 108.736 48.1429 108.631 51.6099C108.556 54.0038 108.519 56.4127 108.331 58.7991C108.196 60.5326 108.271 62.2811 108.046 63.9996C107.753 66.1834 107.896 68.3822 107.588 70.5659C107.333 72.382 107.325 74.2281 107.175 76.0591C107.025 77.8377 106.823 79.6087 106.65 81.3873C106.552 82.4003 106.462 83.4134 106.342 84.434C105.847 88.5915 105.224 92.7188 104.519 96.8463C103.716 101.529 102.68 106.152 101.547 110.759C100.692 114.226 99.821 117.693 98.8605 121.13C97.96 124.327 96.9994 127.502 95.7537 130.586C94.6655 133.272 93.0521 135.621 91.131 137.76C89.8027 139.238 88.3243 140.574 86.6133 141.61C85.6603 142.188 84.6472 142.698 83.6266 143.148C83.0187 143.418 82.3959 143.629 81.8331 143.989C81.6229 144.124 81.3678 144.251 81.1276 144.259C79.7844 144.296 78.5386 144.807 77.2329 145.017C76.9327 145.062 76.6325 145.197 76.3324 145.197C74.1336 145.167 71.9723 145.737 69.766 145.497L69.736 145.482Z" fill="#8EC28A"/>
<path d="M98.8831 18.5755C98.8831 18.3203 98.8906 18.0652 98.8831 17.81C98.8756 17.5624 98.9057 17.2772 98.613 17.1571C98.3503 17.0446 98.1177 17.2097 97.8926 17.3072C97.5849 17.4423 97.4873 17.735 97.3973 18.0351C97.0296 19.2584 96.6543 20.4741 96.2791 21.6898C96.144 22.14 96.1215 22.5978 96.2041 23.0556C96.2866 23.5058 96.6994 23.7235 97.1271 23.5734C97.7875 23.3332 98.2903 22.9655 98.3954 22.2001C98.5604 20.9919 98.8681 19.7987 98.8831 18.568V18.5755Z" fill="white"/>
<path d="M94.3055 34.875C94.328 35.0851 94.343 35.2878 94.373 35.4904C94.388 35.5879 94.433 35.6855 94.4706 35.7755C94.6432 36.1958 95.0409 36.3234 95.4687 36.1282C96.1065 35.8431 96.3692 35.3103 96.3842 34.6649C96.4067 33.6968 96.5193 32.7438 96.6994 31.7907C96.8119 31.1979 96.8645 30.59 96.9245 29.9822C96.947 29.772 96.8269 29.5919 96.6543 29.4644C96.4517 29.3143 96.2716 29.4043 96.099 29.5244C95.6638 29.8171 95.3636 30.1848 95.2435 30.7326C94.9884 31.8733 94.6657 32.9914 94.388 34.1246C94.328 34.3722 94.328 34.6274 94.298 34.875H94.3055Z" fill="white"/>
<path d="M94.8759 43.2874H94.8984C94.8984 42.6795 94.9209 42.0717 94.8984 41.4638C94.8759 40.946 94.5157 40.7884 94.0504 41.0361C93.6677 41.2462 93.4726 41.5313 93.3825 41.9741C93.1949 42.9121 92.9548 43.8502 92.6996 44.7732C92.5871 45.171 92.497 45.5537 92.512 45.9664C92.542 46.6493 92.7972 47.1821 93.1424 47.2497C93.5551 47.3247 94.3581 46.7994 94.5532 46.2816C94.7333 45.8088 94.8984 45.3286 94.8909 44.8108C94.8759 44.308 94.8909 43.7977 94.8909 43.2874H94.8759Z" fill="white"/>
<path d="M97.9528 11.3562C97.9528 11.5739 97.9528 11.6264 97.9528 11.6789C97.9678 12.0316 97.9152 12.4444 98.3355 12.5795C98.7557 12.722 99.1309 12.5119 99.4161 12.2042C99.5512 12.0617 99.6638 11.8665 99.7088 11.6789C100.054 10.2006 100.392 8.72221 100.714 7.23635C100.767 6.9887 100.729 6.71104 100.444 6.59848C100.152 6.47841 99.8138 6.45589 99.5887 6.68102C99.3786 6.89115 99.221 7.16881 99.1159 7.44647C98.7557 8.44455 98.4105 9.45014 98.0878 10.4632C97.9828 10.7934 97.9753 11.1611 97.9528 11.3487V11.3562Z" fill="white"/>
<path d="M93.0598 54.5214C93.0598 53.8535 93.0673 53.3507 93.0598 52.8404C93.0523 52.5778 92.9397 52.3376 92.6621 52.2551C92.4069 52.18 92.1593 52.2776 91.9492 52.4277C91.6715 52.6153 91.5739 52.9155 91.5664 53.2231C91.5514 53.9436 91.3263 54.619 91.1237 55.3019C90.8835 56.0973 90.8535 56.9003 90.9511 57.7108C91.0111 58.191 91.4689 58.3711 91.8441 58.101C92.3094 57.7633 92.617 57.3355 92.8122 56.7802C93.0898 55.9848 93.0298 55.1743 93.0673 54.5289L93.0598 54.5214Z" fill="white"/>
<path d="M10.5791 30.0348C10.5791 30.0348 10.6091 30.0348 10.6166 30.0348C10.6166 30.5976 10.6166 31.1529 10.6166 31.7158C10.6166 32.2786 10.6767 32.8414 10.8943 33.3592C11.0069 33.6369 11.1795 33.8995 11.3671 34.1247C11.6748 34.4849 12.0725 34.4173 12.3877 34.0646C12.9805 33.3817 13.0255 32.6013 12.883 31.7758C12.8079 31.3255 12.6803 30.8828 12.6353 30.4325C12.5303 29.3669 12.3126 28.3238 12.065 27.2882C11.9824 26.9505 11.9899 26.5227 11.5022 26.5227C11.0969 26.5227 10.8868 26.8679 10.7217 27.1756C10.6091 27.3857 10.5791 27.6634 10.5716 27.911C10.5566 28.624 10.5716 29.3369 10.5716 30.0498L10.5791 30.0348Z" fill="white"/>
<path d="M11.7199 19.2359C11.5923 17.7876 11.4873 16.5193 11.3597 15.2511C11.3372 15.0034 11.2246 14.7633 11.112 14.5307C10.9845 14.268 10.7443 14.1554 10.4817 14.268C10.114 14.4256 9.69371 14.5607 9.65619 15.0635C9.56613 16.2792 9.46858 17.5024 9.39353 18.7181C9.34851 19.3935 9.5061 20.0539 9.83629 20.6317C10.219 21.2996 10.6318 21.2096 11.067 20.8343C11.6373 20.3391 11.7949 19.7537 11.7274 19.2359H11.7199Z" fill="white"/>
<path d="M14.1438 45.3361C14.1363 45.2836 14.1062 45.1335 14.0762 44.9909C13.7911 43.6552 13.5209 42.3194 13.2207 40.9911C13.1307 40.6084 13.0631 40.1056 12.5678 40.0831C12.1026 40.0606 11.9375 40.5333 11.7199 40.8635C11.5773 41.0812 11.5473 41.3438 11.6148 41.599C11.8324 42.447 11.7649 43.31 11.8249 44.1655C11.8774 44.9759 12.005 45.7714 12.3427 46.5218C12.4928 46.852 12.6804 47.1672 13.0781 47.2272C13.5584 47.3023 13.6335 46.867 13.8061 46.5894C14.0162 46.2442 14.2038 45.8765 14.1588 45.3512L14.1438 45.3361Z" fill="white"/>
<path d="M15.4646 57.6284C15.2169 56.3301 14.9918 55.0244 14.7141 53.7336C14.5866 53.1408 14.2564 52.8331 13.9787 52.8931C13.5735 52.9757 13.4309 53.3134 13.2508 53.6211C13.0632 53.9438 13.0031 54.3115 13.0782 54.6567C13.2958 55.7148 13.2733 56.7879 13.3333 57.8535C13.3634 58.4314 13.5735 58.9492 13.9262 59.3994C14.2489 59.8122 14.6391 59.8047 14.8792 59.3694C15.1794 58.8366 15.4946 58.2963 15.4646 57.6284Z" fill="white"/>
<path d="M8.76308 8.5198C8.74057 9.12765 8.83812 9.728 9.02573 10.3058C9.12329 10.5985 9.23585 10.8987 9.59606 10.9212C9.94127 10.9437 10.1364 10.6736 10.294 10.4184C10.3915 10.2533 10.4591 10.0507 10.4741 9.85557C10.5566 8.84248 10.294 7.85941 10.1289 6.86883C10.0914 6.6437 9.72364 6.54615 9.49851 6.68122C9.1383 6.89885 8.85313 7.17651 8.8081 7.61927C8.77809 7.91945 8.77809 8.21962 8.76308 8.5273V8.5198Z" fill="white"/>
<path d="M5.6188 123.554C5.41618 123.532 5.13852 123.824 5.14602 124.057C5.16854 124.62 5.33363 125.153 5.59629 125.648C5.94899 126.316 6.36173 126.954 6.69943 127.629C7.07465 128.372 7.63747 128.95 8.22282 129.505C8.3654 129.64 8.56051 129.723 8.74062 129.798C8.97325 129.895 9.28844 129.678 9.27343 129.43C9.25842 129.228 9.25092 129.025 9.19088 128.837C8.60554 127.029 7.45737 125.535 6.36924 124.027C6.25667 123.869 6.07657 123.749 5.91147 123.637C5.83643 123.584 5.72386 123.584 5.6263 123.562L5.6188 123.554Z" fill="white"/>
<path d="M15.352 136.109C15.3294 136.042 15.2919 135.892 15.2469 135.749C15.0518 135.134 14.6015 134.713 14.1062 134.353C13.1156 133.64 12.1101 132.95 11.1045 132.252C10.9844 132.17 10.8418 132.094 10.6917 132.057C10.4891 132.012 10.264 132.019 10.1514 132.222C10.0839 132.342 10.0614 132.515 10.0839 132.65C10.1064 132.792 10.1889 132.942 10.279 133.055C11.1195 134.076 11.99 135.081 12.9731 135.967C13.4834 136.424 14.1062 136.642 14.7666 136.747C15.0593 136.792 15.3895 136.462 15.352 136.102V136.109Z" fill="white"/>
<path d="M22.6763 140.304C22.8264 140.297 22.984 140.289 23.1341 140.274C23.6144 140.207 23.7569 139.862 23.5693 139.374C23.3217 138.743 22.8339 138.421 22.2261 138.241C21.4006 137.993 20.5676 137.768 19.7421 137.513C19.1568 137.333 18.5864 137.115 18.0011 136.95C17.7609 136.882 17.4758 136.905 17.3782 137.212C17.2957 137.468 17.3107 137.73 17.4908 137.933C17.6184 138.083 17.806 138.188 17.9786 138.286C19.0067 138.848 20.0348 139.396 21.0629 139.952C21.5657 140.222 22.1135 140.334 22.6838 140.304H22.6763Z" fill="white"/>
<path d="M41.4297 142.083C41.8199 141.978 42.2702 141.895 42.6979 141.745C43.2533 141.55 43.3283 141.115 42.9306 140.687C42.3452 140.057 41.5873 139.959 40.8294 140.094C39.8688 140.267 38.9157 140.282 37.9552 140.304C37.7526 140.304 37.5499 140.327 37.3548 140.372C37.0697 140.439 36.9646 140.664 36.9646 140.942C36.9646 141.355 37.1747 141.632 37.5875 141.67C38.8482 141.783 40.1239 141.715 41.4297 142.075V142.083Z" fill="white"/>
<path d="M60.5507 142.03V142.098C61.2111 142.098 61.8715 142.12 62.5319 142.098C63.1848 142.068 63.6801 141.722 63.7326 141.34C63.7626 141.1 63.1022 140.477 62.6745 140.364C62.5319 140.327 62.3743 140.319 62.2242 140.319C60.8509 140.327 59.4851 140.364 58.1343 140.619C57.9317 140.657 57.7366 140.709 57.6315 140.912C57.4965 141.19 57.6541 141.4 57.7966 141.602C58.0218 141.925 58.3595 142.023 58.7272 142.03C59.335 142.038 59.9429 142.03 60.5582 142.03H60.5507Z" fill="white"/>
<path d="M50.3224 140.349C49.5495 140.349 49.1367 140.327 48.739 140.357C48.4388 140.379 48.1462 140.462 47.861 140.567C47.5308 140.687 47.4708 140.995 47.6584 141.317C47.7935 141.557 47.9736 141.723 48.2512 141.715C49.3769 141.692 50.4725 141.993 51.5832 142.068C52.191 142.105 52.8064 142.105 53.4067 142.045C53.947 141.993 54.0971 141.475 53.7744 141.01C53.5793 140.732 53.3092 140.627 52.994 140.604C51.9809 140.529 50.9828 140.304 50.3224 140.342V140.349Z" fill="white"/>
<path d="M85.3527 135.937C85.4803 135.884 85.6829 135.832 85.848 135.719C86.8686 135.029 87.7166 134.158 88.437 133.168C88.5571 133.01 88.6321 132.807 88.6846 132.612C88.7672 132.342 88.6471 132.117 88.422 131.952C88.2043 131.794 87.9492 131.704 87.7166 131.884C87.3564 132.162 86.9811 132.44 86.681 132.777C86.0131 133.535 85.3752 134.331 84.7448 135.126C84.6623 135.224 84.6248 135.426 84.6623 135.546C84.7598 135.809 85.015 135.884 85.3452 135.937H85.3527Z" fill="white"/>
<path d="M77.4732 140.259C78.6889 140.117 79.8671 139.816 81.0003 139.351C81.1804 139.276 81.338 139.134 81.4805 138.991C81.7807 138.706 81.6907 138.346 81.3079 138.128C80.9327 137.918 80.55 137.82 80.1373 137.955C79.1767 138.278 78.2161 138.608 77.2631 138.953C77.1205 139.006 76.9929 139.096 76.8804 139.194C76.7303 139.329 76.5577 139.494 76.6627 139.711C76.7453 139.884 76.8879 140.042 77.038 140.154C77.1505 140.237 77.3231 140.229 77.4732 140.259Z" fill="white"/>
<path d="M70.2915 141.753C70.8843 141.693 71.5072 141.873 72.0925 141.595C72.3327 141.483 72.5353 141.317 72.6103 141.062C72.6929 140.755 72.4377 140.635 72.2426 140.469C71.8749 140.162 71.4697 139.952 70.9819 140.064C70.0814 140.282 69.1658 140.297 68.2503 140.342C67.755 140.364 67.4098 140.612 67.4323 140.867C67.4623 141.31 67.8451 141.422 68.1677 141.543C68.8506 141.798 69.5786 141.723 70.299 141.753H70.2915Z" fill="white"/>
<path d="M30.6985 141.505C31.2163 141.505 31.4189 141.505 31.614 141.505C31.7116 141.505 31.8166 141.482 31.9067 141.445C32.1018 141.355 32.2444 141.22 32.2294 140.987C32.1994 140.499 31.8542 140.049 31.4339 140.027C30.0681 139.936 28.7323 139.726 27.389 139.464C27.1864 139.426 26.9763 139.486 26.8788 139.689C26.7512 139.936 26.7887 140.184 26.9688 140.394C27.0664 140.507 27.2014 140.604 27.3365 140.642C28.5372 141.01 29.7454 141.377 30.691 141.512L30.6985 141.505Z" fill="white"/>
<path d="M90.043 128.522C90.1105 128.77 90.2306 128.845 90.3882 128.875C90.7184 128.943 91.011 128.875 91.2287 128.627C92.0466 127.712 92.8346 126.774 93.2999 125.618C93.3749 125.438 93.3899 125.213 93.1948 125.063C93.0222 124.928 92.8196 124.935 92.617 124.98C92.3018 125.04 92.0466 125.235 91.874 125.491C91.2737 126.376 90.6883 127.277 90.118 128.177C90.043 128.29 90.058 128.462 90.043 128.522Z" fill="white"/>
<path d="M53.7593 134.496C58.352 134.488 62.9522 134.323 67.5373 134.661C70.2464 134.856 72.9405 134.616 75.6346 134.406C76.0848 134.368 76.5351 134.225 76.9628 134.068C77.4131 133.895 77.5332 133.513 77.3606 133.07C77.0904 132.387 76.6627 132.034 75.8672 132.042C73.6759 132.057 71.4771 131.952 69.2859 131.982C62.9597 132.057 56.6335 131.756 50.3073 131.944C48.011 132.012 45.7071 131.997 43.4183 132.102C40.7693 132.222 38.1277 132.439 35.4787 132.612C34.0528 132.71 32.627 132.807 31.2012 132.905C30.9385 132.92 30.6684 132.987 30.6008 133.272C30.5333 133.55 30.7359 133.753 30.916 133.925C31.3137 134.3 31.8165 134.368 32.3343 134.406C34.7282 134.593 37.1221 134.713 39.5235 134.608C40.3865 134.571 41.257 134.503 42.12 134.496C45.9998 134.481 49.8796 134.496 53.7593 134.496Z" fill="#003720"/>
<path d="M77.8932 77.4098C78.8162 77.4473 79.5141 76.8695 79.5741 76.044C79.6267 75.2936 78.7412 74.3555 77.9682 74.3405C77.1577 74.3255 76.5199 75.0009 76.4898 75.9239C76.4598 76.6594 77.1427 77.3798 77.8932 77.4098Z" fill="#003720"/>
<path d="M95.0708 72.3218C94.8231 71.759 94.3653 71.6539 93.825 71.6164C91.8889 71.4813 89.9528 71.3237 88.0166 71.1736C83.2214 70.8134 78.4185 70.7159 73.6233 71.2262C73.113 71.2787 72.6027 71.3162 72.0924 71.3312C71.5896 71.3462 71.4095 71.1811 71.477 70.7009C71.6496 69.4401 71.8597 68.1794 72.0548 66.9186C72.2049 65.9581 72.3775 65.005 72.5276 64.052C72.5726 63.7818 72.4976 63.5417 72.2124 63.4291C71.9498 63.3241 71.6946 63.3616 71.507 63.5567C71.2969 63.7743 71.0943 64.0145 70.9667 64.2846C70.6365 64.975 70.2913 65.6654 70.0512 66.3933C69.6009 67.7516 69.1732 69.1174 68.843 70.5132C68.6103 71.5188 68.2126 72.1042 67.0794 72.2468C65.9238 72.3893 64.7981 72.7871 63.665 73.1023C63.2747 73.2073 62.892 73.3649 62.5243 73.5375C62.2766 73.6501 62.1266 73.8752 62.2316 74.1604C62.3217 74.408 62.4943 74.6256 62.7869 74.6106C63.2447 74.5881 63.7025 74.5281 64.1527 74.4605C65.1658 74.3105 66.1639 74.1229 67.177 73.9878C67.7999 73.9052 67.9575 74.0703 67.8599 74.6331C67.4847 76.7419 67.0719 78.8506 66.9218 80.9969C66.8843 81.5822 66.6067 82.025 66.1189 82.4077C65.1508 83.1581 64.2353 83.9761 63.3122 84.7791C62.5393 85.4469 61.7889 86.1449 61.0084 86.8052C60.6482 87.1129 60.4156 87.0829 60.1004 86.7002C59.2899 85.7171 58.4794 84.734 57.699 83.7209C57.4513 83.4058 57.2787 83.0155 57.1436 82.6328C56.941 82.055 57.0536 81.5147 57.5714 81.1244C57.8115 80.9368 58.0592 80.7492 58.3368 80.6141C59.2524 80.1789 59.8527 80.3215 60.4906 81.1094C60.6482 81.3045 60.7608 81.5447 60.9108 81.7473C61.0609 81.9424 61.4512 81.8824 61.5562 81.6572C61.6238 81.5222 61.7063 81.3871 61.7213 81.237C61.8939 80.0513 61.0759 78.8956 59.8227 78.693C59.1248 78.5804 58.3669 78.5354 57.6915 78.693C56.1156 79.0382 54.8773 79.9012 54.4045 81.5447C54.2995 81.8974 54.1794 82.2126 53.9843 82.5127C52.3559 85.0492 50.855 87.6682 49.4667 90.3398C49.0914 91.0677 48.6412 91.7506 48.236 92.4635C48.1234 92.6587 47.9508 92.7862 47.7407 92.7412C47.523 92.6962 47.448 92.471 47.418 92.2684C47.3654 91.9157 47.3054 91.5555 47.3054 91.2028C47.2904 90.0246 47.2829 88.8539 47.3054 87.6757C47.3429 86.3475 47.418 85.0192 47.4855 83.6909C47.523 83.023 47.508 82.3551 47.2679 81.7248C47.1553 81.4321 46.8852 81.0719 46.615 81.177C45.9321 81.4321 45.0391 81.0044 44.5288 81.8298C44.3562 82.115 44.086 81.9274 43.8534 81.8223C42.33 81.1244 40.9117 81.2745 39.5384 82.2726C38.6379 82.9255 37.97 83.7209 37.4597 84.6815C37.0995 85.3644 36.8518 86.0848 36.6567 86.8278C36.5516 87.2255 36.4841 87.6307 36.3115 87.9984C35.4185 89.9496 34.503 91.8932 33.5949 93.8368C33.3998 94.2571 33.1221 94.6248 32.7544 94.91C32.5068 95.0976 32.2666 95.045 32.094 94.8199C31.9139 94.5798 31.7564 94.3096 31.6288 94.0395C31.1635 93.0114 30.9009 91.9232 30.6982 90.8201C30.323 88.7489 30.3005 86.6627 30.1954 84.5764C30.1354 83.3307 30.4506 82.3176 31.1635 81.2895C33.9101 77.3197 35.5461 72.8921 36.3415 68.1344C36.5141 67.1213 36.6042 66.1082 36.5817 65.0876C36.5667 64.2621 36.364 63.4741 36.0413 62.7087C35.8312 62.2209 35.5235 61.8157 35.0433 61.5905C34.1352 61.1628 32.807 61.4179 32.0565 62.1384C31.4187 62.7537 31.0134 63.5192 30.6232 64.2921C29.6626 66.2282 29.0773 68.292 28.612 70.3857C27.7865 74.0853 27.3813 77.8375 27.3363 81.6347C27.3363 82.1976 27.2762 82.7604 27.2462 83.3157C27.2312 83.6234 27.1787 83.9236 26.9911 84.1862C26.4132 84.9742 25.7303 85.6646 24.9799 86.2799C24.7473 86.4675 24.4996 86.4075 24.3345 86.1449C24.0944 85.7546 23.8693 85.3494 23.6141 84.9667C23.2689 84.4489 22.8261 83.9911 22.2258 83.8035C20.4923 83.2482 18.7963 83.2182 17.3254 84.4939C15.6219 85.9723 14.4588 87.8033 13.8884 89.9946C13.7459 90.5349 13.5958 91.0752 13.4457 91.6155C13.4082 91.7431 13.3106 91.7806 13.2055 91.7206C13.1305 91.6756 13.0329 91.6005 13.0254 91.533C12.7928 89.762 12.5677 87.9909 12.335 86.2199C12.2075 85.2593 12.0949 84.2913 11.9448 83.3307C11.8773 82.903 11.5996 82.7454 11.1643 82.7979C10.6165 82.8729 10.3914 83.023 10.3239 83.5183C10.2338 84.1712 10.1813 84.8391 10.1738 85.4995C10.1287 87.9009 10.3164 90.3023 10.489 92.6962C10.6841 95.3978 10.9692 98.0918 11.367 100.763C11.7497 103.337 12.215 105.904 12.6577 108.47C13.2431 111.892 14.016 115.284 14.8715 118.646C14.9841 119.089 15.1417 119.524 15.3068 119.952C15.4043 120.207 15.6295 120.365 15.8996 120.38C16.8527 120.432 17.5055 119.712 17.3555 118.736C16.9577 116.11 16.515 113.498 16.1398 110.864C15.7795 108.388 15.3893 105.911 15.1792 103.42C14.8865 100.005 14.849 96.5759 15.4193 93.1765C15.7195 91.4054 16.1473 89.6794 17.0703 88.1035C17.5431 87.293 18.1734 86.6251 18.8713 86.0323C19.8394 85.2218 20.9275 85.4319 21.5954 86.5201C21.8056 86.8653 21.9556 87.2555 22.1057 87.6307C22.2633 88.036 22.2108 88.4262 21.9256 88.7789C21.5129 89.2967 21.0926 89.8145 20.7174 90.3623C19.8394 91.6231 19.0815 92.9513 18.6462 94.4447C18.4586 95.0976 18.4286 95.758 18.5487 96.4183C18.7062 97.3039 19.6893 98.2044 20.4623 98.1143C21.3778 98.0168 22.2483 97.7916 22.9462 97.0787C24.0644 95.9306 24.6797 94.5423 24.8974 93.0039C25.0925 91.6456 25.3101 90.2648 25.0099 88.8915C24.8974 88.3737 25.0775 88.0059 25.4752 87.6908C25.8729 87.3756 26.2481 87.0304 26.6459 86.7077C26.8335 86.5501 27.0211 86.34 27.3363 86.5426C27.3588 86.8728 27.3738 87.233 27.3963 87.5857C27.5839 89.8895 28.0267 92.1333 28.9272 94.2721C29.2874 95.1351 29.7752 95.9005 30.4356 96.5609C30.8933 97.0112 31.4712 97.3489 32.0865 97.2063C33.2722 96.9211 34.4279 96.5534 35.0808 95.3152C35.531 94.4597 36.0489 93.6417 36.4241 92.7412C36.7468 91.9683 36.8743 91.9607 37.4222 92.5461C37.5948 92.7337 37.7674 92.9213 37.9625 93.0864C38.2026 93.289 38.4803 93.4091 38.8105 93.3866C40.1312 93.3115 41.3244 92.9513 42.1424 91.8107C42.6752 91.0677 43.1855 90.3023 43.7108 89.5518C43.9284 89.2367 44.0485 88.8389 44.3937 88.6138C44.6939 88.929 44.5738 89.2442 44.5738 89.5218C44.5813 90.5499 44.7089 91.563 44.889 92.5686C45.0241 93.3265 45.2342 94.062 45.6319 94.7299C45.9771 95.3077 46.4499 95.5929 47.1478 95.5403C48.2285 95.4653 49.129 95.0976 49.7593 94.1745C50.2171 93.4991 50.7049 92.8388 51.1401 92.1559C52.3333 90.3023 53.3239 88.3436 54.2845 86.3625C54.5021 85.9122 54.6147 85.3869 55.11 85.0867C55.23 85.1843 55.3726 85.2518 55.4552 85.3644C56.2656 86.4225 57.0761 87.4731 57.8566 88.5463C58.2918 89.1466 58.2543 89.2592 57.789 89.8895C57.3388 90.5049 56.851 91.1052 56.4608 91.7581C55.9354 92.6436 55.5827 93.6042 55.6428 94.6698C55.7253 96.1257 56.6709 97.1988 58.0367 97.4615C58.577 97.5665 59.0498 97.3489 59.5375 97.2663C61.3911 96.9662 62.5618 95.8855 62.6744 93.5442C62.7344 92.2384 62.4567 90.9927 61.9089 89.8295C61.6087 89.1916 61.7513 88.7789 62.2166 88.3511C62.892 87.7208 63.5374 87.0679 64.2128 86.445C64.8431 85.8522 65.496 85.2743 66.1414 84.6965C66.2089 84.6365 66.329 84.5914 66.4115 84.6065C66.5917 84.6365 66.6292 84.7941 66.6292 84.9517C66.6442 86.2799 66.6292 87.6082 66.6817 88.9365C66.7417 90.2197 67.0419 91.458 67.5522 92.6511C67.7773 93.1765 68.0775 93.6417 68.4678 94.0545C68.8955 94.4972 69.3908 94.6323 69.9986 94.4822C71.1843 94.182 72.1749 93.5892 72.8503 92.5536C73.3531 91.7881 73.7808 90.9702 74.2386 90.1747C74.4112 89.882 74.4562 89.4993 74.8089 89.3192C75.0716 89.4993 74.9665 89.7695 74.9891 89.9946C75.0941 91.0152 75.2667 92.0133 75.5219 93.0114C75.6644 93.5667 75.8821 94.077 76.2348 94.5272C76.5725 94.97 77.0077 95.1501 77.5781 95.03C78.6737 94.7974 79.5967 94.3246 80.2196 93.3566C80.5198 92.8913 80.8575 92.4635 81.2627 91.9007C81.4503 92.6286 81.5779 93.214 81.7505 93.7768C82.1933 95.1651 82.8386 96.4258 84.0243 97.3339C84.6021 97.7766 85.21 98.1444 85.998 97.7916C86.2231 97.6941 86.5008 97.6866 86.7484 97.6866C87.6189 97.7016 88.3618 97.3189 88.9997 96.8236C89.8777 96.1332 90.7257 95.3752 91.3561 94.4372C92.5268 92.6962 93.5474 90.8651 94.2753 88.8915C94.3954 88.5613 94.4929 88.2086 94.5454 87.8559C94.6055 87.4656 94.2978 87.173 93.9076 87.1805C93.2997 87.1805 92.872 87.3981 92.5718 87.9909C91.5062 90.0396 90.1404 91.8857 88.6095 93.6192C88.0992 94.197 87.5439 94.7224 86.9135 95.1651C86.3732 95.5478 86.013 95.4878 85.6077 94.97C85.4501 94.7674 85.3151 94.5498 85.2025 94.3246C84.6997 93.304 84.4145 92.2309 84.3845 91.0827C84.3545 89.8445 84.5121 88.6288 84.8273 87.4431C85.3076 85.6646 86.2156 84.1562 87.8215 83.1431C88.2943 82.8504 88.4819 82.8354 88.9172 83.2031C89.2699 83.4958 89.6001 83.8185 89.9077 84.1562C90.1179 84.3813 90.253 84.6665 90.4706 84.8841C90.6582 85.0792 90.9208 85.0942 91.1835 85.0042C91.4086 84.9216 91.4912 84.734 91.5212 84.5314C91.7163 83.2782 91.0259 81.7473 89.9077 81.1319C88.4819 80.344 87.0111 80.5841 85.6828 81.312C84.6172 81.8899 83.7016 82.7454 83.0788 83.8335C82.3283 85.1618 81.5629 86.4901 80.835 87.8333C80.2496 88.914 79.7243 90.0171 79.139 91.0977C78.8238 91.6681 78.5536 92.2834 77.8182 92.8463C77.6831 92.4035 77.5706 92.1258 77.518 91.8407C77.4505 91.488 77.413 91.1278 77.4055 90.7751C77.4055 89.4993 77.3529 88.2161 77.4355 86.9403C77.5555 85.1543 77.7882 83.3832 77.9533 81.6047C77.9983 81.0944 78.0283 80.5841 77.9833 80.0738C77.9158 79.3684 77.6306 79.1508 76.8877 79.1433C76.0096 79.1358 75.8145 79.2633 75.5744 80.0738C75.4468 80.5166 75.3493 80.9668 75.2517 81.4171C74.6138 84.3213 73.6533 87.1204 72.3475 89.792C71.9423 90.625 71.4395 91.3904 70.7791 92.0508C70.3213 92.5086 70.0287 92.426 69.8486 91.7581C69.781 91.5105 69.751 91.2553 69.6985 91.0077C69.2482 88.8765 69.3683 86.7302 69.5334 84.5915C69.6684 82.8054 69.8486 81.0269 70.0662 79.2558C70.2613 77.6349 70.5164 76.014 70.7716 74.4005C70.9067 73.515 70.9592 73.5075 71.8072 73.3724C73.5332 73.0872 75.2742 73.1623 77.0077 73.0197C80.0245 72.7721 83.0412 73.0197 86.043 73.2373C88.5945 73.4174 91.146 73.5 93.6975 73.47C94.0051 73.47 94.3128 73.4475 94.613 73.3949C95.1758 73.2974 95.3184 72.9146 95.0783 72.3593L95.0708 72.3218ZM31.1485 73.1248C31.5988 70.7684 32.019 68.4045 32.8445 66.1382C33.0696 65.5153 33.3023 64.8925 33.6625 64.3296C33.7375 64.2096 33.8876 64.0745 34.0077 64.067C34.2478 64.0595 34.3003 64.3071 34.3529 64.4872C34.548 65.1851 34.4954 65.9056 34.5105 66.8136C34.4129 69.4701 33.685 72.1642 32.6794 74.8057C32.1841 76.0965 31.6063 77.3422 30.9234 78.5429C30.8858 78.6105 30.7508 78.663 30.6682 78.648C30.6157 78.648 30.5256 78.5054 30.5331 78.4454C30.8483 76.6893 30.8258 74.8883 31.1635 73.1323L31.1485 73.1248ZM21.5879 95.6079C21.4528 95.818 21.2652 95.9981 21.0851 96.1707C20.935 96.3133 20.7324 96.4183 20.5373 96.2983C20.4247 96.2307 20.3572 96.0656 20.3047 95.9231C20.1771 95.5703 20.2371 95.2101 20.3572 94.8724C20.8525 93.4841 21.5804 92.2234 22.5185 91.0452C22.7061 92.6962 22.4584 94.2196 21.5879 95.6004V95.6079ZM43.5532 84.2913C42.6827 86.1824 41.8647 88.1035 40.589 89.777C40.4314 89.9796 40.2663 90.1747 40.0787 90.3398C39.9736 90.4299 39.801 90.5199 39.681 90.4974C39.5684 90.4749 39.4333 90.3098 39.4108 90.1822C39.3433 89.7845 39.3133 89.3717 39.2907 89.1466C39.2907 87.2855 39.7635 85.7621 40.8216 84.4414C41.1443 84.0361 41.5345 83.7284 41.9773 83.4658C42.5026 83.1506 42.9454 83.2707 43.3731 83.6234C43.5907 83.8035 43.6733 84.0286 43.5532 84.2913ZM59.9353 94.0995C59.9203 94.4747 59.7477 94.7824 59.4925 95.045C58.9597 95.5779 58.1417 95.3827 57.9091 94.6698C57.8115 94.3697 57.8115 94.062 57.9241 93.7693C58.2243 92.9513 58.5995 92.1859 59.3724 91.488C59.9878 92.381 59.9803 93.2365 59.9428 94.0995H59.9353Z" fill="#003720"/>
<path d="M63.4248 64.675C63.2522 64.5474 63.0345 64.5024 62.8544 64.6225C62.5092 64.8401 62.2015 65.1102 61.8488 65.3204C61.2335 65.6806 60.6106 66.0333 59.9727 66.341C59.605 66.5211 59.2373 66.3335 59.1172 65.9582C59.0047 65.6205 58.9296 65.2678 58.8396 64.9226C58.697 64.3748 58.4343 63.8945 58.0891 63.4293C57.3087 62.3787 55.1774 62.4087 54.472 63.5568C54.2319 63.9471 53.9167 64.2923 53.8267 64.765C53.7891 64.9602 53.7516 65.2378 53.6165 65.3204C52.8136 65.8082 52.7685 66.6712 52.5209 67.4366C52.0031 69.0425 51.4853 70.641 50.6673 72.1268C50.2996 72.8022 49.8944 73.4476 49.3691 74.0104C48.9788 74.4307 48.5586 74.3782 48.2359 73.8829C47.8982 73.3576 47.7631 72.7572 47.628 72.1644C47.1778 70.1457 47.3429 68.097 47.3279 66.0633C47.3279 65.613 47.5155 65.2979 47.9207 65.0802C48.8663 64.5774 49.8043 64.0596 50.7424 63.5418C51.1026 63.3467 51.4553 63.1441 51.793 62.919C52.0031 62.7764 52.1907 62.5438 52.1007 62.2736C51.9956 61.9584 51.7104 61.8158 51.3877 61.7933C51.0125 61.7633 50.6973 61.9659 50.3821 62.116C49.5942 62.4837 48.8212 62.8739 48.0333 63.2342C47.6956 63.3842 47.3879 63.1516 47.4705 62.7914C47.5905 62.2886 47.613 61.7783 47.598 61.268C47.5755 60.6301 47.2979 60.2324 46.9001 60.2699C46.4424 60.315 46.3673 60.7202 46.2923 61.0504C46.1197 61.7933 45.917 62.5437 45.872 63.3017C45.827 64.0746 45.4518 64.4799 44.7989 64.8026C43.8383 65.2828 42.9453 65.8682 41.9397 66.2659C41.7521 66.341 41.5945 66.5136 41.6546 66.7462C41.7071 66.9563 41.8722 67.0764 42.0673 67.1514C42.375 67.264 42.6677 67.204 42.9603 67.1064C43.5907 66.8963 44.2211 66.6862 44.8514 66.4835C45.2867 66.3485 45.5118 66.5436 45.4818 67.0164C45.4818 67.0689 45.4818 67.1214 45.4818 67.1664C45.0315 68.8474 45.4068 70.5134 45.5944 72.1794C45.6844 72.9898 45.9621 73.7703 46.3373 74.4982C46.7801 75.3687 47.4329 75.8865 48.5136 75.8865C49.4591 75.8865 50.202 75.6839 50.8174 74.9485C51.1476 74.5583 51.4928 74.183 51.7479 73.7403C51.9205 73.4401 52.0106 73.0649 52.4684 72.8773C52.6935 73.305 52.9111 73.7478 53.1588 74.1755C53.8642 75.3837 55.0199 75.7514 56.3031 75.1811C56.7834 74.971 57.1586 74.6558 57.4813 74.2356C58.5769 72.8097 59.1022 71.1588 59.2298 69.4103C59.2973 68.5022 59.635 68.0144 60.4305 67.7143C61.301 67.3841 61.9989 66.7687 62.7494 66.2434C63.0871 66.0108 63.3947 65.7331 63.5598 65.3429C63.6649 65.0877 63.6649 64.8401 63.4248 64.66V64.675ZM55.7553 64.675C55.8754 64.4424 56.063 64.2623 56.3331 64.2322C56.6183 64.2097 56.7909 64.4048 56.9185 64.63C57.2036 65.1478 57.4738 66.1158 57.4888 66.6561C57.5038 67.1739 57.1586 67.4141 56.7083 67.204C55.7178 66.7537 55.2825 65.6055 55.7628 64.6675L55.7553 64.675ZM55.7328 73.7478C55.4551 74.0029 55.1624 73.9504 54.9748 73.6352C54.6296 73.0649 54.367 72.4645 54.3745 71.7816C54.3745 71.2788 54.3745 70.7685 54.3745 70.2658C54.3745 70.2658 54.3595 70.2658 54.352 70.2658C54.382 69.7104 54.397 69.1551 54.4495 68.5998C54.4795 68.2471 54.8097 68.067 55.1099 68.2621C55.6877 68.6448 56.3106 68.7724 56.9785 68.7799C57.2562 68.7799 57.4963 68.93 57.4888 69.2301C57.4363 70.9411 57.061 72.5321 55.7328 73.7478Z" fill="#003720"/>
<path d="M57.7891 116.905C57.7891 117.776 57.7666 118.646 57.7891 119.509C57.8266 120.642 58.0742 121.738 58.4494 122.804C58.8247 123.877 59.425 124.822 60.3105 125.565C60.8358 126.008 61.3837 126.113 62.014 125.858C63.3273 125.325 64.4004 124.567 65.0683 123.246C66.4266 120.567 66.9669 117.656 67.5823 114.759C67.7999 113.738 67.2446 113.108 66.1639 113.003C65.3535 112.928 64.528 112.943 63.7175 113.018C63.1697 113.07 62.6219 113.258 62.1041 113.461C61.4287 113.731 61.3086 114.421 61.7889 114.954C62.1191 115.314 62.5393 115.472 63.0046 115.539C63.4098 115.592 63.8151 115.607 64.2203 115.659C64.528 115.697 64.6631 115.907 64.588 116.2C64.1378 118.031 63.7701 119.892 62.9371 121.603C62.7344 122.016 62.4943 122.406 62.2467 122.796C62.044 123.111 61.6913 123.096 61.5187 122.789C61.076 122.023 60.8959 121.175 60.7608 120.312C60.4531 118.218 60.5957 116.14 60.8133 114.054C61.0234 111.997 61.5863 110.046 62.5468 108.223C63.0721 107.225 63.74 106.324 64.618 105.589C65.0608 105.213 65.5411 105.191 66.0439 105.416C66.4191 105.589 66.7418 105.836 67.0044 106.166C67.192 106.407 67.3646 106.662 67.5523 106.902C67.7249 107.12 67.935 107.232 68.2126 107.119C68.4303 107.029 68.4753 106.812 68.4753 106.609C68.4603 105.656 68.1376 104.838 67.4922 104.103C66.7793 103.285 65.8938 102.94 64.8882 103.21C63.8751 103.487 62.8545 103.773 62.0215 104.538C60.3856 106.039 59.4025 107.907 58.7196 109.964C57.9692 112.215 57.639 114.526 57.7741 116.898L57.7891 116.905Z" fill="#003720"/>
<path d="M76.4748 121.108C76.3698 119.765 76.2422 117.949 75.6794 116.17C74.9965 113.986 74.4937 111.75 73.8708 109.544C73.3605 107.735 74.1935 106.489 75.5143 105.439C75.822 105.191 76.1672 105.229 76.4898 105.491C77.1277 106.009 77.4054 106.699 77.4429 107.502C77.4729 108.11 77.4879 108.726 77.5329 109.333C77.5555 109.649 77.9832 109.769 78.2534 109.581C78.471 109.424 78.6136 109.228 78.7111 108.981C79.1839 107.758 79.379 106.482 78.8837 105.244C78.2684 103.683 77.4504 103.067 75.8895 103.157C75.0865 103.202 74.4487 103.585 73.7658 103.93C72.1898 104.733 71.3418 106.032 70.9816 107.728C70.7115 109.011 70.8766 110.279 71.1392 111.525C71.4544 112.973 71.8446 114.399 72.2799 115.817C72.9403 117.971 73.3905 120.162 73.6007 122.406C73.6832 123.299 73.5932 124.155 73.1129 124.905C72.5275 125.813 71.702 125.738 71.2593 124.77C71.1542 124.537 71.0342 124.29 71.0342 124.042C71.0342 122.339 70.3137 120.635 70.9816 118.917C71.1242 118.541 70.734 118.219 70.3438 118.324C69.3457 118.586 68.7603 119.247 68.5952 120.237C68.2801 122.136 68.4151 124.005 69.1431 125.806C69.3157 126.226 69.5783 126.616 69.871 126.969C70.2762 127.457 70.8015 127.697 71.4694 127.727C73.308 127.809 75.3942 126.481 76.0546 124.762C76.4448 123.742 76.5199 122.676 76.4673 121.108H76.4748Z" fill="#003720"/>
<path d="M38.8706 114.031C40.2664 112.981 41.4446 111.712 42.5627 110.384C43.6658 109.071 44.4763 107.622 44.3562 105.814C44.2662 104.365 43.1255 102.91 41.7372 102.587C41.0994 102.437 40.439 102.309 39.7861 102.294C38.3603 102.257 36.9419 102.257 35.5311 102.069C34.9833 101.994 34.6681 102.242 34.4505 102.715C34.1728 103.322 33.9927 103.96 33.8651 104.613C33.5274 106.317 33.3473 108.035 33.1372 109.761C32.6945 113.423 32.6344 117.085 33.0021 120.748C33.1447 122.166 33.4074 123.569 33.9177 124.912C34.1578 125.543 34.488 126.106 34.9308 126.616C35.261 126.991 35.7187 127.201 36.1615 127.081C37.1821 126.804 38.2477 126.526 39.0056 125.715C39.591 125.085 40.1538 124.417 40.6341 123.704C41.2644 122.774 41.7522 121.768 41.9699 120.642C42.4201 118.376 41.5121 116.252 39.3884 115.329C39.0206 115.172 38.6079 115.074 38.2777 114.654C38.5178 114.406 38.6679 114.189 38.863 114.039L38.8706 114.031ZM39.8461 120.507C39.7336 120.995 39.561 121.49 39.3283 121.933C38.773 122.961 38.1651 123.959 37.2421 124.71C36.7993 125.07 36.5067 125.01 36.3191 124.5C35.9889 123.592 35.7788 122.646 35.6962 121.686C35.6362 120.928 35.5836 120.17 35.5311 119.404C35.5086 119.404 35.4936 119.404 35.4711 119.404C35.4711 118.594 35.4561 117.783 35.4711 116.973C35.4786 116.628 35.7863 116.41 36.1089 116.523C36.8219 116.778 37.5873 116.868 38.2702 117.228C39.561 117.911 40.1613 119.104 39.8386 120.507H39.8461ZM36.0714 113.303C36.0039 113.356 35.8913 113.333 35.6962 113.363C35.6287 112.56 35.6662 111.757 35.7187 110.969C35.8163 109.491 35.9363 108.02 36.0639 106.542C36.1014 106.084 36.184 105.634 36.229 105.176C36.274 104.741 36.5442 104.583 36.9419 104.546C37.3472 104.508 37.7449 104.456 38.1576 104.576C38.5479 104.696 38.9606 104.733 39.3658 104.658C39.4634 104.643 39.576 104.613 39.666 104.636C41.4821 104.943 41.9849 106.031 41.362 107.442C41.0768 108.088 40.7016 108.741 40.2213 109.251C38.8931 110.662 37.6248 112.133 36.0789 113.318L36.0714 113.303Z" fill="#003720"/>
<path d="M54.5921 123.254C54.4796 121.423 54.3445 119.389 54.2319 117.348C54.0894 114.797 53.9468 112.253 53.8267 109.701C53.7442 108.02 53.7892 106.332 53.459 104.666C53.3539 104.11 53.2639 103.555 52.8436 103.135C52.701 102.992 52.536 102.842 52.3483 102.79C51.5529 102.587 50.7124 103.007 50.3597 103.773C50.1646 104.193 49.9995 104.621 49.8569 105.056C48.6562 108.748 47.3354 112.395 46.3148 116.147C45.7145 118.361 45.0541 120.568 44.6038 122.819C44.4763 123.472 44.2961 124.117 44.3637 124.793C44.4087 125.243 44.6489 125.596 44.919 125.618C45.3092 125.648 45.6244 125.46 45.8496 125.183C45.9996 124.995 46.0522 124.725 46.1272 124.485C46.5174 123.269 46.9002 122.053 47.2754 120.83C47.3504 120.583 47.433 120.342 47.7256 120.282C48.9263 120.042 50.1045 119.72 51.2602 119.314C51.5229 119.224 51.778 119.374 51.8305 119.675C51.8981 120.072 51.9206 120.485 51.9356 120.89C51.9731 121.806 51.9731 122.729 52.0332 123.644C52.0782 124.252 52.1382 124.875 52.536 125.385C52.6935 125.588 52.8812 125.821 53.1588 125.753C53.6466 125.648 54.1644 125.558 54.367 124.965C54.5321 124.477 54.6747 123.99 54.5771 123.262L54.5921 123.254ZM51.5979 117.536C50.9075 117.671 50.2621 117.783 49.6168 117.919C48.1009 118.234 48.0934 118.234 48.5811 116.695C49.2866 114.512 50.007 112.328 50.7199 110.144C50.8099 109.859 50.885 109.566 51.3127 109.221C51.2452 112.08 51.7705 114.767 51.5904 117.536H51.5979Z" fill="#003720"/>
</svg>
