<svg width="49" height="49" viewBox="0 0 49 49" fill="none" xmlns="http://www.w3.org/2000/svg">
<path d="M38.8488 9.90622C38.5711 9.92123 38.5111 10.1764 38.3985 10.3565C37.8882 11.167 37.4004 11.9924 36.8901 12.8104C36.2673 13.7935 34.969 14.6565 33.8659 14.9867C33.3631 15.1368 32.9729 15.0392 32.5751 14.7916C32.0273 14.4389 31.6146 13.9586 31.2694 13.4033C30.4214 12.0375 30.1137 10.5216 30.1512 8.95316C30.1962 7.1221 30.4139 5.30604 30.8191 3.52C30.8791 3.25734 30.9467 2.98719 31.0517 2.73204C31.1943 2.40185 31.6221 2.19172 31.9598 2.25176C32.29 2.31179 32.395 2.58946 32.4401 2.85211C32.6727 4.11284 32.7252 5.39609 32.7778 6.67183C32.8303 7.90255 32.7627 9.14077 33.0479 10.3565C33.183 10.9343 33.3406 11.5047 33.6483 12.0149C33.8284 12.3151 34.061 12.3376 34.3011 12.09C34.9015 11.4521 35.3518 10.6942 35.7195 9.92123C36.7175 7.86503 37.6106 5.77131 38.3235 3.60255C38.4961 3.08474 38.7062 2.58195 38.6462 2.01162C38.6162 1.73396 38.8188 1.53134 39.0814 1.37375C39.6743 1.02104 40.3046 1.05106 40.9425 1.16362C41.1826 1.20865 41.3177 1.40376 41.4228 1.61389C41.6029 1.99661 41.6329 2.40935 41.6329 2.82209C41.6329 6.93449 41.9856 11.0469 41.828 15.1593C41.7605 16.8478 41.6554 18.5513 41.2802 20.1947C40.8074 22.2809 39.8769 24.142 38.0383 25.4103C37.0853 26.0706 36.0722 26.2883 34.9315 25.9281C33.5732 25.4928 32.6127 24.6448 32.1324 23.324C31.517 21.6431 31.1868 19.887 31.1943 18.0935C31.1943 17.3581 31.3894 17.1629 32.1174 16.9753C32.35 16.9153 32.5826 16.8928 32.7853 16.9903C33.2355 17.2005 33.8359 16.8328 34.1811 17.3355C34.4587 17.7408 34.2786 18.2286 34.3161 18.6788C34.4362 20.0446 34.6088 21.4029 35.2617 22.6486C35.3893 22.8963 35.5168 23.1289 35.7345 23.309C36.1022 23.6092 36.4849 23.5942 36.8301 23.279C37.8357 22.3335 38.3385 21.1403 38.5936 19.797C39.0739 17.268 39.179 14.724 39.1189 12.1575C39.1039 11.5647 39.0739 10.9718 39.0364 10.379C39.0289 10.2139 39.0589 10.0188 38.8413 9.93624L38.8488 9.90622Z" fill="#003720"/>
<path d="M12.831 0.540713C14.9322 0.368112 16.1479 1.59883 17.1685 3.05468C17.6863 3.79011 18.039 4.65311 18.1966 5.57615C18.2791 6.07894 18.3242 6.57423 18.2716 7.07702C18.1666 8.00006 17.8364 8.7505 16.8383 9.02065C16.5006 9.11071 16.2455 9.49343 15.8327 9.32833C15.3825 9.14072 15.1423 8.758 14.9547 8.33025C14.7821 7.94753 14.7446 7.54229 14.6695 7.13706C14.5044 6.24404 14.3919 5.33601 14.0092 4.48801C13.6865 3.7826 13.1987 3.45241 12.4332 3.38487C10.6622 3.21977 9.23637 4.58557 9.17634 6.31908C9.13131 7.71489 9.6341 8.91559 10.3545 10.0488C11.6078 12.0074 12.9135 13.936 14.1667 15.8947C15.0823 17.3205 15.7802 18.8589 16.1479 20.5249C16.2079 20.795 16.2605 21.0652 16.3055 21.3353C16.5756 22.9113 16.0353 24.262 14.8947 25.2751C14.0992 25.988 13.2587 26.6935 12.1931 27.0687C11.3526 27.3688 10.5121 27.4889 9.67162 27.2563C7.51787 26.6634 5.97197 25.3202 5.06394 23.279C4.61368 22.2584 4.41106 21.1852 4.58366 20.0671C4.75626 18.8889 5.73183 17.8908 6.90251 17.7107C7.03009 17.6882 7.18768 17.7182 7.29274 17.7858C7.65295 17.9884 7.96063 18.221 8.16325 18.6263C8.54597 19.3842 8.71106 20.1947 8.65853 21.0201C8.56848 22.4535 9.2814 23.4591 10.2795 24.3371C10.8873 24.8699 11.8104 24.9224 12.4032 24.3596C13.3037 23.5041 13.8215 22.536 13.4463 21.1777C12.846 19.0165 11.7053 17.1704 10.4146 15.3844C9.2889 13.8235 8.2533 12.21 7.36778 10.499C6.58733 9.00565 6.24212 7.40721 6.51979 5.71873C6.64736 4.92327 6.67738 4.06026 7.48785 3.54997C7.64544 2.9271 8.20827 2.64944 8.606 2.2292C9.7992 0.975966 11.2626 0.510695 12.8535 0.548217L12.831 0.540713Z" fill="#003720"/>
<path d="M21.4311 17.4705C21.0034 18.4311 21.0184 19.4592 20.7708 20.4272C20.6507 20.915 20.6057 21.4178 20.5156 21.9131C20.3955 22.551 19.7577 23.1363 19.2324 23.0988C18.3243 23.0237 17.694 22.4609 17.679 21.6729C17.679 21.4028 17.6865 21.1251 17.7465 20.855C18.2118 18.5736 18.647 16.2923 19.1723 14.026C19.7727 11.4445 20.7032 8.96804 21.5362 6.45408C21.8964 5.37345 22.1516 4.2628 22.6919 3.24221C22.857 2.92702 23.0146 2.70189 23.3973 2.7169C23.4873 2.7169 23.5999 2.74692 23.6674 2.70189C24.0652 2.46175 24.4629 2.31166 24.9357 2.5368C25.4235 2.76943 25.7086 3.18217 25.8962 3.65495C26.264 4.58549 26.5866 5.54605 26.7367 6.53663C26.8793 7.48218 27.0294 8.42773 27.1195 9.38078C27.3746 11.9698 27.6223 14.5588 27.8399 17.1478C27.9825 18.8288 28.05 20.5173 28.1776 22.2058C28.2301 22.8812 28.1776 23.489 27.4872 23.8417C27.4121 23.8792 27.3521 23.9618 27.2845 24.0218C27.0969 24.2019 27.0219 24.5396 26.6767 24.5021C26.2865 24.4646 26.0163 24.2094 25.7987 23.9017C25.4985 23.474 25.4535 22.9787 25.4235 22.4684C25.3409 21.0576 25.2434 19.6468 25.1458 18.2359C25.1083 17.7557 25.0332 17.6656 24.568 17.7106C23.5174 17.8232 22.4968 17.5756 21.4461 17.463L21.4311 17.4705ZM23.9451 7.5197C23.0821 9.98864 22.3842 12.315 21.9339 14.7314C22.8194 14.904 23.5999 14.6639 24.3879 14.6038C24.6505 14.5813 24.8006 14.4312 24.7781 14.1611C24.7256 13.5307 24.688 12.8928 24.6055 12.2625C24.4179 10.7466 24.3804 9.20068 23.9451 7.5197Z" fill="#003720"/>
<path d="M19.6524 38.3628C19.7125 37.86 19.7875 37.2897 19.8551 36.7269C20.0727 34.8658 20.2903 33.0047 20.5154 31.1436C20.5305 31.0085 20.5605 30.8734 20.583 30.7384C20.8606 29.275 21.3784 28.7947 22.8418 28.6672C23.172 28.6371 23.5172 28.8698 23.5172 29.2C23.5172 29.7928 23.5172 30.3932 23.4346 30.9785C23.0519 33.8827 22.6092 36.7719 22.2565 39.6761C21.9563 42.1225 21.5736 44.5689 21.5961 47.0454C21.5961 47.3605 21.6411 47.7133 21.3034 47.9009C20.8531 48.156 20.3579 48.2461 19.8551 48.081C19.6224 48.0059 19.5174 47.7733 19.4573 47.5557C18.8795 45.582 18.069 43.6909 17.3186 41.7773C16.313 39.2258 15.3674 36.6518 14.1517 34.1904C14.0092 33.9052 13.8516 33.6275 13.7015 33.3424C13.6489 33.2373 13.5664 33.2073 13.4763 33.2748C13.4163 33.3199 13.3488 33.3949 13.3413 33.4625C13.3112 33.6426 13.3037 33.8227 13.2812 34.0103C12.8235 38.1077 12.7934 42.2276 12.6734 46.34C12.6659 46.7077 12.6584 47.0754 12.6283 47.4356C12.6058 47.6907 12.4708 47.8558 12.2006 47.8784C12.1556 47.8784 12.1105 47.8784 12.0655 47.8784C10.2044 47.9234 9.9718 47.6682 10.0543 46.0173C10.1294 44.4639 10.242 42.9105 10.3845 41.3646C10.5947 39.0907 10.8798 36.8169 11.0749 34.5431C11.1725 33.4024 11.135 32.2542 11.165 31.1136C11.18 30.4682 11.2776 30.3556 11.9154 30.153C12.088 30.1005 12.2681 30.0555 12.4482 30.0104C14.2643 29.5527 15.0448 29.8153 16.0879 31.3312C17.1535 32.8846 17.9715 34.5581 18.5418 36.3591C18.7369 36.967 19.0146 37.5448 19.2697 38.1302C19.3147 38.2352 19.3598 38.4153 19.6599 38.3178L19.6524 38.3628Z" fill="#F5BF3F"/>
<path d="M36.5598 34.1977C37.3403 33.3047 38.1207 32.6743 38.4584 31.6762C38.616 31.2185 39.0137 30.9558 39.4565 30.7982C39.8617 30.6556 40.297 30.8282 40.5221 31.2035C40.8448 31.7513 40.8448 32.3366 40.6722 32.9295C40.1994 34.5279 39.389 35.8712 37.768 36.5241C37.3478 36.6892 37.2352 36.9293 37.2577 37.357C37.3027 38.2276 37.3553 39.0981 37.3102 39.9611C37.1902 42.0023 36.6874 43.9309 35.3516 45.5518C33.9408 47.2628 32.0947 48.0658 29.9109 47.8407C28.4025 47.6906 27.1943 46.8126 26.1963 45.6869C24.6879 43.9909 24.1326 41.9422 24.1551 39.7284C24.1701 38.3101 24.4102 36.9143 24.808 35.541C25.1832 34.2728 25.806 33.1996 26.8416 32.3741C27.4795 31.8638 28.0273 31.2935 28.4401 30.5431C29.3031 28.9597 31.2392 28.697 32.6275 29.4174C34.1284 30.1904 35.3141 31.3085 35.9595 32.9145C36.1095 33.2972 36.3047 33.6574 36.5598 34.1902V34.1977ZM28.2975 33.6199C28.2224 33.6574 28.1699 33.6724 28.1399 33.7024C28.0348 33.845 27.9223 33.9876 27.8472 34.1452C26.9017 36.0888 26.6615 38.145 26.9242 40.2762C27.0593 41.4169 27.2919 42.5201 27.8847 43.5256C28.2825 44.201 28.7553 44.8014 29.4832 45.1616C30.2336 45.5293 30.9465 45.5818 31.667 45.0866C33.3254 43.9534 34.0533 42.2799 34.361 40.3813C34.4736 39.7134 34.4361 39.0155 34.4211 38.3326C34.391 36.8768 34.4286 37.1844 33.2729 36.9443C32.4474 36.7792 31.7195 36.479 31.0066 36.0663C29.9259 35.4359 29.0329 34.6104 28.2975 33.6274V33.6199ZM33.8657 34.7755C33.8507 34.6855 33.8357 34.5954 33.8132 34.5129C33.4605 33.1696 32.6951 32.1265 31.5769 31.3235C31.1792 31.0384 30.954 31.0909 30.6914 31.4961C30.4362 31.8864 30.4738 32.2841 30.6163 32.6818C31.1041 34.1077 32.3048 34.6405 33.6106 35.0157C33.7757 35.0607 33.8432 34.9331 33.8582 34.783L33.8657 34.7755Z" fill="#F5BF3F"/>
<path d="M6.41469 36.3366C4.5386 36.0365 2.60247 35.4736 1.1091 33.9202C0.981527 33.7851 0.861458 33.6501 0.928998 33.4474C1.00404 33.2148 1.16163 33.0272 1.40177 33.0197C1.76198 33.0122 2.1297 33.0347 2.4749 33.1173C3.63057 33.3874 4.67368 33.9427 5.71679 34.4981C6.24209 34.7757 6.7674 35.0159 7.14262 35.4961C7.2852 35.6762 7.44279 35.8488 7.31522 36.0965C7.19515 36.3366 6.96251 36.3441 6.72988 36.3516C6.68485 36.3516 6.63983 36.3516 6.4222 36.3366H6.41469Z" fill="#003720"/>
<path d="M1.92697 45.2143C1.49922 45.2143 1.30411 44.8916 1.08648 44.6065C0.921388 44.3813 0.996431 44.1787 1.17654 44.0136C1.55175 43.6759 2.00952 43.4583 2.47479 43.2932C3.54041 42.9105 4.60604 42.5428 5.68667 42.1901C6.20447 42.0175 6.74478 42.3101 6.96241 42.8429C6.99242 42.918 6.98492 43.0306 6.9474 43.0981C6.88737 43.2182 6.80482 43.3457 6.69976 43.4133C5.29644 44.2613 3.8631 45.0267 2.19713 45.1993C2.10708 45.2068 2.01703 45.2143 1.92697 45.2218V45.2143Z" fill="#003720"/>
<path d="M4.23093 40.7942C3.27787 40.7867 2.33983 40.6816 1.40928 40.434C0.951517 40.3139 0.711377 40.0588 0.501255 39.7061C0.351167 39.4584 0.486246 39.2558 0.673855 39.1282C1.06408 38.8581 1.51434 38.8055 1.97211 38.798C3.16531 38.783 4.31347 39.0457 5.46164 39.3083C5.70178 39.3609 5.85938 39.4959 5.97945 39.6986C6.11453 39.9237 6.36217 40.1038 6.24961 40.419C6.13704 40.7342 5.85187 40.7717 5.58171 40.7867C5.13145 40.8092 4.67369 40.7867 4.22342 40.7867L4.23093 40.7942Z" fill="#003720"/>
<path d="M47.7414 34.603C48.0265 34.603 48.2892 35.0758 48.1241 35.3384C47.9815 35.5636 47.8164 35.7962 47.6063 35.9613C46.4881 36.8243 45.325 37.6047 43.9742 38.07C43.5239 38.2276 42.9536 38.025 42.7059 37.5897C42.6534 37.4997 42.6909 37.3196 42.7509 37.222C42.8485 37.0719 42.9836 36.9444 43.1262 36.8393C44.4394 35.8262 45.9553 35.2184 47.4862 34.648C47.5688 34.618 47.6663 34.6255 47.7414 34.6105V34.603Z" fill="#003720"/>
<path d="M41.4753 43.5707C41.7904 43.6458 42.2107 43.6833 42.5784 43.8334C43.4564 44.2011 44.3119 44.6063 45.1674 45.0266C45.4 45.1466 45.5877 45.3718 45.7903 45.5519C46.0154 45.7545 46.1205 45.9946 45.9704 46.2723C45.8278 46.5349 45.5726 46.6325 45.2875 46.64C45.1974 46.64 45.0999 46.6475 45.0173 46.6175C43.5465 46.0321 41.9931 45.6194 40.7698 44.5388C40.7023 44.4787 40.6048 44.4337 40.5747 44.3587C40.5222 44.2461 40.4772 44.1035 40.4922 43.9834C40.5147 43.7883 40.6648 43.6608 40.8524 43.6307C41.0325 43.6007 41.2126 43.5932 41.4828 43.5707H41.4753Z" fill="#003720"/>
<path d="M44.687 40.0588C45.3249 40.0964 45.7752 40.1264 46.2254 40.1489C46.4731 40.1639 46.6307 40.314 46.7807 40.4941C47.141 40.9444 47.0359 41.3346 46.5106 41.5522C46.0828 41.7323 45.6326 41.8074 45.1823 41.8074C44.4169 41.8149 43.6439 41.7773 42.8785 41.7548C42.5933 41.7473 42.3457 41.6423 42.143 41.4546C41.9479 41.2745 41.6703 41.0869 41.7228 40.8018C41.7828 40.4416 42.1205 40.344 42.4507 40.3065C43.2612 40.2164 44.0717 40.1264 44.702 40.0588H44.687Z" fill="#003720"/>
</svg>
