<svg width="109" height="154" viewBox="0 0 109 154" fill="none" xmlns="http://www.w3.org/2000/svg">
<path d="M45.3822 147.469C44.4851 147.364 43.6364 147.267 42.7796 147.17C41.4945 147.017 40.2416 146.702 39.0292 146.241C35.6426 144.956 34.0826 142.288 33.4845 138.918C33.3148 137.948 33.5815 136.994 34.123 136.146C34.3493 135.79 34.608 135.45 34.9071 135.022C34.511 134.666 34.0422 134.618 33.5977 134.513C31.9003 134.109 30.5666 133.179 29.5482 131.773C29.4512 131.643 29.3462 131.522 29.2734 131.377C28.1418 129.017 27.7296 126.584 28.5621 124.038C29.4836 121.209 31.8518 120.594 34.2362 121.645C35.9659 122.405 37.6956 123.124 39.4819 123.73C43.1191 124.959 46.8695 125.614 50.6602 126.147C55.5422 126.834 60.3352 126.244 65.104 125.315C68.9676 124.555 72.726 123.423 76.2662 121.661C77.22 121.184 78.2465 121.12 79.2649 121.281C80.4127 121.459 81.1482 122.259 81.714 123.213C81.8756 123.488 81.9646 123.803 82.0696 124.11C83.1285 127.158 82.11 131.142 79.7903 133.131C78.9497 133.85 77.9879 134.278 76.929 134.545C76.5653 134.634 76.2097 134.755 75.8864 134.844C75.7166 135.273 76.0076 135.483 76.1854 135.717C77.2119 137.067 77.3736 138.546 76.8886 140.138C76.1854 142.482 74.9973 144.487 72.7907 145.691C71.3115 146.499 69.695 146.928 68.03 147.146C67.4399 147.227 66.8499 147.275 66.2679 147.356C65.9527 147.397 65.589 147.38 65.3465 147.542C65.0313 147.752 65.3303 148.124 65.3223 148.431C65.2657 150.218 64.4817 151.495 62.8247 152.238C61.782 152.707 60.699 153.006 59.5755 153.176C56.3505 153.685 53.1416 153.636 49.9409 152.958C49.1488 152.788 48.3971 152.497 47.6616 152.165C45.9157 151.381 45.3014 149.943 45.3014 148.14C45.3014 147.938 45.3499 147.736 45.3903 147.461L45.3822 147.469Z" fill="#003720"/>
<path d="M62.8569 14.6867C63.2772 14.0644 63.3984 13.3127 63.6086 12.6095C64.2391 10.4918 64.9099 8.39839 65.8637 6.40196C66.1223 5.8685 66.2597 5.77959 66.8417 5.83617C67.2216 5.87658 67.4479 6.11906 67.3428 6.49087C67.068 7.53354 66.7932 8.56812 66.4537 9.59462C65.6454 12.0437 64.8048 14.4847 63.9804 16.9337C63.8592 17.2894 63.7864 17.6773 63.4954 17.936C62.8407 18.5098 62.081 18.3724 61.6445 17.6207C61.103 16.6832 60.7392 15.6728 60.4078 14.6463C60.0522 13.5228 59.7531 12.3751 59.4298 11.2354C59.3086 10.8232 59.1793 10.4191 59.0499 10.0068C59.0095 9.87752 58.9368 9.85327 58.8075 9.85327C58.6701 9.85327 58.5973 9.87752 58.565 9.99068C58.3225 10.9283 58.0962 11.8659 57.8375 12.8035C57.6112 13.636 57.393 14.4685 57.1101 15.2768C56.9727 15.6728 56.7464 16.0446 56.2938 16.2305C55.9704 16.3598 55.5906 16.182 55.5986 15.8506C55.5986 15.689 55.6067 15.5273 55.6391 15.3738C56.2533 12.4236 56.8757 9.48147 57.4981 6.53128C57.5627 6.21605 57.6759 5.90891 57.8052 5.61794C57.983 5.24613 58.7832 4.87433 59.1793 4.96324C59.4622 5.0279 59.6238 5.24613 59.7774 5.47245C60.2947 6.25647 60.4806 7.16173 60.715 8.03466C61.2323 9.95026 61.7172 11.882 62.2265 13.7976C62.3154 14.1371 62.3154 14.5736 62.8327 14.6948L62.8569 14.6867Z" fill="#003720"/>
<path d="M73.1867 11.6235C74.3911 11.1224 75.361 10.2494 76.4764 9.61897C77.22 9.19867 77.9394 8.71371 78.6749 8.26916C78.8527 8.156 79.0629 8.03476 79.2649 8.02668C79.5721 8.0186 79.9358 8.02668 80.1379 8.31766C80.3642 8.65713 80.1379 8.92386 79.9115 9.16634C78.7234 10.4272 77.3251 11.4214 75.8459 12.3105C75.6115 12.4479 75.361 12.553 75.1347 12.6904C74.5365 13.046 73.9546 13.4178 73.3565 13.7896C73.308 14.5575 73.9142 15.0344 74.1971 15.6568C74.876 17.1197 75.4256 18.6312 75.8217 20.1912C75.9591 20.7246 75.7409 20.9752 75.1832 21.056C74.5689 21.1449 74.1971 20.959 73.898 20.3771C73.2595 19.1242 72.8149 17.8068 72.3542 16.4812C72.1845 15.9962 72.1602 15.4143 71.5944 15.099C71.1741 15.6325 71.0287 16.263 70.7943 16.853C70.4952 17.6047 70.2123 18.3564 69.6223 18.9464C69.3879 19.1808 69.1535 19.4233 68.7897 19.2778C68.4907 19.1566 68.5068 18.8656 68.4907 18.5908C68.4584 18.0492 68.4907 17.5239 68.6281 16.9904C69.4687 13.7573 70.6568 10.6455 71.845 7.53364C71.9986 7.13758 72.2168 6.7577 72.4431 6.39398C72.6452 6.07067 72.9604 6.06258 73.2999 6.16766C73.607 6.25657 73.7444 6.49097 73.7283 6.77386C73.6959 7.30732 73.6555 7.84886 73.5343 8.36615C73.3241 9.31183 73.0655 10.2413 72.823 11.1789C72.7099 11.3648 72.6209 11.575 72.7988 11.7447C72.9119 11.8498 73.0817 11.7528 73.1948 11.6397L73.1867 11.6235Z" fill="#003720"/>
<path d="M43.5313 12.1084C42.8443 12.1488 42.3432 12.4802 41.8016 12.6661C41.2924 12.844 40.7751 12.9894 40.1932 13.1673C39.9749 13.9675 40.2497 14.8242 40.1851 15.6567C40.1527 16.0851 40.2093 16.5135 40.1932 16.9419C40.1851 17.2733 39.6031 17.7663 39.2879 17.6774C39.1101 17.6289 38.908 17.443 38.8353 17.2733C38.4877 16.4812 38.2776 15.6325 38.221 14.7838C38.0836 12.8601 38.0189 10.9203 37.9543 8.98851C37.9381 8.61671 38.0189 8.2449 38.0674 7.86501C38.1078 7.55787 38.3018 7.39622 38.6009 7.36389C38.9323 7.32347 39.2152 7.51746 39.2879 7.88926C39.4253 8.62479 39.5385 9.3684 39.6597 10.112C39.7082 10.4272 39.7405 10.7505 39.7971 11.0658C39.8941 11.6477 40.1285 11.7851 40.6781 11.575C40.7266 11.5588 40.767 11.5184 40.8155 11.4941C41.6885 11.09 42.5533 10.6859 43.4262 10.2817C43.7172 9.39265 43.4909 8.4793 43.5556 7.58212C43.6041 6.94359 43.6283 6.29697 43.7091 5.65844C43.7415 5.38362 43.9355 5.17347 44.2507 5.16539C44.5821 5.15731 44.9054 5.17347 45.0185 5.58569C45.0751 5.79584 45.1479 5.99791 45.1721 6.20806C45.5682 9.67554 46.0208 13.1349 45.9723 16.6347C45.9642 17.3703 45.843 17.54 45.1398 17.7906C44.8245 17.8956 44.6063 17.7744 44.477 17.5077C44.3638 17.2733 44.283 17.0066 44.2426 16.7479C44.0324 15.4223 43.8385 14.0968 43.6364 12.7712C43.6041 12.5772 43.5798 12.3752 43.5394 12.1084H43.5313Z" fill="#003720"/>
<path d="M32.4821 20.3286C32.3932 20.272 32.2235 20.2154 32.1507 20.1023C32.0457 19.9244 31.9972 19.7062 31.9406 19.5041C31.3021 17.2652 31.1081 14.9617 30.9545 12.65C30.8494 11.0577 30.8252 11.0577 29.435 11.8579C28.3195 12.4964 27.1799 13.1107 26.0483 13.7169C25.8139 13.8382 25.5633 13.9594 25.3047 13.9917C25.1188 14.0079 24.8682 13.9271 24.7308 13.7978C24.5368 13.6118 24.7066 13.3936 24.8359 13.232C25.0056 13.0299 25.1915 12.8197 25.4098 12.6743C28.8611 10.2979 32.1831 7.73572 35.9092 5.77163C36.3618 5.52915 36.7821 5.39174 37.2833 5.56148C37.6955 5.70696 37.849 6.13535 37.5581 6.45057C37.3398 6.68497 37.0974 6.91129 36.8387 7.08911C35.5616 7.98629 34.2846 8.87538 32.9913 9.74832C32.1427 10.3141 32.0942 10.3141 32.3447 11.3002C32.7084 12.7066 32.9348 14.1453 33.0883 15.584C33.2257 16.8611 33.2338 18.1624 33.2742 19.4476C33.2904 19.9002 32.9267 20.2882 32.466 20.3286H32.4821Z" fill="#003720"/>
<path d="M52.0586 9.95844C52.0586 11.5184 52.0586 13.0784 52.0586 14.6302C52.0586 14.9536 52.0586 15.2769 52.0101 15.5921C51.9131 16.2791 51.7191 16.4327 50.9432 16.5216C50.4501 16.5782 50.1834 16.4489 50.1106 16.0205C50.0136 15.4951 49.8924 14.9536 49.9086 14.4282C50.0217 11.2032 50.1672 7.98626 50.7249 4.80168C50.7734 4.53495 50.83 4.2763 51.0321 4.07424C51.2018 3.91258 51.4039 3.86409 51.6221 3.88833C51.8727 3.91258 52.002 4.0904 52.0101 4.3248C52.0424 5.01991 52.0586 5.72311 52.0586 6.41822C52.0586 7.59829 52.0586 8.78645 52.0586 9.96653H52.0505L52.0586 9.95844Z" fill="#003720"/>
<path d="M52.3495 1.15639C52.3495 1.75451 51.8645 2.23947 51.2664 2.23947C50.6683 2.23947 50.1833 1.75451 50.1833 1.15639C50.1833 0.558265 50.6683 0.0733032 51.2664 0.0733032C51.8645 0.0733032 52.3495 0.558265 52.3495 1.15639Z" fill="#003720"/>
<path d="M95.0909 24.2487C95.0585 24.5235 94.9858 24.7741 94.7918 24.9842C94.4685 25.3398 94.1694 25.7359 93.8138 26.0592C92.5691 27.1746 91.3082 28.2658 90.0473 29.3569C89.926 29.462 89.7967 29.559 89.6512 29.6318C89.3764 29.7772 88.657 29.5833 88.4873 29.3165C88.3176 29.0498 88.455 28.7912 88.56 28.5568C88.6247 28.4113 88.7298 28.2819 88.8349 28.1607C90.2817 26.6412 91.7527 25.1459 93.442 23.8769C93.8785 23.5536 94.2907 23.4485 94.7756 23.7152C94.9858 23.8284 95.0747 24.0143 95.0747 24.2406L95.0909 24.2487Z" fill="#003720"/>
<path d="M89.5218 17.4672C89.4653 17.6127 89.4006 17.8148 89.3117 18.0088C88.9965 18.6958 88.5923 19.3262 88.1155 19.9163C87.2021 21.0479 86.2968 22.1794 85.3997 23.3272C85.1734 23.6182 84.9228 23.7152 84.5591 23.6101C84.1145 23.4808 83.8963 23.1898 84.0175 22.7937C84.066 22.6402 84.1226 22.4866 84.2034 22.3492C85.2784 20.6114 86.313 18.8494 87.7194 17.346C87.9053 17.152 88.0912 16.958 88.3014 16.7883C88.6166 16.5296 88.8995 16.756 89.1905 16.8772C89.4248 16.9742 89.4653 17.1843 89.5057 17.4672H89.5218Z" fill="#003720"/>
<path d="M100.821 31.2644C100.789 31.321 100.741 31.5473 100.603 31.6928C100.07 32.2909 99.5525 32.9133 98.9543 33.4387C97.9117 34.3601 96.772 35.1603 95.8506 36.211C95.6404 36.4535 95.3818 36.3808 95.1636 36.1544C94.5978 35.5563 94.5493 35.2653 95.0908 34.643C96.4325 33.0992 97.944 31.7575 99.7303 30.739C99.8677 30.6582 100.021 30.6016 100.175 30.5612C100.442 30.4804 100.846 30.836 100.805 31.2644H100.821Z" fill="#003720"/>
<path d="M102.519 60.9762C102.131 60.9843 101.589 60.5721 101.468 60.1276C101.436 59.9982 101.492 59.8043 101.573 59.683C101.654 59.5618 101.808 59.4486 101.953 59.4001C103.739 58.802 105.526 58.2039 107.441 58.1958C107.821 58.1958 108.185 58.2039 108.5 58.4706C108.92 58.8182 108.912 59.2627 108.443 59.4809C108.056 59.6588 107.643 59.7962 107.239 59.9336C105.703 60.4428 104.103 60.6853 102.519 60.9682V60.9762Z" fill="#003720"/>
<path d="M107.086 48.8039C107.013 48.9574 106.973 49.1999 106.835 49.3292C106.447 49.7011 105.97 49.9435 105.469 50.1537C104.144 50.7114 102.729 51.067 101.525 51.8996C101.363 52.0127 101.201 51.948 101.08 51.843C100.886 51.6652 100.717 51.455 100.531 51.261C100.24 50.962 100.385 50.671 100.555 50.3962C100.636 50.2668 100.765 50.1537 100.902 50.0729C102.487 49.1676 104.152 48.4482 105.946 48.0441C106.374 47.9471 106.673 48.1411 106.908 48.4644C106.973 48.5452 107.005 48.6503 107.078 48.8039H107.086Z" fill="#003720"/>
<path d="M104.677 40.2281C104.604 40.5514 104.426 40.8343 104.168 41.0202C103.521 41.481 102.85 41.9255 102.179 42.362C101.379 42.8873 100.547 43.3642 99.7626 43.9138C99.1807 44.318 98.922 44.3261 98.4451 43.8249C98.2269 43.5986 98.2269 43.3481 98.3724 43.0975C98.5098 42.8712 98.6634 42.6368 98.8654 42.4751C100.288 41.3435 101.783 40.317 103.489 39.6462C103.683 39.5734 103.901 39.5411 104.111 39.5411C104.362 39.5411 104.717 40.0018 104.685 40.2281H104.677Z" fill="#003720"/>
<path d="M23.47 26.1156C23.3002 26.6006 23.1305 27.0451 22.783 27.3846C22.7264 27.4412 22.5728 27.4493 22.4839 27.4169C22.3384 27.3603 22.1929 27.2714 22.0798 27.1664C19.857 24.9274 17.5454 22.7694 15.5166 20.3446C15.1125 19.8596 15.0801 19.6656 15.3307 19.3665C15.6944 18.9382 16.0016 18.8331 16.4461 19.0028C16.9553 19.1887 17.416 19.4635 17.8121 19.8273C18.483 20.4415 19.17 21.0397 19.7924 21.7024C20.8835 22.8825 21.9262 24.0949 22.9769 25.3073C23.179 25.5417 23.3083 25.8489 23.47 26.1075V26.1156Z" fill="#003720"/>
<path d="M17.0442 34.8531C17.0038 35.33 16.8502 35.6776 16.535 35.8958C16.244 36.0898 15.8965 36.009 15.6378 35.8069C13.7384 34.3358 11.8309 32.8648 9.95568 31.3533C9.46264 30.9573 9.08275 30.4238 8.66245 29.9389C8.46038 29.7125 8.46847 29.4539 8.66245 29.2195C8.90493 28.9366 9.13933 28.5648 9.58388 28.7588C10.0688 28.977 10.5619 29.2114 10.9741 29.5347C12.9301 31.03 14.8134 32.6142 16.6158 34.2874C16.8017 34.4652 16.9311 34.6996 17.0442 34.8612V34.8531Z" fill="#003720"/>
<path d="M3.40878 40.4221C3.71593 40.511 4.25747 40.5918 4.73435 40.8101C6.53679 41.6183 8.32307 42.4751 10.1174 43.3076C10.3599 43.4208 10.6024 43.5501 10.7075 43.8168C10.8691 44.221 10.3114 45.005 9.89111 44.9646C9.72946 44.9484 9.56781 44.9322 9.42232 44.8757C7.27232 44.0593 5.08999 43.3238 3.04506 42.2407C2.89957 42.168 2.75408 42.0952 2.62476 42.0063C2.31762 41.7962 1.96198 41.6103 2.12363 41.1334C2.31762 40.5433 2.58435 40.3494 3.40878 40.4221Z" fill="#003720"/>
<path d="M5.25163 53.7019C4.54035 53.6049 3.48152 53.4836 2.42268 53.3139C2.00238 53.2492 1.59016 53.1199 1.19411 52.9583C0.895052 52.837 0.620239 52.6269 0.620239 52.2551C0.620239 51.9237 1.05671 51.366 1.35577 51.3013C1.56592 51.2609 1.78415 51.2124 1.98622 51.2528C3.56234 51.5357 5.13847 51.8348 6.70652 52.15C6.96516 52.1985 7.21573 52.344 7.3208 52.6107C7.40163 52.8047 7.1834 53.5402 6.99749 53.6453C6.86817 53.718 6.70652 53.7665 6.55294 53.7665C6.22964 53.7665 5.91441 53.7423 5.24355 53.7019H5.25163Z" fill="#003720"/>
<path d="M3.57852 83.7777C3.39262 83.7453 3.17439 83.713 3.12589 83.4463C3.05315 83.0745 2.95615 82.6865 3.29563 82.4036C3.4977 82.2419 3.74018 82.1045 3.99074 82.0237C5.61536 81.5064 7.24807 81.0053 8.87269 80.5042C9.02627 80.4557 9.17984 80.4233 9.34149 80.4072C9.7133 80.3587 10.0609 80.6254 10.1498 81.0215C10.2225 81.3529 10.0043 81.5064 9.76987 81.6357C9.53547 81.757 9.29299 81.8782 9.04243 81.9752C7.80578 82.4683 6.56104 82.9532 5.3163 83.4301C4.76668 83.6403 4.20897 83.8181 3.57852 83.7777Z" fill="#003720"/>
<path d="M17.0686 95.3359C17.0847 95.5784 16.9392 95.7481 16.7776 95.8855C15.3227 97.0899 13.7789 98.1649 12.1058 99.0378C11.9199 99.1348 11.7097 99.2075 11.4996 99.2399C11.2813 99.2803 11.0389 99.2399 10.9661 98.9974C10.9095 98.8034 10.853 98.5043 10.958 98.3912C11.2733 98.0355 11.6289 97.6961 12.0249 97.4293C12.9625 96.7989 13.9325 96.2169 14.8862 95.6026C15.3389 95.3117 15.7753 95.0045 16.2441 94.7216C16.3654 94.6489 16.5674 94.6166 16.6806 94.6731C16.9311 94.8025 17.0362 95.053 17.0766 95.3359H17.0686Z" fill="#003720"/>
<path d="M7.30466 92.6768C7.06218 92.6768 6.90053 92.5314 6.79545 92.3374C6.66613 92.0868 6.61763 91.8201 6.79545 91.5776C6.88436 91.4483 7.02177 91.3351 7.16726 91.2705C8.63023 90.5915 10.0932 89.9206 11.5642 89.2498C11.7017 89.1851 11.8795 89.1689 12.033 89.177C12.3402 89.2013 12.5099 89.4195 12.5665 89.6943C12.5988 89.8317 12.5746 90.0823 12.4857 90.1389C10.8611 91.0846 9.30109 92.1515 7.45823 92.6607C7.40974 92.6768 7.35316 92.6607 7.29658 92.6688L7.30466 92.6768Z" fill="#003720"/>
<path d="M5.25962 63.3203C6.05981 63.2718 6.70643 63.2233 7.35304 63.1829C7.60361 63.1667 7.77334 63.3284 7.838 63.5305C7.92691 63.8053 7.83801 64.0558 7.58744 64.2256C7.50661 64.2822 7.39346 64.3145 7.28838 64.3307C5.59101 64.6378 3.88556 64.8722 2.16395 64.8722C1.75173 64.8722 1.28293 64.9045 1.03237 64.4438C0.886879 64.1609 1.2991 63.878 2.05887 63.6598C3.15812 63.3365 4.29778 63.4011 5.25962 63.3203Z" fill="#003720"/>
<path d="M2.41457 74.1593C1.5093 74.1755 1.16175 73.9895 1.18599 73.6339C1.21832 73.1409 1.63054 73.0924 1.98618 72.9954C3.74821 72.5266 5.55874 72.3164 7.36926 72.082C7.47434 72.0659 7.60366 72.0659 7.68449 72.1144C7.80573 72.1952 7.95122 72.3083 7.98355 72.4377C8.02396 72.5751 7.99971 72.7691 7.91889 72.8903C7.83806 73.0115 7.67641 73.1085 7.53092 73.1409C5.76889 73.5854 3.99878 74.0542 2.40648 74.1593H2.41457Z" fill="#003720"/>
<path d="M15.929 134.933C15.4278 134.796 14.9025 134.683 14.4013 134.513C14.0376 134.392 13.973 133.81 14.2882 133.575C14.4579 133.446 14.6438 133.333 14.8378 133.268C15.1934 133.147 15.5491 133.034 15.9209 132.961C17.2384 132.694 18.5559 132.428 19.8087 131.943C20.3179 131.741 20.7463 131.829 21.1827 132.104C21.4414 132.266 21.506 132.727 21.304 132.953C21.1585 133.115 21.0049 133.268 20.8271 133.381C19.348 134.359 17.6344 134.586 15.929 134.933Z" fill="#003720"/>
<path d="M18.1517 124.636C17.7799 124.636 17.4001 124.612 17.0283 124.636C15.9452 124.709 15.0561 124.208 14.1831 123.666C13.7467 123.399 13.8194 122.68 14.3044 122.486C14.5954 122.373 14.9267 122.324 15.242 122.316C16.7534 122.276 18.2245 122.664 19.7117 122.825C20.0997 122.866 20.4715 123.197 20.8352 123.424C21.0939 123.585 21.0454 124.046 20.7948 124.272C20.5442 124.49 20.2613 124.644 19.9299 124.652C19.3399 124.668 18.7499 124.652 18.1598 124.652V124.628L18.1517 124.636Z" fill="#003720"/>
<path d="M17.6425 126.915C18.0386 126.964 18.3134 126.956 18.564 127.036C18.9196 127.15 19.3076 127.319 19.3561 127.74C19.4046 128.192 19.0247 128.386 18.6609 128.499C17.0121 128.992 15.347 129.332 13.6335 128.79C13.4153 128.718 13.2455 128.588 13.197 128.37C13.1324 128.079 13.2859 127.853 13.5365 127.715C13.6739 127.643 13.8356 127.61 13.9891 127.554C15.2096 127.109 16.5109 127.166 17.6425 126.915Z" fill="#003720"/>
<path d="M95.2443 103.063C95.5514 103.047 95.7131 103.249 95.8747 103.467C96.0687 103.726 96.2708 103.993 96.093 104.332C95.996 104.518 95.8747 104.712 95.7131 104.833C94.9372 105.399 94.1612 105.949 93.361 106.482C93.0135 106.716 92.6659 106.668 92.3426 106.369C92.0516 106.102 91.9627 105.811 92.1809 105.536C92.9569 104.583 93.8945 103.807 94.9371 103.152C95.0261 103.095 95.1392 103.087 95.2362 103.055L95.2443 103.063Z" fill="#003720"/>
<path d="M92.5125 111.275C92.076 111.275 91.8416 111.049 91.6315 110.806C91.4698 110.628 91.4618 110.386 91.6315 110.232C92.5206 109.448 93.5471 108.907 94.6868 108.608C95.0181 108.519 95.301 108.664 95.5597 108.891C95.9153 109.206 95.9638 109.691 95.6567 110.014C95.5839 110.095 95.5112 110.168 95.4223 110.224C94.5089 110.806 93.4501 110.976 92.5125 111.267V111.275Z" fill="#003720"/>
<path d="M91.6718 116.052C91.3647 115.987 91.1061 115.939 90.8474 115.874C90.6373 115.818 90.4433 115.704 90.4109 115.47C90.3705 115.244 90.4756 115.042 90.6615 114.92C91.6557 114.29 92.7307 113.829 93.8542 113.49C94.2421 113.377 94.7756 113.797 94.9049 114.274C95.0019 114.638 94.7998 114.904 94.4927 115.05C93.5794 115.494 92.6256 115.81 91.6638 116.036L91.6718 116.052Z" fill="#003720"/>
</svg>
